{"glyphs":{"0":{"ha":1285,"x_min":69,"x_max":1215,"o":"m 1010 965 q 643 1111 857 1111 q 262 953 419 1111 q 104 574 104 796 q 250 206 104 358 l 1010 965 m 275 181 q 643 35 428 35 q 1023 192 865 35 q 1181 574 1181 350 q 1035 940 1181 788 l 275 181 m 1047 978 q 1131 894 1047 978 q 1215 574 1215 810 q 1047 168 1215 336 q 643 0 879 0 q 238 168 406 0 q 69 574 69 336 q 238 978 69 810 q 643 1146 406 1146 q 1047 978 879 1146 z "},"1":{"ha":625,"x_min":104,"x_max":556,"o":"m 347 35 l 556 35 l 556 0 l 104 0 l 104 35 l 313 35 l 313 1076 l 172 833 l 132 833 l 313 1146 l 347 1146 l 347 35 z "},"2":{"ha":833,"x_min":69,"x_max":764,"o":"m 110 35 l 764 35 l 764 0 l 75 0 l 69 -6 l 69 43 l 638 613 q 729 833 729 704 q 638 1054 729 963 q 417 1146 546 1146 q 196 1054 288 1146 q 104 833 104 963 l 69 833 q 171 1079 69 978 q 417 1181 272 1181 q 663 1079 561 1181 q 764 833 764 978 q 663 588 764 689 l 110 35 z "},"3":{"ha":868,"x_min":104,"x_max":764,"o":"m 432 590 l 432 625 l 433 625 q 617 701 540 625 q 693 886 693 778 q 617 1069 693 993 q 433 1146 540 1146 q 249 1069 325 1146 q 172 903 178 999 l 138 903 q 224 1094 143 1014 q 433 1181 310 1181 q 642 1094 556 1181 q 728 886 728 1008 q 642 676 728 763 q 539 608 596 631 q 668 529 610 586 q 764 296 764 432 q 667 62 764 158 q 435 -35 571 -35 q 201 62 297 -35 q 104 296 104 158 l 104 313 l 139 313 l 139 296 q 225 86 139 172 q 435 0 311 0 q 643 86 557 0 q 729 296 729 172 q 643 504 729 418 q 435 590 557 590 l 432 590 z "},"4":{"ha":903,"x_min":69,"x_max":868,"o":"m 625 278 l 625 1146 l 660 1146 l 660 278 l 868 278 l 868 243 l 660 243 l 660 0 l 625 0 l 625 243 l 69 243 l 69 278 l 71 278 l 388 1146 l 424 1146 l 107 278 l 625 278 z "},"5":{"ha":903,"x_min":69,"x_max":822,"o":"m 796 1146 l 796 1111 l 260 1111 l 154 714 q 406 799 263 799 q 700 676 578 799 q 822 382 822 554 q 700 88 822 210 q 406 -35 578 -35 q 111 88 233 -35 q 69 136 88 111 l 97 157 q 136 113 114 133 q 406 0 247 0 q 676 112 564 0 q 788 382 788 224 q 676 652 788 540 q 406 764 564 764 q 138 654 249 764 l 138 653 l 136 653 l 104 661 l 235 1146 l 796 1146 z "},"6":{"ha":833,"x_min":69,"x_max":764,"o":"m 638 92 q 683 138 638 92 q 729 313 729 183 q 638 533 729 442 q 417 625 546 625 q 196 533 288 625 q 104 313 104 442 q 196 92 104 183 q 417 0 288 0 q 638 92 546 0 m 115 486 q 171 558 138 525 q 417 660 272 660 q 663 558 561 660 q 764 313 764 457 q 663 67 764 168 q 417 -35 561 -35 q 171 67 272 -35 q 69 313 69 168 l 69 347 q 324 961 69 707 q 764 1200 514 1151 l 764 1164 q 349 938 528 1117 q 115 486 154 743 z "},"7":{"ha":729,"x_min":0,"x_max":694,"o":"m 694 1111 l 290 0 l 253 0 l 657 1111 l 0 1111 l 0 1146 l 694 1146 l 694 1111 z "},"8":{"ha":868,"x_min":106,"x_max":765,"o":"m 435 1146 q 250 1069 326 1146 q 174 886 174 993 q 250 701 174 778 q 435 625 326 625 q 618 701 542 625 q 694 886 694 778 q 618 1069 694 993 q 435 1146 542 1146 m 436 590 q 226 504 313 590 q 140 296 140 418 q 226 86 140 172 q 436 0 313 0 q 644 86 558 0 q 731 296 731 172 q 644 504 731 418 q 436 590 558 590 m 329 608 q 225 676 272 629 q 139 886 139 763 q 225 1094 139 1008 q 435 1181 311 1181 q 643 1094 557 1181 q 729 886 729 1008 q 643 676 729 763 q 540 608 597 631 q 669 529 611 586 q 765 296 765 432 q 669 62 765 158 q 436 -35 572 -35 q 202 62 299 -35 q 106 296 106 158 q 203 529 106 432 q 329 608 258 585 z "},"9":{"ha":833,"x_min":69,"x_max":764,"o":"m 196 1054 q 150 1008 196 1054 q 104 833 104 963 q 196 613 104 704 q 417 521 288 521 q 638 613 546 521 q 729 833 729 704 q 638 1054 729 963 q 417 1146 546 1146 q 196 1054 288 1146 m 718 660 q 663 588 696 621 q 417 486 561 486 q 171 588 272 486 q 69 833 69 689 q 171 1079 69 978 q 417 1181 272 1181 q 663 1079 561 1181 q 764 833 764 978 l 764 799 q 510 185 764 439 q 69 -54 319 -6 l 69 -18 q 485 208 306 29 q 718 660 679 403 z "}," ":{"ha":556,"x_min":0,"x_max":0,"o":""},"!":{"ha":313,"x_min":139,"x_max":174,"o":"m 174 104 l 174 0 l 139 0 l 139 104 l 174 104 m 174 1146 l 174 208 l 139 208 l 139 1146 l 174 1146 z "},"\"":{"ha":417,"x_min":72,"x_max":346,"o":"m 72 1043 l 138 1286 l 175 1286 l 110 1043 l 72 1043 m 243 1043 l 308 1286 l 346 1286 l 281 1043 l 243 1043 z "},"#":{"ha":903,"x_min":69,"x_max":833,"o":"m 208 208 l 208 938 l 69 938 l 69 972 l 208 972 l 208 1146 l 243 1146 l 243 972 l 660 972 l 660 1146 l 694 1146 l 694 972 l 833 972 l 833 938 l 694 938 l 694 208 l 833 208 l 833 174 l 694 174 l 694 0 l 660 0 l 660 174 l 243 174 l 243 0 l 208 0 l 208 174 l 69 174 l 69 208 l 208 208 m 243 938 l 243 208 l 660 208 l 660 938 l 243 938 z "},"$":{"ha":972,"x_min":53,"x_max":904,"o":"m 496 594 l 697 542 q 867 413 808 511 q 904 276 904 347 q 893 201 904 240 q 819 72 874 124 l 818 74 q 542 -46 706 -35 q 496 -47 518 -47 l 496 -174 l 461 -174 l 461 -46 q 172 64 297 -35 q 53 211 92 138 l 85 226 q 196 90 119 158 q 461 -11 310 -1 l 461 568 l 353 597 q 164 729 228 631 q 121 871 121 794 q 132 953 121 910 q 276 1143 165 1078 q 428 1190 350 1185 q 461 1193 444 1192 l 461 1319 l 496 1319 l 496 1193 q 725 1132 615 1189 q 865 1013 800 1088 l 836 993 q 707 1101 776 1063 q 496 1158 604 1154 l 496 594 m 461 1158 q 429 1156 446 1157 q 294 1113 360 1150 q 165 943 194 1054 q 154 869 154 904 q 193 747 154 803 q 361 631 250 661 l 461 604 l 461 1158 m 496 -12 q 539 -11 517 -12 q 793 99 689 -1 q 860 210 842 143 q 869 276 869 243 q 836 396 869 338 q 688 507 785 482 l 496 558 l 496 -12 z "},"%":{"ha":1667,"x_min":69,"x_max":1597,"o":"m 624 -139 l 1006 1285 l 1042 1285 l 660 -139 l 624 -139 m 382 1318 q 603 1226 511 1318 q 694 1006 694 1135 q 603 785 694 876 q 382 693 511 693 q 161 785 253 693 q 69 1006 69 876 q 161 1226 69 1135 q 382 1318 253 1318 m 382 1283 q 185 1202 267 1283 q 104 1006 104 1121 q 185 809 104 890 q 382 728 267 728 q 578 809 497 728 q 660 1006 660 890 q 578 1202 660 1121 q 382 1283 497 1283 m 1285 451 q 1506 360 1414 451 q 1597 139 1597 268 q 1506 -82 1597 10 q 1285 -174 1414 -174 q 1064 -82 1156 -174 q 972 139 972 10 q 1064 360 972 268 q 1285 451 1156 451 m 1285 417 q 1088 335 1169 417 q 1007 139 1007 254 q 1088 -58 1007 24 q 1285 -139 1169 -139 q 1481 -58 1400 -139 q 1563 139 1563 24 q 1481 335 1563 254 q 1285 417 1400 417 z "},"&":{"ha":1215,"x_min":104,"x_max":1146,"o":"m 324 876 l 465 694 q 665 835 571 760 q 757 994 744 896 q 708 1175 771 1096 q 547 1267 646 1254 q 367 1219 447 1281 q 275 1057 288 1158 q 324 876 265 963 m 139 264 l 139 260 q 246 3 139 110 q 503 -104 353 -104 q 761 3 654 -104 q 849 139 822 64 l 456 649 q 263 515 346 586 q 139 264 139 407 m 983 -35 l 874 107 q 786 -21 844 38 q 503 -137 669 -137 q 221 -21 338 -137 q 104 261 104 96 l 104 264 q 239 540 106 425 q 435 676 324 614 l 296 854 q 240 1061 229 951 q 347 1247 256 1176 q 551 1301 438 1317 q 737 1195 667 1286 q 792 990 807 1104 q 686 807 776 876 q 486 667 592 732 l 860 181 q 868 260 868 219 l 868 626 l 1146 626 l 1146 592 l 903 592 l 903 261 q 888 146 903 200 l 1026 -35 l 983 -35 z "},"'":{"ha":243,"x_min":72,"x_max":175,"o":"m 72 1040 l 138 1283 l 175 1283 l 110 1040 l 72 1040 z "},"(":{"ha":347,"x_min":104,"x_max":236,"o":"m 236 1285 q 139 574 139 929 q 236 -139 139 217 l 201 -139 q 104 574 104 217 q 201 1285 104 929 l 236 1285 z "},")":{"ha":347,"x_min":104,"x_max":236,"o":"m 104 -139 q 201 572 201 217 q 104 1285 201 929 l 139 1285 q 236 572 236 929 q 139 -139 236 217 l 104 -139 z "},"*":{"ha":729,"x_min":96,"x_max":635,"o":"m 347 963 l 347 1215 l 382 1215 l 382 961 l 624 1040 l 635 1007 l 392 928 l 542 722 l 514 701 l 364 907 l 215 703 l 188 722 l 338 928 l 96 1007 l 107 1040 l 347 963 z "},"+":{"ha":938,"x_min":104,"x_max":833,"o":"m 486 590 l 833 590 l 833 556 l 486 556 l 486 208 l 451 208 l 451 556 l 104 556 l 104 590 l 451 590 l 451 938 l 486 938 l 486 590 z "},",":{"ha":243,"x_min":72,"x_max":175,"o":"m 72 -140 l 138 103 l 175 103 l 110 -140 l 72 -140 z "},"-":{"ha":556,"x_min":106,"x_max":453,"o":"m 453 590 l 453 556 l 106 556 l 106 590 l 453 590 z "},".":{"ha":243,"x_min":103,"x_max":138,"o":"m 138 104 l 138 0 l 103 0 l 103 104 l 138 104 z "},"/":{"ha":486,"x_min":35,"x_max":453,"o":"m 35 -139 l 417 1285 l 453 1285 l 71 -139 l 35 -139 z "},":":{"ha":313,"x_min":69,"x_max":104,"o":"m 104 347 l 104 243 l 69 243 l 69 347 l 104 347 m 104 833 l 104 729 l 69 729 l 69 833 l 104 833 z "},";":{"ha":313,"x_min":69,"x_max":174,"o":"m 69 -140 l 135 103 l 172 103 l 107 -140 l 69 -140 m 174 833 l 174 729 l 139 729 l 139 833 l 174 833 z "},"<":{"ha":694,"x_min":104,"x_max":553,"o":"m 504 174 l 104 572 l 129 597 l 504 972 l 553 972 l 153 572 l 551 174 l 504 174 z "},"=":{"ha":938,"x_min":104,"x_max":833,"o":"m 833 764 l 833 729 l 104 729 l 104 764 l 833 764 m 833 418 l 833 383 l 104 383 l 104 418 l 833 418 z "},">":{"ha":729,"x_min":139,"x_max":588,"o":"m 188 972 l 588 574 l 563 549 l 188 174 l 139 174 l 539 574 l 140 972 l 188 972 z "},"?":{"ha":799,"x_min":35,"x_max":728,"o":"m 375 104 l 375 0 l 340 0 l 340 104 l 375 104 m 35 868 q 135 1079 46 990 q 381 1181 236 1181 q 626 1079 525 1181 q 728 833 728 978 q 628 589 728 689 l 628 588 l 467 426 q 375 208 376 336 l 340 208 q 440 450 342 350 l 442 451 l 603 613 l 601 613 q 693 833 693 704 q 601 1054 693 963 q 381 1146 510 1146 q 160 1054 251 1146 q 69 868 81 975 l 35 868 z "},"@":{"ha":1528,"x_min":139,"x_max":1371,"o":"m 833 208 q 1188 356 1040 208 q 1250 431 1224 392 l 1189 660 q 1092 831 1167 756 q 833 938 985 938 l 817 938 q 558 831 665 938 q 451 574 451 724 q 558 315 451 422 q 817 208 665 208 l 833 208 m 1263 388 q 1213 332 1239 358 q 833 174 1054 174 l 817 174 q 533 290 650 174 q 417 574 417 407 q 533 856 417 739 q 817 972 650 972 l 833 972 q 1117 856 1000 972 q 1225 660 1201 771 l 1275 471 q 1335 713 1335 579 q 1188 1068 1335 921 q 833 1215 1040 1215 l 817 1215 q 362 1027 550 1215 q 174 574 174 839 q 362 119 174 307 q 817 -69 550 -69 l 972 -69 l 972 -104 l 817 -104 q 338 94 536 -104 q 139 574 139 293 q 338 1051 139 853 q 817 1250 536 1250 l 833 1250 q 1213 1093 1054 1250 q 1369 713 1369 935 q 1288 425 1369 551 l 1371 114 l 1338 106 l 1263 388 z "},"A":{"ha":1146,"x_min":15,"x_max":1129,"o":"m 986 222 l 572 1110 l 158 222 l 986 222 m 594 1146 l 1129 0 l 1090 0 l 1003 188 l 142 188 l 54 0 l 15 0 l 550 1146 l 594 1146 z "},"B":{"ha":1042,"x_min":139,"x_max":954,"o":"m 174 1111 l 174 590 l 625 590 q 808 667 732 590 q 885 851 885 743 q 808 1035 885 958 q 625 1111 732 1111 l 174 1111 m 174 556 l 174 35 l 660 35 q 843 111 767 35 q 919 296 919 188 q 843 479 919 403 q 660 556 767 556 l 174 556 m 139 1146 l 625 1146 q 833 1060 747 1146 q 919 851 919 974 q 833 642 919 728 q 743 579 792 600 q 868 504 813 560 q 954 296 954 418 q 868 86 954 172 q 660 0 782 0 l 139 0 l 139 1146 z "},"C":{"ha":1215,"x_min":69,"x_max":1107,"o":"m 1107 143 q 678 -35 929 -35 q 247 143 425 -35 q 69 574 69 321 q 247 1003 69 825 q 678 1181 425 1181 q 1107 1003 929 1181 l 1082 978 q 678 1146 914 1146 q 272 978 440 1146 q 104 574 104 810 q 272 168 104 336 q 678 0 440 0 q 1082 168 914 0 l 1107 143 z "},"D":{"ha":1250,"x_min":139,"x_max":1161,"o":"m 174 1111 l 174 33 l 589 33 l 589 35 q 969 193 813 35 q 1126 572 1126 350 q 969 954 1126 796 q 589 1111 813 1111 l 174 1111 m 139 1146 l 589 1146 q 993 978 826 1146 q 1161 572 1161 810 q 993 168 1161 336 q 590 0 826 0 l 590 -1 l 139 -1 l 139 1146 z "},"E":{"ha":868,"x_min":139,"x_max":799,"o":"m 139 1146 l 799 1146 l 799 1111 l 174 1111 l 174 590 l 660 590 l 660 556 l 174 556 l 174 35 l 799 35 l 799 0 l 139 0 l 139 1146 z "},"F":{"ha":833,"x_min":139,"x_max":799,"o":"m 139 1146 l 799 1146 l 799 1111 l 174 1111 l 174 590 l 660 590 l 660 556 l 174 556 l 174 0 l 139 0 l 139 1146 z "},"G":{"ha":1215,"x_min":69,"x_max":1107,"o":"m 1107 143 q 678 -35 929 -35 q 247 143 425 -35 q 69 574 69 321 q 247 1003 69 825 q 678 1181 425 1181 q 1107 1003 929 1181 l 1082 978 q 678 1146 914 1146 q 272 978 440 1146 q 104 574 104 810 q 272 168 104 336 q 678 0 440 0 q 1072 158 907 0 l 1072 556 l 656 556 l 656 590 l 1107 590 l 1107 143 z "},"H":{"ha":1215,"x_min":139,"x_max":1076,"o":"m 174 556 l 174 0 l 139 0 l 139 1146 l 174 1146 l 174 590 l 1042 590 l 1042 1146 l 1076 1146 l 1076 0 l 1042 0 l 1042 556 l 174 556 z "},"I":{"ha":313,"x_min":139,"x_max":174,"o":"m 174 1146 l 174 0 l 139 0 l 139 1146 l 174 1146 z "},"J":{"ha":521,"x_min":-35,"x_max":417,"o":"m 382 451 l 382 1146 l 417 1146 l 417 451 q 285 132 417 264 q -35 0 153 0 l -35 35 q 261 157 139 35 q 382 451 382 279 z "},"K":{"ha":868,"x_min":139,"x_max":772,"o":"m 174 1146 l 174 0 l 139 0 l 139 1146 l 174 1146 m 357 574 l 772 0 l 728 0 l 313 574 l 728 1146 l 772 1146 l 357 574 z "},"L":{"ha":764,"x_min":139,"x_max":799,"o":"m 139 1146 l 174 1146 l 174 35 l 799 35 l 799 0 l 139 0 l 139 1146 z "},"M":{"ha":1435,"x_min":139,"x_max":1294,"o":"m 174 1099 l 174 0 l 139 0 l 139 1146 l 183 1146 l 717 411 l 1250 1146 l 1294 1146 l 1294 0 l 1260 0 l 1260 1099 l 740 382 l 693 382 l 174 1099 z "},"N":{"ha":1156,"x_min":139,"x_max":1015,"o":"m 174 1099 l 174 0 l 139 0 l 139 1146 l 183 1146 l 981 47 l 981 1146 l 1015 1146 l 1015 0 l 971 0 l 174 1099 z "},"O":{"ha":1354,"x_min":69,"x_max":1285,"o":"m 678 1181 q 1107 1003 929 1181 q 1285 574 1285 825 q 1107 143 1285 321 q 678 -35 929 -35 q 247 143 425 -35 q 69 574 69 321 q 247 1003 69 825 q 678 1181 425 1181 m 678 1146 q 272 978 440 1146 q 104 574 104 810 q 272 168 104 336 q 678 0 440 0 q 1082 168 914 0 q 1250 574 1250 336 q 1082 978 1250 810 q 678 1146 914 1146 z "},"P":{"ha":1007,"x_min":139,"x_max":938,"o":"m 174 1111 l 174 347 l 521 347 q 791 459 679 347 q 903 729 903 571 q 791 999 903 888 q 521 1111 679 1111 l 174 1111 m 139 1146 l 521 1146 q 815 1024 693 1146 q 938 729 938 901 q 815 435 938 557 q 521 313 693 313 l 174 313 l 174 0 l 139 0 l 139 1146 z "},"Q":{"ha":1354,"x_min":69,"x_max":1285,"o":"m 678 1181 q 1107 1003 929 1181 q 1285 574 1285 825 q 1107 143 1285 321 q 678 -35 929 -35 q 247 143 425 -35 q 69 574 69 321 q 247 1003 69 825 q 678 1181 425 1181 m 678 1146 q 272 978 440 1146 q 104 574 104 810 q 272 168 104 336 q 678 0 440 0 q 1082 168 914 0 q 1250 574 1250 336 q 1082 978 1250 810 q 678 1146 914 1146 m 679 596 l 1285 -10 l 1260 -35 l 654 571 l 679 596 z "},"R":{"ha":1076,"x_min":139,"x_max":972,"o":"m 174 1111 l 174 347 l 556 347 q 826 459 714 347 q 938 729 938 571 q 826 999 938 888 q 556 1111 714 1111 l 174 1111 m 139 1146 l 556 1146 q 850 1024 728 1146 q 972 729 972 901 q 850 435 972 557 q 725 347 793 378 l 925 0 l 883 0 l 692 333 q 556 313 628 313 l 174 313 l 174 0 l 139 0 l 139 1146 z "},"S":{"ha":972,"x_min":49,"x_max":900,"o":"m 814 71 q 538 -49 701 -37 q 499 -50 518 -50 q 168 61 308 -50 q 49 208 88 135 l 81 224 q 192 88 115 156 q 496 -15 321 -15 q 535 -14 515 -15 q 789 96 685 -4 q 856 207 838 140 q 865 274 865 240 q 832 393 865 335 q 683 504 781 479 l 349 594 q 160 726 224 628 q 117 868 117 792 q 128 950 117 907 q 272 1140 161 1075 q 424 1188 346 1182 q 476 1190 450 1190 q 721 1129 604 1190 q 861 1010 796 1085 l 832 990 q 703 1099 772 1060 q 476 1156 593 1156 q 425 1153 451 1156 q 290 1110 356 1147 q 161 940 190 1051 q 150 867 150 901 q 189 744 150 800 q 357 628 246 658 l 693 539 q 863 410 804 508 q 900 274 900 344 q 889 199 900 238 q 815 69 869 121 l 814 71 z "},"T":{"ha":729,"x_min":0,"x_max":729,"o":"m 729 1146 l 729 1111 l 382 1111 l 382 0 l 347 0 l 347 1111 l 0 1111 l 0 1146 l 729 1146 z "},"U":{"ha":1111,"x_min":104,"x_max":1007,"o":"m 104 451 l 104 1146 l 139 1146 l 139 451 q 261 157 139 279 q 556 35 383 35 q 850 157 728 35 q 972 451 972 279 l 972 1146 l 1007 1146 l 1007 451 q 875 132 1007 264 q 556 0 743 0 q 236 132 368 0 q 104 451 104 264 z "},"V":{"ha":868,"x_min":0,"x_max":879,"o":"m 417 0 l 0 1146 l 38 1146 l 440 40 l 842 1146 l 879 1146 l 463 0 l 417 0 z "},"W":{"ha":1632,"x_min":14,"x_max":1617,"o":"m 815 856 l 490 0 l 444 0 l 14 1146 l 51 1146 l 468 40 l 797 907 l 835 907 l 1164 40 l 1579 1146 l 1617 1146 l 1186 0 l 1140 0 l 815 856 z "},"X":{"ha":972,"x_min":47,"x_max":924,"o":"m 508 574 l 924 0 l 879 0 l 486 542 l 92 0 l 47 0 l 464 574 l 47 1146 l 92 1146 l 486 604 l 879 1146 l 924 1146 l 508 574 z "},"Y":{"ha":868,"x_min":0,"x_max":868,"o":"m 451 425 l 451 0 l 417 0 l 417 425 l 0 1146 l 40 1146 l 435 464 l 828 1146 l 868 1146 l 451 425 z "},"Z":{"ha":903,"x_min":36,"x_max":861,"o":"m 818 1111 l 36 1111 l 36 1146 l 861 1146 l 861 1111 l 79 35 l 861 35 l 861 0 l 36 0 l 36 35 l 818 1111 z "},"[":{"ha":486,"x_min":139,"x_max":382,"o":"m 382 1319 l 382 1285 l 174 1285 l 174 -139 l 382 -139 l 382 -174 l 139 -174 l 139 1319 l 382 1319 z "},"\\":{"ha":486,"x_min":33,"x_max":451,"o":"m 451 -139 l 69 1285 l 33 1285 l 415 -139 l 451 -139 z "},"]":{"ha":451,"x_min":69,"x_max":313,"o":"m 69 1319 l 69 1285 l 278 1285 l 278 -139 l 69 -139 l 69 -174 l 313 -174 l 313 1319 l 69 1319 z "},"^":{"ha":764,"x_min":69,"x_max":694,"o":"m 69 1042 l 382 1354 l 407 1331 l 694 1042 l 644 1042 l 382 1306 l 118 1042 l 69 1042 z "},"_":{"ha":1007,"x_min":104,"x_max":901,"o":"m 901 0 l 901 -35 l 104 -35 l 104 0 l 901 0 z "},"`":{"ha":243,"x_min":71,"x_max":174,"o":"m 174 1076 l 108 1319 l 71 1319 l 136 1076 l 174 1076 z "},"a":{"ha":1146,"x_min":69,"x_max":1007,"o":"m 1007 0 l 972 0 l 972 199 q 900 108 942 150 q 556 -35 757 -35 q 212 108 354 -35 q 69 451 69 250 q 212 795 69 653 q 556 938 354 938 q 900 796 757 938 q 972 704 942 753 l 972 903 l 1007 903 l 1007 0 m 972 274 l 972 629 q 875 771 939 707 q 556 903 743 903 q 236 771 368 903 q 104 451 104 639 q 236 132 104 264 q 556 0 368 0 q 875 132 743 0 q 972 274 939 196 z "},"b":{"ha":1181,"x_min":139,"x_max":1076,"o":"m 174 274 q 271 132 207 196 q 590 0 403 0 q 910 132 778 0 q 1042 451 1042 264 q 910 771 1042 639 q 590 903 778 903 q 271 771 403 903 q 174 629 207 707 l 174 274 m 139 1146 l 174 1146 l 174 704 q 247 796 204 753 q 590 938 389 938 q 934 795 792 938 q 1076 451 1076 653 q 934 108 1076 250 q 590 -35 792 -35 q 247 108 389 -35 q 174 199 204 151 l 174 0 l 139 0 l 139 1146 z "},"c":{"ha":972,"x_min":69,"x_max":904,"o":"m 868 125 l 892 100 q 556 -35 751 -35 q 212 108 354 -35 q 69 451 69 250 q 212 795 69 653 q 556 938 354 938 q 900 796 757 938 q 904 790 901 793 l 879 767 q 875 771 878 768 q 556 903 743 903 q 236 771 368 903 q 104 451 104 639 q 236 132 104 264 q 556 0 368 0 q 868 125 739 0 z "},"d":{"ha":1146,"x_min":71,"x_max":1008,"o":"m 974 274 q 876 132 940 196 q 557 0 744 0 q 238 132 369 0 q 106 451 106 264 q 238 771 106 639 q 557 903 369 903 q 876 771 744 903 q 974 629 940 707 l 974 274 m 1008 1146 l 974 1146 l 974 704 q 900 796 943 753 q 557 938 758 938 q 213 795 356 938 q 71 451 71 653 q 213 108 71 250 q 557 -35 356 -35 q 900 108 758 -35 q 974 199 943 151 l 974 0 l 1008 0 l 1008 1146 z "},"e":{"ha":972,"x_min":69,"x_max":904,"o":"m 240 128 q 556 0 371 0 q 868 125 739 0 l 892 100 q 556 -35 751 -35 q 212 108 354 -35 q 69 451 69 250 q 212 795 69 653 q 556 938 354 938 q 900 796 757 938 q 904 790 901 793 l 879 767 l 240 128 m 854 790 q 556 903 729 903 q 236 771 368 903 q 104 451 104 639 q 217 153 104 278 l 854 790 z "},"f":{"ha":417,"x_min":-278,"x_max":590,"o":"m 139 1042 q 271 1361 139 1229 q 590 1493 403 1493 l 590 1458 q 294 1336 417 1458 q 174 1042 174 1214 l 174 903 l 381 903 l 381 868 l 174 868 l 174 0 q 42 -319 174 -187 q -278 -451 -90 -451 l -278 -417 q 18 -294 -104 -417 q 139 0 139 -172 l 139 1042 z "},"g":{"ha":1146,"x_min":69,"x_max":1007,"o":"m 1007 0 q 875 -319 1007 -187 q 556 -451 743 -451 l 556 -417 q 851 -294 729 -417 q 972 0 972 -172 l 972 199 q 900 108 942 150 q 556 -35 757 -35 q 212 108 354 -35 q 69 451 69 250 q 212 795 69 653 q 556 938 354 938 q 900 796 757 938 q 972 704 942 753 l 972 903 l 1007 903 l 1007 0 m 972 274 l 972 629 q 875 771 939 707 q 556 903 743 903 q 236 771 368 903 q 104 451 104 639 q 236 132 104 264 q 556 0 368 0 q 875 132 743 0 q 972 274 939 196 z "},"h":{"ha":1128,"x_min":139,"x_max":1021,"o":"m 139 1146 l 174 1146 l 174 706 q 250 807 204 760 q 569 939 382 939 q 889 807 757 939 q 1021 488 1021 675 l 1021 0 l 986 0 l 986 488 q 864 782 986 660 q 569 904 742 904 q 275 782 397 904 q 176 626 206 713 l 174 626 l 174 0 l 139 0 l 139 1146 z "},"i":{"ha":313,"x_min":139,"x_max":174,"o":"m 174 903 l 174 0 l 139 0 l 139 903 l 174 903 m 174 1215 l 174 1111 l 139 1111 l 139 1215 l 174 1215 z "},"j":{"ha":313,"x_min":-278,"x_max":174,"o":"m 174 1215 l 174 1111 l 139 1111 l 139 1215 l 174 1215 m 139 0 l 139 903 l 174 903 l 174 0 q 42 -319 174 -187 q -278 -451 -90 -451 l -278 -417 q 18 -294 -104 -417 q 139 0 139 -172 z "},"k":{"ha":764,"x_min":139,"x_max":685,"o":"m 174 1146 l 174 0 l 139 0 l 139 1146 l 174 1146 m 357 451 l 685 0 l 642 0 l 314 451 l 642 903 l 685 903 l 357 451 z "},"l":{"ha":313,"x_min":139,"x_max":174,"o":"m 174 1146 l 174 0 l 139 0 l 139 1146 l 174 1146 z "},"m":{"ha":1771,"x_min":139,"x_max":1632,"o":"m 139 904 l 174 904 l 174 718 q 251 826 201 776 q 521 938 363 938 q 792 826 679 938 q 885 674 858 758 q 981 826 913 758 q 1250 938 1092 938 q 1520 826 1408 938 q 1632 556 1632 714 l 1632 0 l 1597 0 l 1597 556 q 1496 801 1597 700 q 1250 903 1394 903 q 1004 801 1106 903 q 903 556 903 700 l 903 0 l 868 0 l 868 556 q 767 801 868 700 q 521 903 665 903 q 275 801 376 903 q 174 556 174 700 l 174 0 l 139 0 l 139 904 z "},"n":{"ha":1128,"x_min":139,"x_max":1021,"o":"m 139 904 l 174 904 l 174 706 q 250 807 204 760 q 569 939 382 939 q 889 807 757 939 q 1021 488 1021 675 l 1021 0 l 986 0 l 986 488 q 864 782 986 660 q 569 904 742 904 q 275 782 397 904 q 176 626 206 713 l 174 626 l 174 0 l 139 0 l 139 904 z "},"o":{"ha":1111,"x_min":69,"x_max":1042,"o":"m 556 938 q 899 795 757 938 q 1042 451 1042 653 q 899 108 1042 250 q 556 -35 757 -35 q 212 108 354 -35 q 69 451 69 250 q 212 795 69 653 q 556 938 354 938 m 556 903 q 236 771 368 903 q 104 451 104 639 q 236 132 104 264 q 556 0 368 0 q 875 132 743 0 q 1007 451 1007 264 q 875 771 1007 639 q 556 903 743 903 z "},"p":{"ha":1146,"x_min":138,"x_max":1075,"o":"m 172 629 q 269 771 206 707 q 589 903 401 903 q 908 771 776 903 q 1040 451 1040 639 q 908 132 1040 264 q 589 0 776 0 q 269 132 401 0 q 172 274 206 196 l 172 629 m 138 -243 l 172 -243 l 172 199 q 246 107 203 150 q 589 -35 388 -35 q 933 108 790 -35 q 1075 451 1075 250 q 933 795 1075 653 q 589 938 790 938 q 246 794 388 938 q 172 704 203 751 l 172 903 l 138 903 l 138 -243 z "},"q":{"ha":1146,"x_min":69,"x_max":1007,"o":"m 972 629 q 875 771 939 707 q 556 903 743 903 q 236 771 368 903 q 104 451 104 639 q 236 132 104 264 q 556 0 368 0 q 875 132 743 0 q 972 274 939 196 l 972 629 m 1007 -243 l 972 -243 l 972 199 q 899 107 942 150 q 556 -35 757 -35 q 212 108 354 -35 q 69 451 69 250 q 212 795 69 653 q 556 938 354 938 q 899 794 757 938 q 972 704 942 751 l 972 903 l 1007 903 l 1007 -243 z "},"r":{"ha":660,"x_min":174,"x_max":625,"o":"m 208 453 l 208 0 l 174 0 l 174 903 l 208 903 l 208 629 q 306 771 242 707 q 625 903 438 903 l 625 868 q 329 746 451 868 q 208 453 208 624 z "},"s":{"ha":868,"x_min":104,"x_max":744,"o":"m 557 450 q 711 339 663 421 q 744 218 744 283 q 738 158 744 189 q 628 4 714 57 q 489 -43 563 -32 q 410 -49 449 -49 q 111 33 253 -49 q 104 38 107 36 l 125 67 q 131 61 128 64 q 413 -12 264 -12 q 485 -8 447 -12 q 611 33 547 -1 q 703 167 683 79 q 710 219 710 194 q 682 321 710 274 q 547 417 640 389 l 313 472 l 313 471 q 147 581 199 503 q 110 703 110 635 q 115 758 110 729 q 212 899 139 849 q 401 951 285 949 l 411 951 q 731 857 593 951 q 736 851 732 854 l 710 826 q 707 833 710 829 q 413 917 579 917 l 401 917 q 231 870 294 914 q 149 751 168 826 q 143 701 143 725 q 176 599 143 644 q 319 504 222 533 l 319 506 l 557 450 z "},"t":{"ha":417,"x_min":140,"x_max":381,"o":"m 140 1146 l 175 1146 l 175 903 l 381 903 l 381 868 l 175 868 l 175 0 l 140 0 l 140 1146 z "},"u":{"ha":1181,"x_min":139,"x_max":1021,"o":"m 1021 -1 l 986 -1 l 986 197 q 910 96 956 143 q 590 -36 778 -36 q 271 96 403 -36 q 139 415 139 228 l 139 903 l 174 903 l 174 415 q 296 121 174 243 q 590 -1 418 -1 q 885 121 763 -1 q 983 276 954 190 l 986 276 l 986 903 l 1021 903 l 1021 -1 z "},"v":{"ha":764,"x_min":33,"x_max":729,"o":"m 361 0 l 33 903 l 72 903 l 382 51 l 690 903 l 729 903 l 401 0 l 361 0 z "},"w":{"ha":1354,"x_min":1,"x_max":1357,"o":"m 329 0 l 1 903 l 40 903 l 350 51 l 658 903 l 700 903 l 1010 51 l 1318 903 l 1357 903 l 1029 0 l 989 0 l 679 853 l 369 0 l 329 0 z "},"x":{"ha":833,"x_min":67,"x_max":765,"o":"m 438 451 l 765 0 l 722 0 l 417 422 l 110 0 l 67 0 l 394 451 l 67 903 l 110 903 l 417 481 l 722 903 l 765 903 l 438 451 z "},"y":{"ha":1129,"x_min":104,"x_max":986,"o":"m 951 314 l 951 904 l 986 904 l 986 0 q 854 -319 986 -187 q 535 -451 722 -451 l 535 -417 q 831 -294 708 -417 q 951 0 951 -172 l 951 235 q 875 133 921 181 q 556 1 743 1 q 236 133 368 1 q 104 453 104 265 l 104 904 l 139 904 l 139 453 q 261 158 139 281 q 556 36 383 36 q 850 158 728 36 q 949 314 919 228 l 951 314 z "},"z":{"ha":833,"x_min":36,"x_max":800,"o":"m 753 868 l 36 868 l 36 903 l 800 903 l 800 868 l 83 35 l 800 35 l 800 0 l 36 0 l 36 35 l 753 868 z "},"{":{"ha":486,"x_min":139,"x_max":382,"o":"m 208 1165 q 290 1363 208 1281 q 382 1424 332 1404 l 382 1386 q 314 1338 344 1368 q 243 1165 243 1267 l 243 660 q 213 586 243 617 q 197 572 206 579 q 213 560 206 567 q 243 486 243 529 l 243 -19 q 314 -192 243 -121 q 382 -240 344 -224 l 382 -278 q 289 -217 331 -258 q 208 -19 208 -135 l 208 486 q 188 535 208 515 q 139 556 168 556 l 139 590 q 188 610 168 590 q 208 660 208 631 l 208 1165 z "},"|":{"ha":313,"x_min":139,"x_max":174,"o":"m 174 1285 l 174 -139 l 139 -139 l 139 1285 l 174 1285 z "},"}":{"ha":486,"x_min":104,"x_max":347,"o":"m 278 -19 q 196 -217 278 -135 q 104 -278 154 -258 l 104 -240 q 172 -192 142 -222 q 243 -19 243 -121 l 243 486 q 274 560 243 529 q 289 574 281 567 q 274 586 281 579 q 243 660 243 617 l 243 1165 q 172 1338 243 1267 q 104 1386 142 1369 l 104 1424 q 197 1363 156 1404 q 278 1165 278 1281 l 278 660 q 298 610 278 631 q 347 590 318 590 l 347 556 q 298 535 318 556 q 278 486 278 515 l 278 -19 z "},"~":{"ha":868,"x_min":104,"x_max":764,"o":"m 764 607 l 764 572 q 567 542 665 542 q 435 556 500 542 q 303 569 368 569 q 104 539 203 569 l 104 574 q 303 604 203 604 q 435 590 368 604 q 567 576 500 576 q 764 607 665 576 z "},"¡":{"ha":313,"x_min":139,"x_max":174,"o":"m 139 799 l 139 903 l 174 903 l 174 799 l 139 799 m 139 -243 l 139 694 l 174 694 l 174 -243 l 139 -243 z "},"¢":{"ha":1007,"x_min":69,"x_max":904,"o":"m 393 28 q 556 0 468 0 q 868 125 739 0 l 892 100 q 556 -35 751 -35 q 385 -6 464 -35 l 349 -139 l 313 -139 l 351 8 q 213 108 276 43 q 69 451 69 250 q 212 795 69 653 q 556 938 354 938 q 601 936 579 938 l 629 1042 l 665 1042 l 636 932 q 900 796 786 908 q 904 790 901 793 l 879 767 q 875 771 878 768 q 626 897 769 876 l 393 28 m 592 901 q 556 903 574 903 q 236 771 368 903 q 104 451 104 639 q 236 132 104 264 q 361 42 293 75 l 592 901 z "},"£":{"ha":1007,"x_min":139,"x_max":901,"o":"m 289 35 l 901 35 l 901 0 l 139 0 l 139 35 l 175 35 q 297 86 246 35 q 347 208 347 136 q 342 254 347 233 l 279 486 l 174 486 l 174 521 l 271 521 l 200 781 q 189 868 189 822 q 281 1089 189 997 q 501 1181 372 1181 q 722 1089 631 1181 q 814 868 814 997 l 779 868 q 698 1065 779 983 q 501 1146 617 1146 q 305 1065 386 1146 q 224 868 224 983 q 235 788 224 825 l 306 521 l 660 521 l 660 486 l 315 486 l 375 264 q 382 208 382 238 q 321 61 382 122 q 289 35 306 46 z "},"¤":{"ha":1007,"x_min":97,"x_max":903,"o":"m 242 831 q 135 574 135 724 q 242 315 135 422 q 500 208 349 208 q 758 315 651 208 q 864 574 864 422 q 758 831 864 724 q 500 938 651 938 q 242 831 349 938 m 769 867 l 878 975 l 903 951 l 794 843 q 899 574 899 731 q 794 303 899 415 l 901 196 l 876 171 l 769 279 q 500 174 657 174 q 231 279 343 174 l 122 171 l 97 196 l 206 303 q 100 574 100 415 q 206 842 100 729 l 97 951 l 122 975 l 231 867 q 500 972 343 972 q 769 867 657 972 z "},"¥":{"ha":729,"x_min":0,"x_max":738,"o":"m 383 174 l 383 0 l 354 0 l 354 174 l 178 174 l 178 208 l 354 208 l 354 417 l 178 417 l 178 451 l 342 451 l 0 1146 l 35 1146 l 369 464 l 704 1146 l 738 1146 l 396 451 l 560 451 l 560 417 l 383 417 l 383 208 l 560 208 l 560 174 l 383 174 z "},"¦":{"ha":313,"x_min":104,"x_max":139,"o":"m 139 516 l 139 -99 l 104 -99 l 104 516 l 139 516 m 139 1245 l 139 630 l 104 630 l 104 1245 l 139 1245 z "},"§":{"ha":833,"x_min":104,"x_max":744,"o":"m 192 829 q 147 879 165 851 q 110 1001 110 933 q 115 1057 110 1028 q 212 1197 139 1147 q 401 1250 285 1247 l 411 1250 q 731 1156 593 1250 q 736 1150 732 1153 l 710 1125 q 707 1132 710 1128 q 413 1215 579 1215 l 401 1215 q 231 1169 294 1213 q 149 1050 168 1125 q 143 999 143 1024 q 175 896 143 942 q 318 803 221 832 l 319 804 l 557 749 q 711 638 663 718 q 744 517 744 582 q 738 457 744 488 q 671 336 721 385 q 711 285 694 314 q 744 164 744 229 q 738 104 744 135 q 628 -50 714 3 q 489 -97 563 -86 q 410 -103 449 -103 q 111 -21 253 -103 q 104 -17 107 -18 l 125 13 q 131 7 128 10 q 413 -67 264 -67 q 485 -62 447 -67 q 611 -21 547 -56 q 703 113 683 25 q 710 165 710 140 q 682 267 710 219 q 547 363 640 335 l 313 417 q 147 526 199 449 q 110 649 110 581 q 115 704 110 675 q 192 829 135 782 m 221 808 q 149 697 167 765 q 143 647 143 671 q 176 544 143 590 q 319 451 222 479 l 557 396 q 643 357 607 382 q 703 465 688 399 q 710 518 710 493 q 682 619 710 572 q 547 715 640 688 l 313 771 l 313 769 q 221 808 260 785 z "},"¨":{"ha":451,"x_min":104,"x_max":346,"o":"m 104 1076 l 104 1181 l 139 1181 l 139 1076 l 104 1076 m 311 1076 l 311 1181 l 346 1181 l 346 1076 l 311 1076 z "},"©":{"ha":1354,"x_min":69,"x_max":1285,"o":"m 678 1181 q 1107 1003 929 1181 q 1285 574 1285 825 q 1107 143 1285 321 q 678 -35 929 -35 q 247 143 425 -35 q 69 574 69 321 q 247 1003 69 825 q 678 1181 425 1181 m 678 1146 q 272 978 440 1146 q 104 574 104 810 q 272 168 104 336 q 678 0 440 0 q 1082 168 914 0 q 1250 574 1250 336 q 1082 978 1250 810 q 678 1146 914 1146 m 950 386 l 976 364 q 935 315 958 339 q 678 208 828 208 q 419 315 526 208 q 313 574 313 422 q 419 831 313 724 q 678 938 526 938 q 935 831 828 938 q 960 803 949 817 l 933 782 q 911 807 922 794 q 678 903 814 903 q 444 806 540 903 q 347 574 347 710 q 444 340 347 436 q 678 243 540 243 q 911 340 814 243 q 950 386 932 361 z "},"ª":{"ha":1076,"x_min":104,"x_max":938,"o":"m 903 985 l 903 1146 l 938 1146 l 938 347 l 903 347 l 903 510 q 846 440 878 472 q 539 313 718 313 q 231 440 358 313 q 104 747 104 567 q 231 1053 104 926 q 539 1181 358 1181 q 846 1054 718 1181 q 903 985 878 1021 m 938 35 l 938 0 l 104 0 l 104 35 l 938 35 m 903 581 l 903 913 q 821 1029 874 976 q 539 1146 704 1146 q 256 1029 372 1146 q 139 747 139 913 q 256 464 139 581 q 539 347 372 347 q 821 464 704 347 q 903 581 874 517 z "},"«":{"ha":1158,"x_min":63,"x_max":906,"o":"z "},"¬":{"ha":1111,"x_min":104,"x_max":1007,"o":"m 972 556 l 104 556 l 104 590 l 1007 590 l 1007 382 l 972 382 l 972 556 z "},"­":{"ha":486,"x_min":69,"x_max":417,"o":"m 417 590 l 417 556 l 69 556 l 69 590 l 417 590 z "},"®":{"ha":1354,"x_min":69,"x_max":1285,"o":"m 486 868 l 486 450 l 731 450 q 878 511 817 450 q 939 658 939 572 q 878 806 939 744 q 731 867 817 867 l 731 868 l 486 868 m 486 415 l 486 243 l 451 243 l 451 903 l 731 903 l 731 901 q 903 830 832 901 q 974 658 974 758 q 903 486 974 557 q 815 429 864 447 l 924 243 l 883 243 l 781 419 q 731 415 757 415 l 486 415 m 678 1146 q 272 978 440 1146 q 104 574 104 810 q 272 168 104 336 q 678 0 440 0 q 1082 168 914 0 q 1250 574 1250 336 q 1082 978 1250 810 q 678 1146 914 1146 m 1107 1003 q 1196 914 1107 1003 q 1285 574 1285 825 q 1107 143 1285 321 q 678 -35 929 -35 q 247 143 425 -35 q 69 574 69 321 q 247 1003 69 825 q 678 1181 425 1181 q 1107 1003 929 1181 z "},"¯":{"ha":556,"x_min":106,"x_max":453,"o":"m 453 1111 l 453 1076 l 106 1076 l 106 1111 l 453 1111 z "},"°":{"ha":764,"x_min":69,"x_max":694,"o":"m 382 1146 q 603 1054 511 1146 q 694 833 694 963 q 603 613 694 704 q 382 521 511 521 q 161 613 253 521 q 69 833 69 704 q 161 1054 69 963 q 382 1146 253 1146 m 382 1111 q 185 1030 267 1111 q 104 833 104 949 q 185 637 104 718 q 382 556 267 556 q 578 637 497 556 q 660 833 660 718 q 578 1030 660 949 q 382 1111 497 1111 z "},"±":{"ha":938,"x_min":104,"x_max":833,"o":"m 486 590 l 833 590 l 833 556 l 486 556 l 486 208 l 451 208 l 451 556 l 104 556 l 104 590 l 451 590 l 451 938 l 486 938 l 486 590 m 833 35 l 833 0 l 104 0 l 104 35 l 833 35 z "},"²":{"ha":660,"x_min":68,"x_max":575,"o":"z "},"³":{"ha":694,"x_min":71,"x_max":626,"o":"z "},"´":{"ha":243,"x_min":72,"x_max":175,"o":"m 72 1076 l 138 1319 l 175 1319 l 110 1076 l 72 1076 z "},"µ":{"ha":1146,"x_min":139,"x_max":1021,"o":"m 1021 -1 l 986 -1 l 986 197 q 910 96 956 143 q 590 -36 778 -36 q 271 96 403 -36 q 174 238 207 160 l 174 -450 l 139 -450 l 139 903 l 174 903 l 174 415 q 296 121 174 243 q 590 -1 418 -1 q 885 121 763 -1 q 983 276 954 190 l 986 276 l 986 903 l 1021 903 l 1021 -1 z "},"¶":{"ha":1042,"x_min":104,"x_max":903,"o":"m 903 1146 l 903 0 l 868 0 l 868 1111 l 696 1111 l 696 0 l 661 0 l 661 556 l 399 556 q 190 642 276 556 q 104 851 104 728 q 190 1060 104 974 q 399 1146 276 1146 l 903 1146 m 661 1111 l 399 1111 q 215 1035 292 1111 q 139 851 139 958 q 215 667 139 743 q 399 590 292 590 l 661 590 l 661 1111 z "},"·":{"ha":243,"x_min":104,"x_max":139,"o":"m 139 625 l 139 521 l 104 521 l 104 625 l 139 625 z "},"¸":{"ha":451,"x_min":140,"x_max":453,"o":"m 279 -486 l 140 -486 l 140 -451 l 279 -451 q 377 -410 336 -451 q 418 -312 418 -369 q 377 -215 418 -256 q 279 -174 336 -174 l 210 -174 l 210 0 l 244 0 l 244 -139 l 279 -139 q 402 -190 351 -139 q 453 -312 453 -240 q 402 -435 453 -385 q 279 -486 351 -486 z "},"¹":{"ha":451,"x_min":69,"x_max":382,"o":"z "},"º":{"ha":868,"x_min":69,"x_max":799,"o":"m 435 1146 q 692 1039 585 1146 q 799 782 799 932 q 692 524 799 631 q 435 417 585 417 q 176 524 283 417 q 69 782 69 631 q 176 1039 69 932 q 435 1146 283 1146 m 435 1111 q 201 1015 297 1111 q 104 782 104 918 q 201 548 104 644 q 435 451 297 451 q 667 548 571 451 q 764 782 764 644 q 667 1015 764 918 q 435 1111 571 1111 m 799 35 l 799 0 l 104 0 l 104 35 l 799 35 z "},"»":{"ha":1158,"x_min":69,"x_max":913,"o":"z "},"¼":{"ha":1633,"x_min":69,"x_max":1596,"o":"z "},"½":{"ha":1597,"x_min":69,"x_max":1513,"o":"z "},"¾":{"ha":1876,"x_min":71,"x_max":1839,"o":"z "},"¿":{"ha":799,"x_min":69,"x_max":763,"o":"m 422 799 l 422 903 l 457 903 l 457 799 l 422 799 m 763 35 q 663 -176 751 -87 q 417 -278 561 -278 q 171 -176 272 -278 q 69 69 69 -75 q 169 314 69 214 l 169 315 l 331 476 q 422 694 421 567 l 457 694 q 357 453 456 553 l 356 451 l 194 290 l 196 290 q 104 69 104 199 q 196 -151 104 -60 q 417 -243 288 -243 q 638 -151 546 -243 q 728 35 717 -72 l 763 35 z "},"À":{"ha":1146,"x_min":15,"x_max":1129,"o":"m 986 222 l 572 1110 l 158 222 l 986 222 m 594 1146 l 1129 0 l 1090 0 l 1003 188 l 142 188 l 54 0 l 15 0 l 550 1146 l 594 1146 m 590 1285 l 525 1528 l 488 1528 l 553 1285 l 590 1285 z "},"Á":{"ha":1146,"x_min":15,"x_max":1129,"o":"m 986 222 l 572 1110 l 158 222 l 986 222 m 594 1146 l 1129 0 l 1090 0 l 1003 188 l 142 188 l 54 0 l 15 0 l 550 1146 l 594 1146 m 556 1285 l 621 1528 l 658 1528 l 593 1285 l 556 1285 z "},"Â":{"ha":1146,"x_min":15,"x_max":1129,"o":"m 986 222 l 572 1110 l 158 222 l 986 222 m 594 1146 l 1129 0 l 1090 0 l 1003 188 l 142 188 l 54 0 l 15 0 l 550 1146 l 594 1146 m 728 1285 l 574 1440 l 418 1285 l 368 1285 l 574 1489 l 778 1285 l 728 1285 z "},"Ã":{"ha":1146,"x_min":15,"x_max":1129,"o":"m 986 222 l 572 1110 l 158 222 l 986 222 m 594 1146 l 1129 0 l 1090 0 l 1003 188 l 142 188 l 54 0 l 15 0 l 550 1146 l 594 1146 m 799 1346 l 799 1311 q 671 1285 735 1285 q 574 1300 622 1285 q 475 1315 524 1315 q 347 1289 411 1315 l 347 1324 q 475 1350 411 1350 q 574 1335 524 1350 q 671 1319 622 1319 q 799 1346 735 1319 z "},"Ä":{"ha":1146,"x_min":15,"x_max":1129,"o":"m 986 222 l 572 1110 l 158 222 l 986 222 m 594 1146 l 1129 0 l 1090 0 l 1003 188 l 142 188 l 54 0 l 15 0 l 550 1146 l 594 1146 m 451 1285 l 451 1389 l 486 1389 l 486 1285 l 451 1285 m 658 1285 l 658 1389 l 693 1389 l 693 1285 l 658 1285 z "},"Å":{"ha":1146,"x_min":15,"x_max":1129,"o":"m 986 222 l 572 1110 l 158 222 l 986 222 m 572 1321 q 510 1295 536 1321 q 485 1235 485 1269 q 510 1173 485 1199 q 572 1147 536 1147 q 633 1173 607 1147 q 658 1235 658 1199 q 633 1295 658 1269 q 572 1321 607 1321 m 608 1118 l 1129 0 l 1090 0 l 1003 188 l 142 188 l 54 0 l 15 0 l 536 1117 q 486 1149 508 1125 q 450 1235 450 1183 q 485 1320 450 1285 q 572 1356 521 1356 q 658 1320 622 1356 q 693 1235 693 1285 q 658 1149 693 1183 q 608 1118 636 1126 z "},"Æ":{"ha":1493,"x_min":15,"x_max":1424,"o":"m 572 1111 l 158 222 l 764 222 l 764 1111 l 572 1111 m 142 188 l 54 0 l 15 0 l 550 1146 l 1424 1146 l 1424 1111 l 799 1111 l 799 590 l 1285 590 l 1285 556 l 799 556 l 799 35 l 1424 35 l 1424 0 l 764 0 l 764 188 l 142 188 z "},"Ç":{"ha":1215,"x_min":69,"x_max":1118,"o":"m 508 -12 q 247 143 363 28 q 69 574 69 321 q 247 1003 69 825 q 678 1181 425 1181 q 1107 1003 929 1181 q 1113 997 1110 1000 l 1086 974 q 1082 978 1085 975 q 678 1146 914 1146 q 272 978 440 1146 q 104 574 104 810 q 272 168 104 336 q 678 0 440 0 q 1082 168 914 0 q 1092 178 1088 174 l 1118 154 q 1107 143 1113 149 q 678 -35 929 -35 q 543 -21 607 -35 l 543 -139 l 578 -139 q 701 -190 650 -139 q 751 -312 751 -240 q 701 -435 751 -385 q 578 -486 650 -486 l 439 -486 l 439 -451 l 578 -451 q 676 -410 635 -451 q 717 -312 717 -369 q 676 -215 717 -256 q 578 -174 635 -174 l 508 -174 l 508 -12 z "},"È":{"ha":868,"x_min":139,"x_max":799,"o":"m 139 1146 l 799 1146 l 799 1111 l 174 1111 l 174 590 l 660 590 l 660 556 l 174 556 l 174 35 l 799 35 l 799 0 l 139 0 l 139 1146 m 486 1285 l 421 1528 l 383 1528 l 449 1285 l 486 1285 z "},"É":{"ha":868,"x_min":139,"x_max":799,"o":"m 139 1146 l 799 1146 l 799 1111 l 174 1111 l 174 590 l 660 590 l 660 556 l 174 556 l 174 35 l 799 35 l 799 0 l 139 0 l 139 1146 m 451 1285 l 517 1528 l 554 1528 l 489 1285 l 451 1285 z "},"Ê":{"ha":868,"x_min":139,"x_max":799,"o":"m 139 1146 l 799 1146 l 799 1111 l 174 1111 l 174 590 l 660 590 l 660 556 l 174 556 l 174 35 l 799 35 l 799 0 l 139 0 l 139 1146 m 624 1285 l 469 1440 l 314 1285 l 264 1285 l 469 1489 l 674 1285 l 624 1285 z "},"Ë":{"ha":868,"x_min":139,"x_max":799,"o":"m 139 1146 l 799 1146 l 799 1111 l 174 1111 l 174 590 l 660 590 l 660 556 l 174 556 l 174 35 l 799 35 l 799 0 l 139 0 l 139 1146 m 347 1319 l 347 1424 l 382 1424 l 382 1319 l 347 1319 m 554 1319 l 554 1424 l 589 1424 l 589 1319 l 554 1319 z "},"Ì":{"ha":313,"x_min":69,"x_max":174,"o":"m 174 1146 l 174 0 l 139 0 l 139 1146 l 174 1146 m 172 1319 l 107 1563 l 69 1563 l 135 1319 l 172 1319 z "},"Í":{"ha":313,"x_min":139,"x_max":243,"o":"m 174 1146 l 174 0 l 139 0 l 139 1146 l 174 1146 m 140 1319 l 206 1563 l 243 1563 l 178 1319 l 140 1319 z "},"Î":{"ha":313,"x_min":-49,"x_max":361,"o":"m 174 1146 l 174 0 l 139 0 l 139 1146 l 174 1146 m 311 1285 l 157 1440 l 1 1285 l -49 1285 l 157 1489 l 361 1285 l 311 1285 z "},"Ï":{"ha":313,"x_min":35,"x_max":276,"o":"m 174 1146 l 174 0 l 139 0 l 139 1146 l 174 1146 m 35 1319 l 35 1424 l 69 1424 l 69 1319 l 35 1319 m 242 1319 l 242 1424 l 276 1424 l 276 1319 l 242 1319 z "},"Ð":{"ha":1250,"x_min":0,"x_max":1161,"o":"m 139 590 l 139 1146 l 589 1146 q 993 978 826 1146 q 1161 572 1161 810 q 993 168 1161 336 q 590 0 826 0 l 590 -1 l 139 -1 l 139 556 l 0 556 l 0 590 l 139 590 m 174 590 l 382 590 l 382 556 l 174 556 l 174 33 l 589 33 l 589 35 q 969 193 813 35 q 1126 572 1126 350 q 969 954 1126 796 q 589 1111 813 1111 l 174 1111 l 174 590 z "},"Ñ":{"ha":1156,"x_min":139,"x_max":1015,"o":"m 174 1099 l 174 0 l 139 0 l 139 1146 l 183 1146 l 981 47 l 981 1146 l 1015 1146 l 1015 0 l 971 0 l 174 1099 m 803 1381 l 803 1346 q 675 1319 739 1319 q 578 1335 626 1319 q 479 1350 528 1350 q 351 1324 415 1350 l 351 1358 q 479 1385 415 1385 q 578 1369 528 1385 q 675 1354 626 1354 q 803 1381 739 1354 z "},"Ò":{"ha":1354,"x_min":69,"x_max":1285,"o":"m 678 1181 q 1107 1003 929 1181 q 1285 574 1285 825 q 1107 143 1285 321 q 678 -35 929 -35 q 247 143 425 -35 q 69 574 69 321 q 247 1003 69 825 q 678 1181 425 1181 m 678 1146 q 272 978 440 1146 q 104 574 104 810 q 272 168 104 336 q 678 0 440 0 q 1082 168 914 0 q 1250 574 1250 336 q 1082 978 1250 810 q 678 1146 914 1146 m 694 1319 l 629 1563 l 592 1563 l 657 1319 l 694 1319 z "},"Ó":{"ha":1354,"x_min":69,"x_max":1285,"o":"m 678 1181 q 1107 1003 929 1181 q 1285 574 1285 825 q 1107 143 1285 321 q 678 -35 929 -35 q 247 143 425 -35 q 69 574 69 321 q 247 1003 69 825 q 678 1181 425 1181 m 678 1146 q 272 978 440 1146 q 104 574 104 810 q 272 168 104 336 q 678 0 440 0 q 1082 168 914 0 q 1250 574 1250 336 q 1082 978 1250 810 q 678 1146 914 1146 m 661 1319 l 726 1563 l 764 1563 l 699 1319 l 661 1319 z "},"Ô":{"ha":1354,"x_min":69,"x_max":1285,"o":"m 678 1181 q 1107 1003 929 1181 q 1285 574 1285 825 q 1107 143 1285 321 q 678 -35 929 -35 q 247 143 425 -35 q 69 574 69 321 q 247 1003 69 825 q 678 1181 425 1181 m 678 1146 q 272 978 440 1146 q 104 574 104 810 q 272 168 104 336 q 678 0 440 0 q 1082 168 914 0 q 1250 574 1250 336 q 1082 978 1250 810 q 678 1146 914 1146 m 832 1285 l 678 1440 l 522 1285 l 472 1285 l 678 1489 l 882 1285 l 832 1285 z "},"Õ":{"ha":1354,"x_min":69,"x_max":1285,"o":"m 678 1181 q 1107 1003 929 1181 q 1285 574 1285 825 q 1107 143 1285 321 q 678 -35 929 -35 q 247 143 425 -35 q 69 574 69 321 q 247 1003 69 825 q 678 1181 425 1181 m 678 1146 q 272 978 440 1146 q 104 574 104 810 q 272 168 104 336 q 678 0 440 0 q 1082 168 914 0 q 1250 574 1250 336 q 1082 978 1250 810 q 678 1146 914 1146 m 903 1415 l 903 1381 q 775 1354 839 1354 q 678 1369 726 1354 q 579 1385 628 1385 q 451 1358 515 1385 l 451 1393 q 579 1419 515 1419 q 678 1404 628 1419 q 775 1389 726 1389 q 903 1415 839 1389 z "},"Ö":{"ha":1354,"x_min":69,"x_max":1285,"o":"m 678 1181 q 1107 1003 929 1181 q 1285 574 1285 825 q 1107 143 1285 321 q 678 -35 929 -35 q 247 143 425 -35 q 69 574 69 321 q 247 1003 69 825 q 678 1181 425 1181 m 678 1146 q 272 978 440 1146 q 104 574 104 810 q 272 168 104 336 q 678 0 440 0 q 1082 168 914 0 q 1250 574 1250 336 q 1082 978 1250 810 q 678 1146 914 1146 m 556 1319 l 556 1424 l 590 1424 l 590 1319 l 556 1319 m 763 1319 l 763 1424 l 797 1424 l 797 1319 l 763 1319 z "},"×":{"ha":938,"x_min":208,"x_max":749,"o":"m 1312 -65 l 1558 -311 l 1533 -335 l 1288 -90 l 1042 -335 l 1018 -311 l 1263 -65 l 1018 180 l 1042 205 l 1288 -41 l 1533 205 l 1558 180 l 1312 -65 z "},"Ø":{"ha":1354,"x_min":69,"x_max":1285,"o":"m 546 14 q 678 0 608 0 q 1082 168 914 0 q 1250 574 1250 336 q 1082 978 1250 810 q 843 1124 976 1083 l 546 14 m 511 24 l 808 1132 q 678 1146 746 1146 q 272 978 440 1146 q 104 574 104 810 q 272 168 104 336 q 511 24 378 63 m 851 1157 q 1107 1003 994 1115 q 1285 574 1285 825 q 1107 143 1285 321 q 678 -35 929 -35 q 536 -19 604 -35 l 504 -139 l 468 -139 l 503 -11 q 247 143 360 31 q 69 574 69 321 q 247 1003 69 825 q 678 1181 425 1181 q 818 1165 751 1181 l 850 1285 l 886 1285 l 851 1157 z "},"Ù":{"ha":1111,"x_min":104,"x_max":1007,"o":"m 104 451 l 104 1146 l 139 1146 l 139 451 q 261 157 139 279 q 556 35 383 35 q 850 157 728 35 q 972 451 972 279 l 972 1146 l 1007 1146 l 1007 451 q 875 132 1007 264 q 556 0 743 0 q 236 132 368 0 q 104 451 104 264 m 590 1319 l 525 1563 l 488 1563 l 553 1319 l 590 1319 z "},"Ú":{"ha":1111,"x_min":104,"x_max":1007,"o":"m 104 451 l 104 1146 l 139 1146 l 139 451 q 261 157 139 279 q 556 35 383 35 q 850 157 728 35 q 972 451 972 279 l 972 1146 l 1007 1146 l 1007 451 q 875 132 1007 264 q 556 0 743 0 q 236 132 368 0 q 104 451 104 264 m 521 1319 l 586 1563 l 624 1563 l 558 1319 l 521 1319 z "},"Û":{"ha":1111,"x_min":104,"x_max":1007,"o":"m 104 451 l 104 1146 l 139 1146 l 139 451 q 261 157 139 279 q 556 35 383 35 q 850 157 728 35 q 972 451 972 279 l 972 1146 l 1007 1146 l 1007 451 q 875 132 1007 264 q 556 0 743 0 q 236 132 368 0 q 104 451 104 264 m 711 1285 l 557 1440 l 401 1285 l 351 1285 l 557 1489 l 761 1285 l 711 1285 z "},"Ü":{"ha":1111,"x_min":104,"x_max":1007,"o":"m 104 451 l 104 1146 l 139 1146 l 139 451 q 261 157 139 279 q 556 35 383 35 q 850 157 728 35 q 972 451 972 279 l 972 1146 l 1007 1146 l 1007 451 q 875 132 1007 264 q 556 0 743 0 q 236 132 368 0 q 104 451 104 264 m 435 1319 l 435 1424 l 469 1424 l 469 1319 l 435 1319 m 642 1319 l 642 1424 l 676 1424 l 676 1319 l 642 1319 z "},"Ý":{"ha":868,"x_min":0,"x_max":868,"o":"m 451 425 l 451 0 l 417 0 l 417 425 l 0 1146 l 40 1146 l 435 464 l 828 1146 l 868 1146 l 451 425 m 400 1319 l 465 1563 l 503 1563 l 438 1319 l 400 1319 z "},"Þ":{"ha":1007,"x_min":139,"x_max":938,"o":"m 174 903 l 521 903 q 815 781 693 903 q 938 486 938 658 q 815 192 938 314 q 521 69 693 69 l 174 69 l 174 -136 l 139 -136 l 139 1146 l 174 1146 l 174 903 m 174 104 l 521 104 q 791 216 679 104 q 903 486 903 328 q 791 756 903 644 q 521 868 679 868 l 174 868 l 174 104 z "},"ß":{"ha":868,"x_min":139,"x_max":765,"o":"m 540 608 q 669 529 611 586 q 765 296 765 432 q 669 62 765 158 q 436 -35 572 -35 l 433 -35 l 433 0 l 436 0 q 644 86 558 0 q 731 296 731 172 q 644 504 731 418 q 436 590 558 590 l 433 590 l 433 625 l 435 625 q 618 701 542 625 q 694 886 694 778 q 618 1069 694 993 q 435 1146 542 1146 q 250 1069 326 1146 q 174 903 179 999 l 175 903 l 175 0 l 140 0 l 140 903 l 139 903 q 225 1094 144 1014 q 435 1181 311 1181 q 643 1094 557 1181 q 729 886 729 1008 q 643 676 729 763 q 540 608 597 631 z "},"à":{"ha":1146,"x_min":69,"x_max":1007,"o":"m 1007 0 l 972 0 l 972 199 q 900 108 942 150 q 556 -35 757 -35 q 212 108 354 -35 q 69 451 69 250 q 212 795 69 653 q 556 938 354 938 q 900 796 757 938 q 972 704 942 753 l 972 903 l 1007 903 l 1007 0 m 972 274 l 972 629 q 875 771 939 707 q 556 903 743 903 q 236 771 368 903 q 104 451 104 639 q 236 132 104 264 q 556 0 368 0 q 875 132 743 0 q 972 274 939 196 m 556 1111 l 490 1354 l 453 1354 l 518 1111 l 556 1111 z "},"á":{"ha":1146,"x_min":69,"x_max":1007,"o":"m 1007 0 l 972 0 l 972 199 q 900 108 942 150 q 556 -35 757 -35 q 212 108 354 -35 q 69 451 69 250 q 212 795 69 653 q 556 938 354 938 q 900 796 757 938 q 972 704 942 753 l 972 903 l 1007 903 l 1007 0 m 972 274 l 972 629 q 875 771 939 707 q 556 903 743 903 q 236 771 368 903 q 104 451 104 639 q 236 132 104 264 q 556 0 368 0 q 875 132 743 0 q 972 274 939 196 m 557 1110 l 622 1353 l 660 1353 l 594 1110 l 557 1110 z "},"â":{"ha":1146,"x_min":69,"x_max":1007,"o":"m 1007 0 l 972 0 l 972 199 q 900 108 942 150 q 556 -35 757 -35 q 212 108 354 -35 q 69 451 69 250 q 212 795 69 653 q 556 938 354 938 q 900 796 757 938 q 972 704 942 753 l 972 903 l 1007 903 l 1007 0 m 972 274 l 972 629 q 875 771 939 707 q 556 903 743 903 q 236 771 368 903 q 104 451 104 639 q 236 132 104 264 q 556 0 368 0 q 875 132 743 0 q 972 274 939 196 m 693 1042 l 539 1197 l 383 1042 l 333 1042 l 539 1246 l 743 1042 l 693 1042 z "},"ã":{"ha":1146,"x_min":69,"x_max":1007,"o":"m 1007 0 l 972 0 l 972 199 q 900 108 942 150 q 556 -35 757 -35 q 212 108 354 -35 q 69 451 69 250 q 212 795 69 653 q 556 938 354 938 q 900 796 757 938 q 972 704 942 753 l 972 903 l 1007 903 l 1007 0 m 972 274 l 972 629 q 875 771 939 707 q 556 903 743 903 q 236 771 368 903 q 104 451 104 639 q 236 132 104 264 q 556 0 368 0 q 875 132 743 0 q 972 274 939 196 m 764 1138 l 764 1103 q 636 1076 700 1076 q 539 1092 588 1076 q 440 1107 489 1107 q 313 1081 376 1107 l 313 1115 q 440 1142 376 1142 q 539 1126 489 1142 q 636 1111 588 1111 q 764 1138 700 1111 z "},"ä":{"ha":1146,"x_min":69,"x_max":1007,"o":"m 1007 0 l 972 0 l 972 199 q 900 108 942 150 q 556 -35 757 -35 q 212 108 354 -35 q 69 451 69 250 q 212 795 69 653 q 556 938 354 938 q 900 796 757 938 q 972 704 942 753 l 972 903 l 1007 903 l 1007 0 m 972 274 l 972 629 q 875 771 939 707 q 556 903 743 903 q 236 771 368 903 q 104 451 104 639 q 236 132 104 264 q 556 0 368 0 q 875 132 743 0 q 972 274 939 196 m 417 1076 l 417 1181 l 451 1181 l 451 1076 l 417 1076 m 624 1076 l 624 1181 l 658 1181 l 658 1076 l 624 1076 z "},"å":{"ha":1146,"x_min":69,"x_max":1007,"o":"m 1007 0 l 972 0 l 972 199 q 900 108 942 150 q 556 -35 757 -35 q 212 108 354 -35 q 69 451 69 250 q 212 795 69 653 q 556 938 354 938 q 900 796 757 938 q 972 704 942 753 l 972 903 l 1007 903 l 1007 0 m 972 274 l 972 629 q 875 771 939 707 q 556 903 743 903 q 236 771 368 903 q 104 451 104 639 q 236 132 104 264 q 556 0 368 0 q 875 132 743 0 q 972 274 939 196 m 539 1285 q 624 1249 589 1285 q 660 1164 660 1214 q 624 1077 660 1113 q 539 1042 589 1042 q 452 1077 488 1042 q 417 1164 417 1113 q 452 1249 417 1214 q 539 1285 488 1285 m 539 1250 q 477 1224 503 1250 q 451 1164 451 1199 q 477 1102 451 1128 q 539 1076 503 1076 q 599 1102 574 1076 q 625 1164 625 1128 q 599 1224 625 1199 q 539 1250 574 1250 z "},"æ":{"ha":1667,"x_min":69,"x_max":1579,"o":"m 1529 788 q 1231 900 1404 900 q 911 768 1043 900 q 779 449 779 636 q 892 150 779 276 l 1529 788 m 868 125 q 744 449 744 261 q 871 775 744 638 q 556 903 740 903 q 236 771 368 903 q 104 451 104 639 q 236 132 104 264 q 556 0 368 0 q 868 125 739 0 m 903 808 q 1231 935 1040 935 q 1575 793 1432 935 q 1579 788 1576 790 l 1554 764 l 915 125 q 1231 -3 1046 -3 q 1543 122 1414 -3 l 1567 97 q 1231 -37 1426 -37 q 890 101 1032 -37 l 892 100 q 556 -35 751 -35 q 212 108 354 -35 q 69 451 69 250 q 212 795 69 653 q 556 938 354 938 q 868 825 735 938 l 868 903 l 903 903 l 903 808 z "},"ç":{"ha":972,"x_min":69,"x_max":904,"o":"m 400 -11 q 213 108 296 24 q 69 451 69 250 q 212 795 69 653 q 556 938 354 938 q 900 796 757 938 q 904 790 901 793 l 879 767 q 875 771 878 768 q 556 903 743 903 q 236 771 368 903 q 104 451 104 639 q 236 132 104 264 q 556 0 368 0 q 868 125 739 0 l 892 100 q 556 -35 751 -35 q 435 -21 492 -35 l 435 -139 l 469 -139 q 592 -190 542 -139 q 643 -312 643 -240 q 592 -435 643 -385 q 469 -486 542 -486 l 331 -486 l 331 -451 l 469 -451 q 567 -410 526 -451 q 608 -312 608 -369 q 567 -215 608 -256 q 469 -174 526 -174 l 400 -174 l 400 -11 z "},"è":{"ha":972,"x_min":69,"x_max":904,"o":"m 240 128 q 556 0 371 0 q 868 125 739 0 l 892 100 q 556 -35 751 -35 q 212 108 354 -35 q 69 451 69 250 q 212 795 69 653 q 556 938 354 938 q 900 796 757 938 q 904 790 901 793 l 879 767 l 240 128 m 854 790 q 556 903 729 903 q 236 771 368 903 q 104 451 104 639 q 217 153 104 278 l 854 790 m 521 1111 l 456 1354 l 418 1354 l 483 1111 l 521 1111 z "},"é":{"ha":972,"x_min":69,"x_max":904,"o":"m 240 128 q 556 0 371 0 q 868 125 739 0 l 892 100 q 556 -35 751 -35 q 212 108 354 -35 q 69 451 69 250 q 212 795 69 653 q 556 938 354 938 q 900 796 757 938 q 904 790 901 793 l 879 767 l 240 128 m 854 790 q 556 903 729 903 q 236 771 368 903 q 104 451 104 639 q 217 153 104 278 l 854 790 m 486 1111 l 551 1354 l 589 1354 l 524 1111 l 486 1111 z "},"ê":{"ha":972,"x_min":69,"x_max":904,"o":"m 240 128 q 556 0 371 0 q 868 125 739 0 l 892 100 q 556 -35 751 -35 q 212 108 354 -35 q 69 451 69 250 q 212 795 69 653 q 556 938 354 938 q 900 796 757 938 q 904 790 901 793 l 879 767 l 240 128 m 854 790 q 556 903 729 903 q 236 771 368 903 q 104 451 104 639 q 217 153 104 278 l 854 790 m 642 1042 l 488 1197 l 332 1042 l 282 1042 l 488 1246 l 692 1042 l 642 1042 z "},"ë":{"ha":972,"x_min":69,"x_max":904,"o":"m 240 128 q 556 0 371 0 q 868 125 739 0 l 892 100 q 556 -35 751 -35 q 212 108 354 -35 q 69 451 69 250 q 212 795 69 653 q 556 938 354 938 q 900 796 757 938 q 904 790 901 793 l 879 767 l 240 128 m 854 790 q 556 903 729 903 q 236 771 368 903 q 104 451 104 639 q 217 153 104 278 l 854 790 m 365 1076 l 365 1181 l 400 1181 l 400 1076 l 365 1076 m 572 1076 l 572 1181 l 607 1181 l 607 1076 l 572 1076 z "},"ì":{"ha":313,"x_min":69,"x_max":174,"o":"m 174 903 l 174 0 l 139 0 l 139 903 l 174 903 m 172 1076 l 107 1319 l 69 1319 l 135 1076 l 172 1076 z "},"í":{"ha":313,"x_min":139,"x_max":242,"o":"m 174 903 l 174 0 l 139 0 l 139 903 l 174 903 m 139 1076 l 204 1319 l 242 1319 l 176 1076 l 139 1076 z "},"î":{"ha":313,"x_min":-49,"x_max":361,"o":"m 174 903 l 174 0 l 139 0 l 139 903 l 174 903 m 311 1042 l 157 1197 l 1 1042 l -49 1042 l 157 1246 l 361 1042 l 311 1042 z "},"ï":{"ha":313,"x_min":35,"x_max":276,"o":"m 174 903 l 174 0 l 139 0 l 139 903 l 174 903 m 35 1076 l 35 1181 l 69 1181 l 69 1076 l 35 1076 m 242 1076 l 242 1181 l 276 1181 l 276 1076 l 242 1076 z "},"ð":{"ha":833,"x_min":69,"x_max":764,"o":"m 417 0 q 638 92 546 0 q 729 313 729 183 q 638 533 729 442 q 417 625 546 625 q 196 533 288 625 q 104 313 104 442 q 196 92 104 183 q 417 0 288 0 m 764 313 q 663 67 764 168 q 417 -35 561 -35 q 171 67 272 -35 q 69 313 69 168 q 171 558 69 457 q 417 660 272 660 q 663 558 561 660 q 718 486 696 525 q 485 938 679 743 q 364 1039 428 994 l 165 924 l 149 954 l 332 1060 q 69 1164 211 1136 l 69 1200 q 365 1079 229 1169 l 539 1181 l 556 1150 l 397 1058 q 510 961 456 1015 q 764 347 764 707 l 764 313 z "},"ñ":{"ha":1128,"x_min":139,"x_max":1021,"o":"m 139 904 l 174 904 l 174 706 q 250 807 204 760 q 569 939 382 939 q 889 807 757 939 q 1021 488 1021 675 l 1021 0 l 986 0 l 986 488 q 864 782 986 660 q 569 904 742 904 q 275 782 397 904 q 176 626 206 713 l 174 626 l 174 0 l 139 0 l 139 904 m 806 1138 l 806 1103 q 678 1076 742 1076 q 581 1092 629 1076 q 482 1107 531 1107 q 354 1081 418 1107 l 354 1115 q 482 1142 418 1142 q 581 1126 531 1142 q 678 1111 629 1111 q 806 1138 742 1111 z "},"ò":{"ha":1111,"x_min":69,"x_max":1042,"o":"m 556 938 q 899 795 757 938 q 1042 451 1042 653 q 899 108 1042 250 q 556 -35 757 -35 q 212 108 354 -35 q 69 451 69 250 q 212 795 69 653 q 556 938 354 938 m 556 903 q 236 771 368 903 q 104 451 104 639 q 236 132 104 264 q 556 0 368 0 q 875 132 743 0 q 1007 451 1007 264 q 875 771 1007 639 q 556 903 743 903 m 590 1111 l 525 1354 l 488 1354 l 553 1111 l 590 1111 z "},"ó":{"ha":1111,"x_min":69,"x_max":1042,"o":"m 556 938 q 899 795 757 938 q 1042 451 1042 653 q 899 108 1042 250 q 556 -35 757 -35 q 212 108 354 -35 q 69 451 69 250 q 212 795 69 653 q 556 938 354 938 m 556 903 q 236 771 368 903 q 104 451 104 639 q 236 132 104 264 q 556 0 368 0 q 875 132 743 0 q 1007 451 1007 264 q 875 771 1007 639 q 556 903 743 903 m 521 1111 l 586 1354 l 624 1354 l 558 1111 l 521 1111 z "},"ô":{"ha":1111,"x_min":69,"x_max":1042,"o":"m 556 938 q 899 795 757 938 q 1042 451 1042 653 q 899 108 1042 250 q 556 -35 757 -35 q 212 108 354 -35 q 69 451 69 250 q 212 795 69 653 q 556 938 354 938 m 556 903 q 236 771 368 903 q 104 451 104 639 q 236 132 104 264 q 556 0 368 0 q 875 132 743 0 q 1007 451 1007 264 q 875 771 1007 639 q 556 903 743 903 m 711 1042 l 557 1197 l 401 1042 l 351 1042 l 557 1246 l 761 1042 l 711 1042 z "},"õ":{"ha":1111,"x_min":69,"x_max":1042,"o":"m 556 938 q 899 795 757 938 q 1042 451 1042 653 q 899 108 1042 250 q 556 -35 757 -35 q 212 108 354 -35 q 69 451 69 250 q 212 795 69 653 q 556 938 354 938 m 556 903 q 236 771 368 903 q 104 451 104 639 q 236 132 104 264 q 556 0 368 0 q 875 132 743 0 q 1007 451 1007 264 q 875 771 1007 639 q 556 903 743 903 m 782 1138 l 782 1103 q 654 1076 718 1076 q 557 1092 606 1076 q 458 1107 507 1107 q 331 1081 394 1107 l 331 1115 q 458 1142 394 1142 q 557 1126 507 1142 q 654 1111 606 1111 q 782 1138 718 1111 z "},"ö":{"ha":1111,"x_min":69,"x_max":1042,"o":"m 556 938 q 899 795 757 938 q 1042 451 1042 653 q 899 108 1042 250 q 556 -35 757 -35 q 212 108 354 -35 q 69 451 69 250 q 212 795 69 653 q 556 938 354 938 m 556 903 q 236 771 368 903 q 104 451 104 639 q 236 132 104 264 q 556 0 368 0 q 875 132 743 0 q 1007 451 1007 264 q 875 771 1007 639 q 556 903 743 903 m 435 1076 l 435 1181 l 469 1181 l 469 1076 l 435 1076 m 642 1076 l 642 1181 l 676 1181 l 676 1076 l 642 1076 z "},"÷":{"ha":938,"x_min":104,"x_max":833,"o":"m 833 590 l 833 556 l 104 556 l 104 590 l 833 590 m 486 382 l 486 278 l 451 278 l 451 382 l 486 382 m 486 868 l 486 764 l 451 764 l 451 868 l 486 868 z "},"ø":{"ha":1111,"x_min":69,"x_max":1042,"o":"m 656 893 q 556 903 608 903 q 236 771 368 903 q 104 451 104 639 q 236 132 104 264 q 421 19 318 50 l 656 893 m 456 10 q 556 0 503 0 q 875 132 743 0 q 1007 451 1007 264 q 875 771 1007 639 q 690 883 793 853 l 456 10 m 699 918 q 900 796 811 883 q 1042 451 1042 653 q 899 108 1042 250 q 556 -35 757 -35 q 446 -24 499 -35 l 415 -139 l 379 -139 l 413 -15 q 213 108 300 19 q 69 451 69 250 q 212 795 69 653 q 556 938 354 938 q 665 926 613 938 l 696 1042 l 732 1042 l 699 918 z "},"ù":{"ha":1181,"x_min":139,"x_max":1021,"o":"m 1021 -1 l 986 -1 l 986 197 q 910 96 956 143 q 590 -36 778 -36 q 271 96 403 -36 q 139 415 139 228 l 139 903 l 174 903 l 174 415 q 296 121 174 243 q 590 -1 418 -1 q 885 121 763 -1 q 983 276 954 190 l 986 276 l 986 903 l 1021 903 l 1021 -1 m 614 1076 l 549 1319 l 511 1319 l 576 1076 l 614 1076 z "},"ú":{"ha":1181,"x_min":139,"x_max":1021,"o":"m 1021 -1 l 986 -1 l 986 197 q 910 96 956 143 q 590 -36 778 -36 q 271 96 403 -36 q 139 415 139 228 l 139 903 l 174 903 l 174 415 q 296 121 174 243 q 590 -1 418 -1 q 885 121 763 -1 q 983 276 954 190 l 986 276 l 986 903 l 1021 903 l 1021 -1 m 546 1076 l 611 1319 l 649 1319 l 583 1076 l 546 1076 z "},"û":{"ha":1181,"x_min":139,"x_max":1021,"o":"m 1021 -1 l 986 -1 l 986 197 q 910 96 956 143 q 590 -36 778 -36 q 271 96 403 -36 q 139 415 139 228 l 139 903 l 174 903 l 174 415 q 296 121 174 243 q 590 -1 418 -1 q 885 121 763 -1 q 983 276 954 190 l 986 276 l 986 903 l 1021 903 l 1021 -1 m 735 1042 l 581 1197 l 425 1042 l 375 1042 l 581 1246 l 785 1042 l 735 1042 z "},"ü":{"ha":1181,"x_min":139,"x_max":1021,"o":"m 1021 -1 l 986 -1 l 986 197 q 910 96 956 143 q 590 -36 778 -36 q 271 96 403 -36 q 139 415 139 228 l 139 903 l 174 903 l 174 415 q 296 121 174 243 q 590 -1 418 -1 q 885 121 763 -1 q 983 276 954 190 l 986 276 l 986 903 l 1021 903 l 1021 -1 m 460 1076 l 460 1181 l 494 1181 l 494 1076 l 460 1076 m 667 1076 l 667 1181 l 701 1181 l 701 1076 l 667 1076 z "},"ý":{"ha":1129,"x_min":104,"x_max":986,"o":"m 951 314 l 951 904 l 986 904 l 986 0 q 854 -319 986 -187 q 535 -451 722 -451 l 535 -417 q 831 -294 708 -417 q 951 0 951 -172 l 951 235 q 875 133 921 181 q 556 1 743 1 q 236 133 368 1 q 104 453 104 265 l 104 904 l 139 904 l 139 453 q 261 158 139 281 q 556 36 383 36 q 850 158 728 36 q 949 314 919 228 l 951 314 m 511 1076 l 576 1319 l 614 1319 l 549 1076 l 511 1076 z "},"þ":{"ha":1146,"x_min":138,"x_max":1075,"o":"m 172 274 q 269 132 206 196 q 589 0 401 0 q 908 132 776 0 q 1040 451 1040 264 q 908 771 1040 639 q 589 903 776 903 q 269 771 401 903 q 172 629 206 707 l 172 274 m 138 1146 l 172 1146 l 172 704 q 246 794 203 751 q 589 938 388 938 q 933 795 790 938 q 1075 451 1075 653 q 933 108 1075 250 q 589 -35 790 -35 q 246 107 388 -35 q 172 199 203 150 l 172 -243 l 138 -243 l 138 1146 z "},"ÿ":{"ha":1129,"x_min":104,"x_max":986,"o":"m 951 314 l 951 904 l 986 904 l 986 0 q 854 -319 986 -187 q 535 -451 722 -451 l 535 -417 q 831 -294 708 -417 q 951 0 951 -172 l 951 235 q 875 133 921 181 q 556 1 743 1 q 236 133 368 1 q 104 453 104 265 l 104 904 l 139 904 l 139 453 q 261 158 139 281 q 556 36 383 36 q 850 158 728 36 q 949 314 919 228 l 951 314 m 425 1076 l 425 1181 l 460 1181 l 460 1076 l 425 1076 m 632 1076 l 632 1181 l 667 1181 l 667 1076 l 632 1076 z "},"Ā":{"ha":1146,"x_min":15,"x_max":1129,"o":"m 986 222 l 572 1110 l 158 222 l 986 222 m 594 1146 l 1129 0 l 1090 0 l 1003 188 l 142 188 l 54 0 l 15 0 l 550 1146 l 594 1146 m 746 1319 l 746 1285 l 399 1285 l 399 1319 l 746 1319 z "},"ā":{"ha":1146,"x_min":69,"x_max":1007,"o":"m 1007 0 l 972 0 l 972 199 q 900 108 942 150 q 556 -35 757 -35 q 212 108 354 -35 q 69 451 69 250 q 212 795 69 653 q 556 938 354 938 q 900 796 757 938 q 972 704 942 753 l 972 903 l 1007 903 l 1007 0 m 972 274 l 972 629 q 875 771 939 707 q 556 903 743 903 q 236 771 368 903 q 104 451 104 639 q 236 132 104 264 q 556 0 368 0 q 875 132 743 0 q 972 274 939 196 m 729 1146 l 729 1111 l 382 1111 l 382 1146 l 729 1146 z "},"Ă":{"ha":1146,"x_min":15,"x_max":1129,"o":"m 986 222 l 572 1110 l 158 222 l 986 222 m 594 1146 l 1129 0 l 1090 0 l 1003 188 l 142 188 l 54 0 l 15 0 l 550 1146 l 594 1146 m 742 1458 l 781 1458 q 732 1386 764 1418 q 572 1319 665 1319 q 413 1386 478 1319 q 363 1458 379 1418 l 401 1458 q 438 1411 415 1432 q 572 1354 493 1354 q 707 1411 650 1354 q 742 1458 728 1432 z "},"ă":{"ha":1146,"x_min":69,"x_max":1007,"o":"m 1007 0 l 972 0 l 972 199 q 900 108 942 150 q 556 -35 757 -35 q 212 108 354 -35 q 69 451 69 250 q 212 795 69 653 q 556 938 354 938 q 900 796 757 938 q 972 704 942 753 l 972 903 l 1007 903 l 1007 0 m 972 274 l 972 629 q 875 771 939 707 q 556 903 743 903 q 236 771 368 903 q 104 451 104 639 q 236 132 104 264 q 556 0 368 0 q 875 132 743 0 q 972 274 939 196 m 726 1215 l 765 1215 q 717 1143 749 1175 q 557 1076 650 1076 q 397 1143 463 1076 q 347 1215 364 1175 l 386 1215 q 422 1168 400 1189 q 557 1111 478 1111 q 692 1168 635 1111 q 726 1215 713 1189 z "},"Ą":{"ha":1146,"x_min":15,"x_max":1250,"o":"m 986 222 l 572 1110 l 158 222 l 986 222 m 1075 32 l 1003 188 l 142 188 l 54 0 l 15 0 l 550 1146 l 594 1146 l 1129 0 l 1111 0 q 1013 -41 1054 0 q 972 -139 972 -82 q 1013 -237 972 -196 q 1111 -278 1054 -278 l 1250 -278 l 1250 -312 l 1111 -312 q 988 -262 1039 -312 q 938 -139 938 -211 q 989 -15 938 -67 q 1075 32 1026 22 z "},"ą":{"ha":1146,"x_min":69,"x_max":1146,"o":"m 972 274 l 972 629 q 875 771 939 707 q 556 903 743 903 q 236 771 368 903 q 104 451 104 639 q 236 132 104 264 q 556 0 368 0 q 875 132 743 0 q 972 274 939 196 m 972 32 l 972 199 q 900 108 942 150 q 556 -35 757 -35 q 212 108 354 -35 q 69 451 69 250 q 212 795 69 653 q 556 938 354 938 q 900 796 757 938 q 972 704 942 753 l 972 903 l 1007 903 l 1007 0 q 909 -41 950 0 q 868 -139 868 -82 q 909 -237 868 -196 q 1007 -278 950 -278 l 1146 -278 l 1146 -312 l 1007 -312 q 884 -262 935 -312 q 833 -139 833 -211 q 885 -15 833 -67 q 972 32 922 22 z "},"Ć":{"ha":1215,"x_min":69,"x_max":1107,"o":"m 1107 143 q 678 -35 929 -35 q 247 143 425 -35 q 69 574 69 321 q 247 1003 69 825 q 678 1181 425 1181 q 1107 1003 929 1181 l 1082 978 q 678 1146 914 1146 q 272 978 440 1146 q 104 574 104 810 q 272 168 104 336 q 678 0 440 0 q 1082 168 914 0 l 1107 143 m 624 1319 l 689 1563 l 726 1563 l 661 1319 l 624 1319 z "},"ć":{"ha":972,"x_min":69,"x_max":904,"o":"m 868 125 l 892 100 q 556 -35 751 -35 q 212 108 354 -35 q 69 451 69 250 q 212 795 69 653 q 556 938 354 938 q 900 796 757 938 q 904 790 901 793 l 879 767 q 875 771 878 768 q 556 903 743 903 q 236 771 368 903 q 104 451 104 639 q 236 132 104 264 q 556 0 368 0 q 868 125 739 0 m 519 1076 l 585 1319 l 622 1319 l 557 1076 l 519 1076 z "},"Ĉ":{"ha":1215,"x_min":69,"x_max":1107,"o":"m 1107 143 q 678 -35 929 -35 q 247 143 425 -35 q 69 574 69 321 q 247 1003 69 825 q 678 1181 425 1181 q 1107 1003 929 1181 l 1082 978 q 678 1146 914 1146 q 272 978 440 1146 q 104 574 104 810 q 272 168 104 336 q 678 0 440 0 q 1082 168 914 0 l 1107 143 m 810 1285 l 656 1440 l 500 1285 l 450 1285 l 656 1489 l 860 1285 l 810 1285 z "},"ĉ":{"ha":972,"x_min":69,"x_max":904,"o":"m 868 125 l 892 100 q 556 -35 751 -35 q 212 108 354 -35 q 69 451 69 250 q 212 795 69 653 q 556 938 354 938 q 900 796 757 938 q 904 790 901 793 l 879 767 q 875 771 878 768 q 556 903 743 903 q 236 771 368 903 q 104 451 104 639 q 236 132 104 264 q 556 0 368 0 q 868 125 739 0 m 714 1042 l 560 1197 l 404 1042 l 354 1042 l 560 1246 l 764 1042 l 714 1042 z "},"Ċ":{"ha":1215,"x_min":69,"x_max":1107,"o":"m 1107 143 q 678 -35 929 -35 q 247 143 425 -35 q 69 574 69 321 q 247 1003 69 825 q 678 1181 425 1181 q 1107 1003 929 1181 l 1082 978 q 678 1146 914 1146 q 272 978 440 1146 q 104 574 104 810 q 272 168 104 336 q 678 0 440 0 q 1082 168 914 0 l 1107 143 m 661 1424 l 661 1319 l 626 1319 l 626 1424 l 661 1424 z "},"ċ":{"ha":972,"x_min":69,"x_max":904,"o":"m 868 125 l 892 100 q 556 -35 751 -35 q 212 108 354 -35 q 69 451 69 250 q 212 795 69 653 q 556 938 354 938 q 900 796 757 938 q 904 790 901 793 l 879 767 q 875 771 878 768 q 556 903 743 903 q 236 771 368 903 q 104 451 104 639 q 236 132 104 264 q 556 0 368 0 q 868 125 739 0 m 556 1181 l 556 1076 l 521 1076 l 521 1181 l 556 1181 z "},"Č":{"ha":1215,"x_min":69,"x_max":1107,"o":"m 1107 143 q 678 -35 929 -35 q 247 143 425 -35 q 69 574 69 321 q 247 1003 69 825 q 678 1181 425 1181 q 1107 1003 929 1181 l 1082 978 q 678 1146 914 1146 q 272 978 440 1146 q 104 574 104 810 q 272 168 104 336 q 678 0 440 0 q 1082 168 914 0 l 1107 143 z "},"č":{"ha":972,"x_min":69,"x_max":904,"o":"m 868 125 l 892 100 q 556 -35 751 -35 q 212 108 354 -35 q 69 451 69 250 q 212 795 69 653 q 556 938 354 938 q 900 796 757 938 q 904 790 901 793 l 879 767 q 875 771 878 768 q 556 903 743 903 q 236 771 368 903 q 104 451 104 639 q 236 132 104 264 q 556 0 368 0 q 868 125 739 0 z "},"Ď":{"ha":1250,"x_min":139,"x_max":1161,"o":"m 174 1111 l 174 33 l 589 33 l 589 35 q 969 193 813 35 q 1126 572 1126 350 q 969 954 1126 796 q 589 1111 813 1111 l 174 1111 m 139 1146 l 589 1146 q 993 978 826 1146 q 1161 572 1161 810 q 993 168 1161 336 q 590 0 826 0 l 590 -1 l 139 -1 l 139 1146 z "},"ď":{"ha":1526,"x_min":71,"x_max":1318,"o":"m 974 274 q 876 132 940 196 q 557 0 744 0 q 238 132 369 0 q 106 451 106 264 q 238 771 106 639 q 557 903 369 903 q 876 771 744 903 q 974 629 940 707 l 974 274 m 1008 1146 l 974 1146 l 974 704 q 900 796 943 753 q 557 938 758 938 q 213 795 356 938 q 71 451 71 653 q 213 108 71 250 q 557 -35 356 -35 q 900 108 758 -35 q 974 199 943 151 l 974 0 l 1008 0 l 1008 1146 z "},"Đ":{"ha":1250,"x_min":33,"x_max":1194,"o":"m 172 590 l 172 1146 l 622 1146 q 1026 978 860 1146 q 1194 572 1194 810 q 1026 168 1194 336 q 624 0 860 0 l 624 -1 l 172 -1 l 172 556 l 33 556 l 33 590 l 172 590 m 207 590 l 415 590 l 415 556 l 207 556 l 207 33 l 622 33 l 622 35 q 1003 193 846 35 q 1160 572 1160 350 q 1003 954 1160 796 q 622 1111 846 1111 l 207 1111 l 207 590 z "},"đ":{"ha":1146,"x_min":71,"x_max":1076,"o":"m 974 629 q 876 771 940 707 q 557 903 744 903 q 238 771 369 903 q 106 451 106 639 q 238 132 106 264 q 557 0 369 0 q 876 132 744 0 q 974 274 940 196 l 974 629 m 974 1076 l 974 1146 l 1008 1146 l 1008 1076 l 1076 1076 l 1076 1042 l 1008 1042 l 1008 0 l 974 0 l 974 199 q 900 108 943 151 q 557 -35 758 -35 q 213 108 356 -35 q 71 451 71 250 q 213 795 71 653 q 557 938 356 938 q 900 796 758 938 q 974 704 943 753 l 974 1042 l 694 1042 l 694 1076 l 974 1076 z "},"Ē":{"ha":868,"x_min":139,"x_max":799,"o":"m 139 1146 l 799 1146 l 799 1111 l 174 1111 l 174 590 l 660 590 l 660 556 l 174 556 l 174 35 l 799 35 l 799 0 l 139 0 l 139 1146 m 643 1319 l 643 1285 l 296 1285 l 296 1319 l 643 1319 z "},"ē":{"ha":972,"x_min":69,"x_max":904,"o":"m 240 128 q 556 0 371 0 q 868 125 739 0 l 892 100 q 556 -35 751 -35 q 212 108 354 -35 q 69 451 69 250 q 212 795 69 653 q 556 938 354 938 q 900 796 757 938 q 904 790 901 793 l 879 767 l 240 128 m 854 790 q 556 903 729 903 q 236 771 368 903 q 104 451 104 639 q 217 153 104 278 l 854 790 m 728 1110 l 728 1075 l 381 1075 l 381 1110 l 728 1110 z "},"Ĕ":{"ha":868,"x_min":139,"x_max":799,"o":"m 139 1146 l 799 1146 l 799 1111 l 174 1111 l 174 590 l 660 590 l 660 556 l 174 556 l 174 35 l 799 35 l 799 0 l 139 0 l 139 1146 m 657 1424 l 696 1424 q 647 1351 679 1383 q 488 1285 581 1285 q 328 1351 393 1285 q 278 1424 294 1383 l 317 1424 q 353 1376 331 1397 q 488 1319 408 1319 q 622 1376 565 1319 q 657 1424 643 1397 z "},"ĕ":{"ha":972,"x_min":69,"x_max":904,"o":"m 240 128 q 556 0 371 0 q 868 125 739 0 l 892 100 q 556 -35 751 -35 q 212 108 354 -35 q 69 451 69 250 q 212 795 69 653 q 556 938 354 938 q 900 796 757 938 q 904 790 901 793 l 879 767 l 240 128 m 854 790 q 556 903 729 903 q 236 771 368 903 q 104 451 104 639 q 217 153 104 278 l 854 790 m 692 1215 l 731 1215 q 682 1143 714 1175 q 522 1076 615 1076 q 363 1143 428 1076 q 313 1215 329 1175 l 351 1215 q 388 1168 365 1189 q 522 1111 443 1111 q 657 1168 600 1111 q 692 1215 678 1189 z "},"Ė":{"ha":868,"x_min":139,"x_max":799,"o":"m 139 1146 l 799 1146 l 799 1111 l 174 1111 l 174 590 l 660 590 l 660 556 l 174 556 l 174 35 l 799 35 l 799 0 l 139 0 l 139 1146 m 486 1389 l 486 1285 l 451 1285 l 451 1389 l 486 1389 z "},"ė":{"ha":972,"x_min":69,"x_max":904,"o":"m 240 128 q 556 0 371 0 q 868 125 739 0 l 892 100 q 556 -35 751 -35 q 212 108 354 -35 q 69 451 69 250 q 212 795 69 653 q 556 938 354 938 q 900 796 757 938 q 904 790 901 793 l 879 767 l 240 128 m 854 790 q 556 903 729 903 q 236 771 368 903 q 104 451 104 639 q 217 153 104 278 l 854 790 m 557 1181 l 557 1076 l 522 1076 l 522 1181 l 557 1181 z "},"Ę":{"ha":868,"x_min":139,"x_max":938,"o":"m 694 0 l 139 0 l 139 1146 l 799 1146 l 799 1111 l 174 1111 l 174 590 l 660 590 l 660 556 l 174 556 l 174 35 l 799 35 l 799 0 q 701 -41 742 0 q 660 -139 660 -82 q 701 -237 660 -196 q 799 -278 742 -278 l 938 -278 l 938 -312 l 799 -312 q 676 -262 726 -312 q 625 -139 625 -211 q 676 -15 625 -67 q 694 0 685 -7 z "},"ę":{"ha":972,"x_min":69,"x_max":972,"o":"m 854 790 q 556 903 729 903 q 236 771 368 903 q 104 451 104 639 q 217 153 104 278 l 854 790 m 688 -18 q 556 -35 625 -35 q 212 108 354 -35 q 69 451 69 250 q 212 795 69 653 q 556 938 354 938 q 900 796 757 938 q 904 790 901 793 l 879 767 l 240 128 q 556 0 371 0 q 868 125 739 0 l 892 100 q 774 15 838 47 l 775 14 q 736 -14 753 3 q 694 -112 694 -56 q 735 -210 694 -169 q 833 -251 776 -251 l 972 -251 l 972 -286 l 833 -286 q 710 -235 761 -286 q 660 -112 660 -185 q 688 -18 660 -60 z "},"Ě":{"ha":868,"x_min":139,"x_max":799,"o":"m 139 1146 l 799 1146 l 799 1111 l 174 1111 l 174 590 l 660 590 l 660 556 l 174 556 l 174 35 l 799 35 l 799 0 l 139 0 l 139 1146 z "},"ě":{"ha":972,"x_min":69,"x_max":904,"o":"m 240 128 q 556 0 371 0 q 868 125 739 0 l 892 100 q 556 -35 751 -35 q 212 108 354 -35 q 69 451 69 250 q 212 795 69 653 q 556 938 354 938 q 900 796 757 938 q 904 790 901 793 l 879 767 l 240 128 m 854 790 q 556 903 729 903 q 236 771 368 903 q 104 451 104 639 q 217 153 104 278 l 854 790 z "},"Ĝ":{"ha":1215,"x_min":69,"x_max":1107,"o":"m 1107 143 q 678 -35 929 -35 q 247 143 425 -35 q 69 574 69 321 q 247 1003 69 825 q 678 1181 425 1181 q 1107 1003 929 1181 l 1082 978 q 678 1146 914 1146 q 272 978 440 1146 q 104 574 104 810 q 272 168 104 336 q 678 0 440 0 q 1072 158 907 0 l 1072 556 l 656 556 l 656 590 l 1107 590 l 1107 143 m 811 1319 l 657 1475 l 501 1319 l 451 1319 l 657 1524 l 861 1319 l 811 1319 z "},"ĝ":{"ha":1146,"x_min":69,"x_max":1007,"o":"m 1007 0 q 875 -319 1007 -187 q 556 -451 743 -451 l 556 -417 q 851 -294 729 -417 q 972 0 972 -172 l 972 199 q 900 108 942 150 q 556 -35 757 -35 q 212 108 354 -35 q 69 451 69 250 q 212 795 69 653 q 556 938 354 938 q 900 796 757 938 q 972 704 942 753 l 972 903 l 1007 903 l 1007 0 m 972 274 l 972 629 q 875 771 939 707 q 556 903 743 903 q 236 771 368 903 q 104 451 104 639 q 236 132 104 264 q 556 0 368 0 q 875 132 743 0 q 972 274 939 196 m 713 1076 l 558 1232 l 403 1076 l 353 1076 l 558 1281 l 763 1076 l 713 1076 z "},"Ğ":{"ha":1215,"x_min":69,"x_max":1107,"o":"m 1107 143 q 678 -35 929 -35 q 247 143 425 -35 q 69 574 69 321 q 247 1003 69 825 q 678 1181 425 1181 q 1107 1003 929 1181 l 1082 978 q 678 1146 914 1146 q 272 978 440 1146 q 104 574 104 810 q 272 168 104 336 q 678 0 440 0 q 1072 158 907 0 l 1072 556 l 656 556 l 656 590 l 1107 590 l 1107 143 m 831 1458 l 869 1458 q 821 1386 853 1418 q 661 1319 754 1319 q 501 1386 567 1319 q 451 1458 468 1418 l 490 1458 q 526 1411 504 1432 q 661 1354 582 1354 q 796 1411 739 1354 q 831 1458 817 1432 z "},"ğ":{"ha":1146,"x_min":69,"x_max":1007,"o":"m 1007 0 q 875 -319 1007 -187 q 556 -451 743 -451 l 556 -417 q 851 -294 729 -417 q 972 0 972 -172 l 972 199 q 900 108 942 150 q 556 -35 757 -35 q 212 108 354 -35 q 69 451 69 250 q 212 795 69 653 q 556 938 354 938 q 900 796 757 938 q 972 704 942 753 l 972 903 l 1007 903 l 1007 0 m 972 274 l 972 629 q 875 771 939 707 q 556 903 743 903 q 236 771 368 903 q 104 451 104 639 q 236 132 104 264 q 556 0 368 0 q 875 132 743 0 q 972 274 939 196 m 760 1215 l 799 1215 q 750 1143 782 1175 q 590 1076 683 1076 q 431 1143 496 1076 q 381 1215 397 1175 l 419 1215 q 456 1168 433 1189 q 590 1111 511 1111 q 725 1168 668 1111 q 760 1215 746 1189 z "},"Ġ":{"ha":1215,"x_min":69,"x_max":1107,"o":"m 1107 143 q 678 -35 929 -35 q 247 143 425 -35 q 69 574 69 321 q 247 1003 69 825 q 678 1181 425 1181 q 1107 1003 929 1181 l 1082 978 q 678 1146 914 1146 q 272 978 440 1146 q 104 574 104 810 q 272 168 104 336 q 678 0 440 0 q 1072 158 907 0 l 1072 556 l 656 556 l 656 590 l 1107 590 l 1107 143 m 661 1424 l 661 1319 l 626 1319 l 626 1424 l 661 1424 z "},"ġ":{"ha":1146,"x_min":69,"x_max":1007,"o":"m 1007 0 q 875 -319 1007 -187 q 556 -451 743 -451 l 556 -417 q 851 -294 729 -417 q 972 0 972 -172 l 972 199 q 900 108 942 150 q 556 -35 757 -35 q 212 108 354 -35 q 69 451 69 250 q 212 795 69 653 q 556 938 354 938 q 900 796 757 938 q 972 704 942 753 l 972 903 l 1007 903 l 1007 0 m 972 274 l 972 629 q 875 771 939 707 q 556 903 743 903 q 236 771 368 903 q 104 451 104 639 q 236 132 104 264 q 556 0 368 0 q 875 132 743 0 q 972 274 939 196 m 556 1181 l 556 1076 l 521 1076 l 521 1181 l 556 1181 z "},"Ģ":{"ha":1215,"x_min":69,"x_max":1107,"o":"m 1107 143 q 678 -35 929 -35 q 247 143 425 -35 q 69 574 69 321 q 247 1003 69 825 q 678 1181 425 1181 q 1107 1003 929 1181 l 1082 978 q 678 1146 914 1146 q 272 978 440 1146 q 104 574 104 810 q 272 168 104 336 q 678 0 440 0 q 1072 158 907 0 l 1072 556 l 656 556 l 656 590 l 1107 590 l 1107 143 z "},"ģ":{"ha":1146,"x_min":69,"x_max":1007,"o":"m 1007 0 q 875 -319 1007 -187 q 556 -451 743 -451 l 556 -417 q 851 -294 729 -417 q 972 0 972 -172 l 972 199 q 900 108 942 150 q 556 -35 757 -35 q 212 108 354 -35 q 69 451 69 250 q 212 795 69 653 q 556 938 354 938 q 900 796 757 938 q 972 704 942 753 l 972 903 l 1007 903 l 1007 0 m 972 274 l 972 629 q 875 771 939 707 q 556 903 743 903 q 236 771 368 903 q 104 451 104 639 q 236 132 104 264 q 556 0 368 0 q 875 132 743 0 q 972 274 939 196 m 556 1076 l 621 1319 l 658 1319 l 593 1076 l 556 1076 z "},"Ĥ":{"ha":1215,"x_min":139,"x_max":1076,"o":"m 174 556 l 174 0 l 139 0 l 139 1146 l 174 1146 l 174 590 l 1042 590 l 1042 1146 l 1076 1146 l 1076 0 l 1042 0 l 1042 556 l 174 556 m 763 1285 l 608 1440 l 453 1285 l 403 1285 l 608 1489 l 813 1285 l 763 1285 z "},"ĥ":{"ha":1128,"x_min":139,"x_max":1021,"o":"m 139 1146 l 174 1146 l 174 706 q 250 807 204 760 q 569 939 382 939 q 889 807 757 939 q 1021 488 1021 675 l 1021 0 l 986 0 l 986 488 q 864 782 986 660 q 569 904 742 904 q 275 782 397 904 q 176 626 206 713 l 174 626 l 174 0 l 139 0 l 139 1146 m 735 1146 l 581 1301 l 425 1146 l 375 1146 l 581 1350 l 785 1146 l 735 1146 z "},"Ħ":{"ha":1215,"x_min":139,"x_max":1076,"o":"m 174 556 l 174 0 l 139 0 l 139 1146 l 174 1146 l 174 590 l 1042 590 l 1042 1146 l 1076 1146 l 1076 0 l 1042 0 l 1042 556 l 174 556 m 1006 1010 l 1006 975 l 207 975 l 207 1010 l 1006 1010 z "},"ħ":{"ha":1128,"x_min":69,"x_max":1021,"o":"m 139 1042 l 139 1146 l 174 1146 l 174 1042 l 451 1042 l 451 1007 l 174 1007 l 174 706 q 250 807 204 760 q 569 939 382 939 q 889 807 757 939 q 1021 488 1021 675 l 1021 0 l 986 0 l 986 488 q 864 782 986 660 q 569 904 742 904 q 275 782 397 904 q 176 626 206 713 l 174 626 l 174 0 l 139 0 l 139 1007 l 69 1007 l 69 1042 l 139 1042 z "},"Ĩ":{"ha":313,"x_min":-69,"x_max":382,"o":"m 174 1146 l 174 0 l 139 0 l 139 1146 l 174 1146 m 382 1346 l 382 1311 q 254 1285 318 1285 q 157 1300 206 1285 q 58 1315 107 1315 q -69 1289 -6 1315 l -69 1324 q 58 1350 -6 1350 q 157 1335 107 1350 q 254 1319 206 1319 q 382 1346 318 1319 z "},"ĩ":{"ha":313,"x_min":-69,"x_max":382,"o":"m 174 903 l 174 0 l 139 0 l 139 903 l 174 903 m 382 1108 l 382 1074 q 254 1047 318 1047 q 157 1063 206 1047 q 58 1078 107 1078 q -69 1051 -6 1078 l -69 1086 q 58 1113 -6 1113 q 157 1097 107 1113 q 254 1082 206 1082 q 382 1108 318 1082 z "},"Ī":{"ha":313,"x_min":-17,"x_max":331,"o":"m 175 1146 l 175 0 l 140 0 l 140 1146 l 175 1146 m 331 1319 l 331 1285 l -17 1285 l -17 1319 l 331 1319 z "},"ī":{"ha":313,"x_min":-17,"x_max":331,"o":"m 175 903 l 175 0 l 140 0 l 140 903 l 175 903 m 331 1076 l 331 1042 l -17 1042 l -17 1076 l 331 1076 z "},"Ĭ":{"ha":313,"x_min":-53,"x_max":365,"o":"m 174 1146 l 174 0 l 139 0 l 139 1146 l 174 1146 m 326 1424 l 365 1424 q 317 1351 349 1383 q 157 1285 250 1285 q -3 1351 63 1285 q -53 1424 -36 1383 l -14 1424 q 22 1376 0 1397 q 157 1319 78 1319 q 292 1376 235 1319 q 326 1424 313 1397 z "},"ĭ":{"ha":313,"x_min":-49,"x_max":369,"o":"m 174 903 l 174 0 l 139 0 l 139 903 l 174 903 m 331 1181 l 369 1181 q 321 1108 353 1140 q 161 1042 254 1042 q 1 1108 67 1042 q -49 1181 -32 1140 l -10 1181 q 26 1133 4 1154 q 161 1076 82 1076 q 296 1133 239 1076 q 331 1181 317 1154 z "},"Į":{"ha":313,"x_min":0,"x_max":313,"o":"m 139 32 l 139 1146 l 174 1146 l 174 0 q 76 -41 117 0 q 35 -139 35 -82 q 76 -237 35 -196 q 174 -278 117 -278 l 313 -278 l 313 -312 l 174 -312 q 51 -262 101 -312 q 0 -139 0 -211 q 51 -15 0 -67 q 139 32 89 22 z "},"į":{"ha":313,"x_min":0,"x_max":313,"o":"m 174 1215 l 174 1111 l 139 1111 l 139 1215 l 174 1215 m 139 32 l 139 903 l 174 903 l 174 0 q 76 -41 117 0 q 35 -139 35 -82 q 76 -237 35 -196 q 174 -278 117 -278 l 313 -278 l 313 -312 l 174 -312 q 51 -262 101 -312 q 0 -139 0 -211 q 51 -15 0 -67 q 139 32 89 22 z "},"İ":{"ha":313,"x_min":139,"x_max":174,"o":"m 174 1146 l 174 0 l 139 0 l 139 1146 l 174 1146 m 174 1424 l 174 1319 l 139 1319 l 139 1424 l 174 1424 z "},"ı":{"ha":313,"x_min":139,"x_max":174,"o":"m 174 903 l 174 0 l 139 0 l 139 903 l 174 903 z "},"Ĳ":{"ha":833,"x_min":139,"x_max":729,"o":"m 174 1146 l 174 0 l 139 0 l 139 1146 l 174 1146 m 694 451 l 694 1146 l 729 1146 l 729 451 q 597 132 729 264 q 278 0 465 0 l 278 35 q 574 157 451 35 q 694 451 694 279 z "},"ĳ":{"ha":729,"x_min":139,"x_max":590,"o":"m 278 903 l 278 0 l 243 0 l 243 903 l 278 903 m 278 1215 l 278 1111 l 243 1111 l 243 1215 l 278 1215 m 590 1215 l 590 1111 l 556 1111 l 556 1215 l 590 1215 m 556 0 l 556 903 l 590 903 l 590 0 q 458 -319 590 -187 q 139 -451 326 -451 l 139 -417 q 435 -294 313 -417 q 556 0 556 -172 z "},"Ĵ":{"ha":521,"x_min":-35,"x_max":603,"o":"m 382 451 l 382 1146 l 417 1146 l 417 451 q 285 132 417 264 q -35 0 153 0 l -35 35 q 261 157 139 35 q 382 451 382 279 m 553 1285 l 399 1440 l 243 1285 l 193 1285 l 399 1489 l 603 1285 l 553 1285 z "},"ĵ":{"ha":313,"x_min":-278,"x_max":361,"o":"m 139 0 l 139 903 l 174 903 l 174 0 q 42 -319 174 -187 q -278 -451 -90 -451 l -278 -417 q 18 -294 -104 -417 q 139 0 139 -172 m 311 1042 l 157 1197 l 1 1042 l -49 1042 l 157 1246 l 361 1042 l 311 1042 z "},"Ķ":{"ha":868,"x_min":139,"x_max":772,"o":"m 174 1146 l 174 0 l 139 0 l 139 1146 l 174 1146 m 357 574 l 772 0 l 728 0 l 313 574 l 728 1146 l 772 1146 l 357 574 z "},"ķ":{"ha":764,"x_min":139,"x_max":685,"o":"m 174 1146 l 174 0 l 139 0 l 139 1146 l 174 1146 m 357 451 l 685 0 l 642 0 l 314 451 l 642 903 l 685 903 l 357 451 z "},"ĸ":{"ha":764,"x_min":139,"x_max":685,"o":"m 174 1146 l 174 0 l 139 0 l 139 1146 l 174 1146 m 357 451 l 685 0 l 642 0 l 314 451 l 642 903 l 685 903 l 357 451 z "},"Ĺ":{"ha":764,"x_min":139,"x_max":799,"o":"m 139 1146 l 174 1146 l 174 35 l 799 35 l 799 0 l 139 0 l 139 1146 m 417 1285 l 482 1528 l 519 1528 l 454 1285 l 417 1285 z "},"ĺ":{"ha":313,"x_min":139,"x_max":242,"o":"m 174 1146 l 174 0 l 139 0 l 139 1146 l 174 1146 m 139 1285 l 204 1528 l 242 1528 l 176 1285 l 139 1285 z "},"Ļ":{"ha":764,"x_min":139,"x_max":799,"o":"m 139 1146 l 174 1146 l 174 35 l 799 35 l 799 0 l 139 0 l 139 1146 z "},"ļ":{"ha":313,"x_min":71,"x_max":174,"o":"m 174 1146 l 174 0 l 139 0 l 139 1146 l 174 1146 z "},"Ľ":{"ha":764,"x_min":139,"x_max":799,"o":"m 139 1146 l 174 1146 l 174 35 l 799 35 l 799 0 l 139 0 l 139 1146 z "},"ľ":{"ha":693,"x_min":139,"x_max":485,"o":"m 174 1146 l 174 0 l 139 0 l 139 1146 l 174 1146 z "},"Ŀ":{"ha":764,"x_min":139,"x_max":799,"o":"m 139 1146 l 174 1146 l 174 35 l 799 35 l 799 0 l 139 0 l 139 1146 m 796 625 l 796 521 l 761 521 l 761 625 l 796 625 z "},"ŀ":{"ha":342,"x_min":139,"x_max":388,"o":"m 174 1146 l 174 0 l 139 0 l 139 1146 l 174 1146 m 388 624 l 388 519 l 353 519 l 353 624 l 388 624 z "},"Ł":{"ha":764,"x_min":69,"x_max":799,"o":"m 139 590 l 139 1146 l 174 1146 l 174 590 l 451 590 l 451 556 l 174 556 l 174 35 l 799 35 l 799 0 l 139 0 l 139 556 l 69 556 l 69 590 l 139 590 z "},"ł":{"ha":313,"x_min":35,"x_max":417,"o":"m 107 590 l 107 1146 l 142 1146 l 142 590 l 417 590 l 417 556 l 142 556 l 142 0 l 107 0 l 107 556 l 35 556 l 35 590 l 107 590 z "},"Ń":{"ha":1156,"x_min":139,"x_max":1015,"o":"m 174 1099 l 174 0 l 139 0 l 139 1146 l 183 1146 l 981 47 l 981 1146 l 1015 1146 l 1015 0 l 971 0 l 174 1099 m 543 1319 l 608 1563 l 646 1563 l 581 1319 l 543 1319 z "},"ń":{"ha":1128,"x_min":139,"x_max":1021,"o":"m 139 904 l 174 904 l 174 706 q 250 807 204 760 q 569 939 382 939 q 889 807 757 939 q 1021 488 1021 675 l 1021 0 l 986 0 l 986 488 q 864 782 986 660 q 569 904 742 904 q 275 782 397 904 q 176 626 206 713 l 174 626 l 174 0 l 139 0 l 139 904 m 590 1076 l 656 1319 l 693 1319 l 628 1076 l 590 1076 z "},"Ņ":{"ha":1156,"x_min":139,"x_max":1015,"o":"m 174 1099 l 174 0 l 139 0 l 139 1146 l 183 1146 l 981 47 l 981 1146 l 1015 1146 l 1015 0 l 971 0 l 174 1099 z "},"ņ":{"ha":1128,"x_min":139,"x_max":1021,"o":"m 139 904 l 174 904 l 174 706 q 250 807 204 760 q 569 939 382 939 q 889 807 757 939 q 1021 488 1021 675 l 1021 0 l 986 0 l 986 488 q 864 782 986 660 q 569 904 742 904 q 275 782 397 904 q 176 626 206 713 l 174 626 l 174 0 l 139 0 l 139 904 z "},"Ň":{"ha":1156,"x_min":139,"x_max":1015,"o":"m 174 1099 l 174 0 l 139 0 l 139 1146 l 183 1146 l 981 47 l 981 1146 l 1015 1146 l 1015 0 l 971 0 l 174 1099 z "},"ň":{"ha":1128,"x_min":139,"x_max":1021,"o":"m 139 904 l 174 904 l 174 706 q 250 807 204 760 q 569 939 382 939 q 889 807 757 939 q 1021 488 1021 675 l 1021 0 l 986 0 l 986 488 q 864 782 986 660 q 569 904 742 904 q 275 782 397 904 q 176 626 206 713 l 174 626 l 174 0 l 139 0 l 139 904 z "},"ŉ":{"ha":1285,"x_min":104,"x_max":1160,"o":"m 278 904 l 313 904 l 313 706 q 389 807 343 760 q 708 939 521 939 q 1028 807 896 939 q 1160 488 1160 675 l 1160 0 l 1125 0 l 1125 488 q 1003 782 1125 660 q 708 904 881 904 q 414 782 536 904 q 315 626 344 713 l 313 626 l 313 0 l 278 0 l 278 904 m 104 903 l 169 1146 l 207 1146 l 142 903 l 104 903 z "},"Ŋ":{"ha":1161,"x_min":139,"x_max":1015,"o":"m 981 -14 l 174 1099 l 174 0 l 139 0 l 139 1146 l 183 1146 l 981 47 l 981 1146 l 1015 1146 l 1015 -174 q 965 -297 1015 -246 q 842 -347 914 -347 l 842 -312 q 940 -272 899 -312 q 981 -174 981 -231 l 981 -14 z "},"ŋ":{"ha":1128,"x_min":139,"x_max":1021,"o":"m 986 488 q 864 782 986 660 q 569 904 742 904 q 275 782 397 904 q 176 626 206 713 l 174 626 l 174 0 l 139 0 l 139 904 l 174 904 l 174 706 q 250 807 204 760 q 569 939 382 939 q 889 807 757 939 q 1021 488 1021 675 l 1021 -174 q 970 -297 1021 -246 q 847 -347 919 -347 l 847 -312 q 945 -272 904 -312 q 986 -174 986 -231 l 986 488 z "},"Ō":{"ha":1354,"x_min":69,"x_max":1285,"o":"m 678 1181 q 1107 1003 929 1181 q 1285 574 1285 825 q 1107 143 1285 321 q 678 -35 929 -35 q 247 143 425 -35 q 69 574 69 321 q 247 1003 69 825 q 678 1181 425 1181 m 678 1146 q 272 978 440 1146 q 104 574 104 810 q 272 168 104 336 q 678 0 440 0 q 1082 168 914 0 q 1250 574 1250 336 q 1082 978 1250 810 q 678 1146 914 1146 m 851 1354 l 851 1319 l 504 1319 l 504 1354 l 851 1354 z "},"ō":{"ha":1111,"x_min":69,"x_max":1042,"o":"m 556 938 q 899 795 757 938 q 1042 451 1042 653 q 899 108 1042 250 q 556 -35 757 -35 q 212 108 354 -35 q 69 451 69 250 q 212 795 69 653 q 556 938 354 938 m 556 903 q 236 771 368 903 q 104 451 104 639 q 236 132 104 264 q 556 0 368 0 q 875 132 743 0 q 1007 451 1007 264 q 875 771 1007 639 q 556 903 743 903 m 729 1111 l 729 1076 l 382 1076 l 382 1111 l 729 1111 z "},"Ŏ":{"ha":1354,"x_min":69,"x_max":1285,"o":"m 678 1181 q 1107 1003 929 1181 q 1285 574 1285 825 q 1107 143 1285 321 q 678 -35 929 -35 q 247 143 425 -35 q 69 574 69 321 q 247 1003 69 825 q 678 1181 425 1181 m 678 1146 q 272 978 440 1146 q 104 574 104 810 q 272 168 104 336 q 678 0 440 0 q 1082 168 914 0 q 1250 574 1250 336 q 1082 978 1250 810 q 678 1146 914 1146 m 847 1458 l 886 1458 q 838 1386 869 1418 q 678 1319 771 1319 q 518 1386 583 1319 q 468 1458 485 1418 l 507 1458 q 543 1411 521 1432 q 678 1354 599 1354 q 813 1411 756 1354 q 847 1458 833 1432 z "},"ŏ":{"ha":1111,"x_min":69,"x_max":1042,"o":"m 556 938 q 899 795 757 938 q 1042 451 1042 653 q 899 108 1042 250 q 556 -35 757 -35 q 212 108 354 -35 q 69 451 69 250 q 212 795 69 653 q 556 938 354 938 m 556 903 q 236 771 368 903 q 104 451 104 639 q 236 132 104 264 q 556 0 368 0 q 875 132 743 0 q 1007 451 1007 264 q 875 771 1007 639 q 556 903 743 903 m 726 1215 l 765 1215 q 717 1143 749 1175 q 557 1076 650 1076 q 397 1143 463 1076 q 347 1215 364 1175 l 386 1215 q 422 1168 400 1189 q 557 1111 478 1111 q 692 1168 635 1111 q 726 1215 713 1189 z "},"Ő":{"ha":1354,"x_min":69,"x_max":1285,"o":"m 678 1181 q 1107 1003 929 1181 q 1285 574 1285 825 q 1107 143 1285 321 q 678 -35 929 -35 q 247 143 425 -35 q 69 574 69 321 q 247 1003 69 825 q 678 1181 425 1181 m 678 1146 q 272 978 440 1146 q 104 574 104 810 q 272 168 104 336 q 678 0 440 0 q 1082 168 914 0 q 1250 574 1250 336 q 1082 978 1250 810 q 678 1146 914 1146 z "},"ő":{"ha":1111,"x_min":69,"x_max":1042,"o":"m 556 938 q 899 795 757 938 q 1042 451 1042 653 q 899 108 1042 250 q 556 -35 757 -35 q 212 108 354 -35 q 69 451 69 250 q 212 795 69 653 q 556 938 354 938 m 556 903 q 236 771 368 903 q 104 451 104 639 q 236 132 104 264 q 556 0 368 0 q 875 132 743 0 q 1007 451 1007 264 q 875 771 1007 639 q 556 903 743 903 z "},"Œ":{"ha":1875,"x_min":69,"x_max":1813,"o":"m 1054 1050 q 1107 1003 1081 1029 q 1285 590 1279 831 l 1647 590 l 1647 556 l 1285 556 q 1107 143 1278 314 q 1054 96 1081 117 q 1372 0 1193 0 q 1776 168 1608 0 q 1786 178 1782 174 l 1813 154 q 1801 143 1807 149 q 1372 -35 1624 -35 q 1025 72 1175 -35 q 678 -35 874 -35 q 247 143 425 -35 q 69 574 69 321 q 247 1003 69 825 q 678 1181 425 1181 q 1025 1074 874 1181 q 1372 1181 1175 1181 q 1801 1003 1624 1181 q 1807 997 1804 1000 l 1781 974 q 1776 978 1779 975 q 1372 1146 1608 1146 q 1054 1050 1193 1146 m 994 1050 q 678 1146 856 1146 q 272 978 440 1146 q 104 574 104 810 q 272 168 104 336 q 678 0 440 0 q 994 96 856 0 q 942 143 968 117 q 764 574 764 321 q 942 1003 764 825 q 994 1050 968 1029 m 1025 117 q 1082 168 1054 140 q 1250 556 1243 329 l 799 556 q 967 168 806 329 q 1025 117 994 140 m 1250 590 q 1082 978 1244 815 q 1025 1029 1054 1006 q 967 978 994 1006 q 799 590 804 815 l 1250 590 z "},"œ":{"ha":1667,"x_min":69,"x_max":1579,"o":"m 1529 786 q 1231 899 1404 899 q 911 767 1043 899 q 779 447 779 635 q 892 149 779 275 l 1529 786 m 896 800 q 1231 933 1036 933 q 1575 792 1432 933 q 1579 786 1576 789 l 1554 763 l 915 124 q 1231 -4 1046 -4 q 1543 121 1414 -4 l 1567 96 q 1231 -39 1426 -39 q 890 100 1032 -39 q 556 -35 751 -35 q 212 108 354 -35 q 69 451 69 250 q 212 795 69 653 q 556 938 354 938 q 896 800 754 938 m 867 124 q 744 447 744 260 q 871 775 744 638 q 556 903 740 903 q 236 771 368 903 q 104 451 104 639 q 236 132 104 264 q 556 0 368 0 q 867 124 739 0 z "},"Ŕ":{"ha":1076,"x_min":139,"x_max":972,"o":"m 174 1111 l 174 347 l 556 347 q 826 459 714 347 q 938 729 938 571 q 826 999 938 888 q 556 1111 714 1111 l 174 1111 m 139 1146 l 556 1146 q 850 1024 728 1146 q 972 729 972 901 q 850 435 972 557 q 725 347 793 378 l 925 0 l 883 0 l 692 333 q 556 313 628 313 l 174 313 l 174 0 l 139 0 l 139 1146 m 521 1319 l 586 1563 l 624 1563 l 558 1319 l 521 1319 z "},"ŕ":{"ha":590,"x_min":139,"x_max":590,"o":"m 174 453 l 174 0 l 139 0 l 139 903 l 174 903 l 174 629 q 271 771 207 707 q 590 903 403 903 l 590 868 q 294 746 417 868 q 174 453 174 624 m 278 1042 l 343 1285 l 381 1285 l 315 1042 l 278 1042 z "},"Ŗ":{"ha":1076,"x_min":139,"x_max":972,"o":"m 174 1111 l 174 347 l 556 347 q 826 459 714 347 q 938 729 938 571 q 826 999 938 888 q 556 1111 714 1111 l 174 1111 m 139 1146 l 556 1146 q 850 1024 728 1146 q 972 729 972 901 q 850 435 972 557 q 725 347 793 378 l 925 0 l 883 0 l 692 333 q 556 313 628 313 l 174 313 l 174 0 l 139 0 l 139 1146 z "},"ŗ":{"ha":590,"x_min":71,"x_max":590,"o":"m 174 453 l 174 0 l 139 0 l 139 903 l 174 903 l 174 629 q 271 771 207 707 q 590 903 403 903 l 590 868 q 294 746 417 868 q 174 453 174 624 z "},"Ř":{"ha":1076,"x_min":139,"x_max":972,"o":"m 174 1111 l 174 347 l 556 347 q 826 459 714 347 q 938 729 938 571 q 826 999 938 888 q 556 1111 714 1111 l 174 1111 m 139 1146 l 556 1146 q 850 1024 728 1146 q 972 729 972 901 q 850 435 972 557 q 725 347 793 378 l 925 0 l 883 0 l 692 333 q 556 313 628 313 l 174 313 l 174 0 l 139 0 l 139 1146 z "},"ř":{"ha":590,"x_min":139,"x_max":604,"o":"m 188 453 l 188 0 l 153 0 l 153 903 l 188 903 l 188 629 q 285 771 221 707 q 604 903 417 903 l 604 868 q 308 746 431 868 q 188 453 188 624 z "},"Ś":{"ha":972,"x_min":49,"x_max":900,"o":"m 814 71 q 538 -49 701 -37 q 499 -50 518 -50 q 168 61 308 -50 q 49 208 88 135 l 81 224 q 192 88 115 156 q 496 -15 321 -15 q 535 -14 515 -15 q 789 96 685 -4 q 856 207 838 140 q 865 274 865 240 q 832 393 865 335 q 683 504 781 479 l 349 594 q 160 726 224 628 q 117 868 117 792 q 128 950 117 907 q 272 1140 161 1075 q 424 1188 346 1182 q 476 1190 450 1190 q 721 1129 604 1190 q 861 1010 796 1085 l 832 990 q 703 1099 772 1060 q 476 1156 593 1156 q 425 1153 451 1156 q 290 1110 356 1147 q 161 940 190 1051 q 150 867 150 901 q 189 744 150 800 q 357 628 246 658 l 693 539 q 863 410 804 508 q 900 274 900 344 q 889 199 900 238 q 815 69 869 121 l 814 71 m 440 1319 l 506 1563 l 543 1563 l 478 1319 l 440 1319 z "},"ś":{"ha":868,"x_min":104,"x_max":744,"o":"m 557 450 q 711 339 663 421 q 744 218 744 283 q 738 158 744 189 q 628 4 714 57 q 489 -43 563 -32 q 410 -49 449 -49 q 111 33 253 -49 q 104 38 107 36 l 125 67 q 131 61 128 64 q 413 -12 264 -12 q 485 -8 447 -12 q 611 33 547 -1 q 703 167 683 79 q 710 219 710 194 q 682 321 710 274 q 547 417 640 389 l 313 472 l 313 471 q 147 581 199 503 q 110 703 110 635 q 115 758 110 729 q 212 899 139 849 q 401 951 285 949 l 411 951 q 731 857 593 951 q 736 851 732 854 l 710 826 q 707 833 710 829 q 413 917 579 917 l 401 917 q 231 870 294 914 q 149 751 168 826 q 143 701 143 725 q 176 599 143 644 q 319 504 222 533 l 319 506 l 557 450 m 417 1111 l 482 1354 l 519 1354 l 454 1111 l 417 1111 z "},"Ŝ":{"ha":972,"x_min":49,"x_max":900,"o":"m 814 71 q 538 -49 701 -37 q 499 -50 518 -50 q 168 61 308 -50 q 49 208 88 135 l 81 224 q 192 88 115 156 q 496 -15 321 -15 q 535 -14 515 -15 q 789 96 685 -4 q 856 207 838 140 q 865 274 865 240 q 832 393 865 335 q 683 504 781 479 l 349 594 q 160 726 224 628 q 117 868 117 792 q 128 950 117 907 q 272 1140 161 1075 q 424 1188 346 1182 q 476 1190 450 1190 q 721 1129 604 1190 q 861 1010 796 1085 l 832 990 q 703 1099 772 1060 q 476 1156 593 1156 q 425 1153 451 1156 q 290 1110 356 1147 q 161 940 190 1051 q 150 867 150 901 q 189 744 150 800 q 357 628 246 658 l 693 539 q 863 410 804 508 q 900 274 900 344 q 889 199 900 238 q 815 69 869 121 l 814 71 m 629 1285 l 475 1440 l 319 1285 l 269 1285 l 475 1489 l 679 1285 l 629 1285 z "},"ŝ":{"ha":868,"x_min":104,"x_max":744,"o":"m 557 450 q 711 339 663 421 q 744 218 744 283 q 738 158 744 189 q 628 4 714 57 q 489 -43 563 -32 q 410 -49 449 -49 q 111 33 253 -49 q 104 38 107 36 l 125 67 q 131 61 128 64 q 413 -12 264 -12 q 485 -8 447 -12 q 611 33 547 -1 q 703 167 683 79 q 710 219 710 194 q 682 321 710 274 q 547 417 640 389 l 313 472 l 313 471 q 147 581 199 503 q 110 703 110 635 q 115 758 110 729 q 212 899 139 849 q 401 951 285 949 l 411 951 q 731 857 593 951 q 736 851 732 854 l 710 826 q 707 833 710 829 q 413 917 579 917 l 401 917 q 231 870 294 914 q 149 751 168 826 q 143 701 143 725 q 176 599 143 644 q 319 504 222 533 l 319 506 l 557 450 m 579 1076 l 425 1232 l 269 1076 l 219 1076 l 425 1281 l 629 1076 l 579 1076 z "},"Ş":{"ha":1007,"x_min":49,"x_max":900,"o":"m 451 -49 q 168 61 290 -36 q 49 208 88 135 l 81 224 q 192 88 115 156 q 496 -15 321 -15 q 535 -14 515 -15 q 789 96 685 -4 q 856 207 838 140 q 865 274 865 240 q 832 393 865 335 q 683 504 781 479 l 349 594 q 160 726 224 628 q 117 868 117 792 q 128 950 117 907 q 272 1140 161 1075 q 424 1188 346 1182 q 476 1190 450 1190 q 721 1129 604 1190 q 861 1010 796 1085 l 832 990 q 703 1099 772 1060 q 476 1156 593 1156 q 425 1153 451 1156 q 290 1110 356 1147 q 161 940 190 1051 q 150 867 150 901 q 189 744 150 800 q 357 628 246 658 l 693 539 q 863 410 804 508 q 900 274 900 344 q 889 199 900 238 q 815 69 869 121 l 814 71 q 538 -49 701 -37 q 486 -50 511 -50 l 486 -139 l 521 -139 q 644 -190 593 -139 q 694 -312 694 -240 q 644 -435 694 -385 q 521 -486 593 -486 l 382 -486 l 382 -451 l 521 -451 q 619 -410 578 -451 q 660 -312 660 -369 q 619 -215 660 -256 q 521 -174 578 -174 l 451 -174 l 451 -49 z "},"ş":{"ha":868,"x_min":104,"x_max":744,"o":"m 339 -43 q 111 33 221 -29 q 104 38 107 36 l 125 67 q 131 61 128 64 q 413 -12 264 -12 q 485 -8 447 -12 q 611 33 547 -1 q 703 167 683 79 q 710 219 710 194 q 682 321 710 274 q 547 417 640 389 l 313 472 l 313 471 q 147 581 199 503 q 110 703 110 635 q 115 758 110 729 q 212 899 139 849 q 401 951 285 949 l 411 951 q 731 857 593 951 q 736 851 732 854 l 710 826 q 707 833 710 829 q 413 917 579 917 l 401 917 q 231 870 294 914 q 149 751 168 826 q 143 701 143 725 q 176 599 143 644 q 319 504 222 533 l 319 506 l 557 450 q 711 339 663 421 q 744 218 744 283 q 738 158 744 189 q 628 4 714 57 q 489 -43 563 -32 q 406 -49 447 -49 q 374 -47 390 -49 l 374 -139 l 408 -139 q 531 -190 481 -139 q 582 -312 582 -240 q 531 -435 582 -385 q 408 -486 481 -486 l 269 -486 l 269 -451 l 408 -451 q 506 -410 465 -451 q 547 -312 547 -369 q 506 -215 547 -256 q 408 -174 465 -174 l 339 -174 l 339 -43 z "},"Š":{"ha":972,"x_min":49,"x_max":900,"o":"m 814 71 q 538 -49 701 -37 q 499 -50 518 -50 q 168 61 308 -50 q 49 208 88 135 l 81 224 q 192 88 115 156 q 496 -15 321 -15 q 535 -14 515 -15 q 789 96 685 -4 q 856 207 838 140 q 865 274 865 240 q 832 393 865 335 q 683 504 781 479 l 349 594 q 160 726 224 628 q 117 868 117 792 q 128 950 117 907 q 272 1140 161 1075 q 424 1188 346 1182 q 476 1190 450 1190 q 721 1129 604 1190 q 861 1010 796 1085 l 832 990 q 703 1099 772 1060 q 476 1156 593 1156 q 425 1153 451 1156 q 290 1110 356 1147 q 161 940 190 1051 q 150 867 150 901 q 189 744 150 800 q 357 628 246 658 l 693 539 q 863 410 804 508 q 900 274 900 344 q 889 199 900 238 q 815 69 869 121 l 814 71 z "},"š":{"ha":868,"x_min":104,"x_max":744,"o":"m 557 450 q 711 339 663 421 q 744 218 744 283 q 738 158 744 189 q 628 4 714 57 q 489 -43 563 -32 q 410 -49 449 -49 q 111 33 253 -49 q 104 38 107 36 l 125 67 q 131 61 128 64 q 413 -12 264 -12 q 485 -8 447 -12 q 611 33 547 -1 q 703 167 683 79 q 710 219 710 194 q 682 321 710 274 q 547 417 640 389 l 313 472 l 313 471 q 147 581 199 503 q 110 703 110 635 q 115 758 110 729 q 212 899 139 849 q 401 951 285 949 l 411 951 q 731 857 593 951 q 736 851 732 854 l 710 826 q 707 833 710 829 q 413 917 579 917 l 401 917 q 231 870 294 914 q 149 751 168 826 q 143 701 143 725 q 176 599 143 644 q 319 504 222 533 l 319 506 l 557 450 z "},"Ţ":{"ha":729,"x_min":0,"x_max":729,"o":"m 347 1111 l 0 1111 l 0 1146 l 729 1146 l 729 1111 l 382 1111 l 382 -139 l 415 -139 q 538 -190 488 -139 q 589 -312 589 -240 q 538 -435 589 -385 q 415 -486 488 -486 l 276 -486 l 276 -451 l 415 -451 q 513 -410 472 -451 q 554 -312 554 -369 q 513 -215 554 -256 q 415 -174 472 -174 l 347 -174 l 347 1111 z "},"ţ":{"ha":382,"x_min":69,"x_max":382,"o":"m 139 1146 l 174 1146 l 174 903 l 379 903 l 379 868 l 174 868 l 174 -139 l 208 -139 q 331 -190 281 -139 q 382 -312 382 -240 q 331 -435 382 -385 q 208 -486 281 -486 l 69 -486 l 69 -451 l 208 -451 q 306 -410 265 -451 q 347 -312 347 -369 q 306 -215 347 -256 q 208 -174 265 -174 l 139 -174 l 139 1146 z "},"Ť":{"ha":729,"x_min":0,"x_max":729,"o":"m 729 1146 l 729 1111 l 382 1111 l 382 0 l 347 0 l 347 1111 l 0 1111 l 0 1146 l 729 1146 z "},"ť":{"ha":763,"x_min":140,"x_max":554,"o":"m 140 1146 l 175 1146 l 175 903 l 381 903 l 381 868 l 175 868 l 175 0 l 140 0 l 140 1146 z "},"Ŧ":{"ha":729,"x_min":0,"x_max":729,"o":"m 347 590 l 347 1111 l 0 1111 l 0 1146 l 729 1146 l 729 1111 l 382 1111 l 382 590 l 556 590 l 556 556 l 382 556 l 382 0 l 347 0 l 347 556 l 174 556 l 174 590 l 347 590 z "},"ŧ":{"ha":382,"x_min":69,"x_max":451,"o":"m 140 476 l 140 1146 l 175 1146 l 175 903 l 381 903 l 381 868 l 175 868 l 175 476 l 451 476 l 451 442 l 175 442 l 175 0 l 140 0 l 140 442 l 69 442 l 69 476 l 140 476 z "},"Ũ":{"ha":1111,"x_min":104,"x_max":1007,"o":"m 104 451 l 104 1146 l 139 1146 l 139 451 q 261 157 139 279 q 556 35 383 35 q 850 157 728 35 q 972 451 972 279 l 972 1146 l 1007 1146 l 1007 451 q 875 132 1007 264 q 556 0 743 0 q 236 132 368 0 q 104 451 104 264 m 782 1381 l 782 1346 q 654 1319 718 1319 q 557 1335 606 1319 q 458 1350 507 1350 q 331 1324 394 1350 l 331 1358 q 458 1385 394 1385 q 557 1369 507 1385 q 654 1354 606 1354 q 782 1381 718 1354 z "},"ũ":{"ha":1181,"x_min":139,"x_max":1021,"o":"m 1021 -1 l 986 -1 l 986 197 q 910 96 956 143 q 590 -36 778 -36 q 271 96 403 -36 q 139 415 139 228 l 139 903 l 174 903 l 174 415 q 296 121 174 243 q 590 -1 418 -1 q 885 121 763 -1 q 983 276 954 190 l 986 276 l 986 903 l 1021 903 l 1021 -1 m 806 1138 l 806 1103 q 678 1076 742 1076 q 581 1092 629 1076 q 482 1107 531 1107 q 354 1081 418 1107 l 354 1115 q 482 1142 418 1142 q 581 1126 531 1142 q 678 1111 629 1111 q 806 1138 742 1111 z "},"Ū":{"ha":1111,"x_min":104,"x_max":1007,"o":"m 104 451 l 104 1146 l 139 1146 l 139 451 q 261 157 139 279 q 556 35 383 35 q 850 157 728 35 q 972 451 972 279 l 972 1146 l 1007 1146 l 1007 451 q 875 132 1007 264 q 556 0 743 0 q 236 132 368 0 q 104 451 104 264 m 729 1319 l 729 1285 l 382 1285 l 382 1319 l 729 1319 z "},"ū":{"ha":1181,"x_min":139,"x_max":1021,"o":"m 1021 -1 l 986 -1 l 986 197 q 910 96 956 143 q 590 -36 778 -36 q 271 96 403 -36 q 139 415 139 228 l 139 903 l 174 903 l 174 415 q 296 121 174 243 q 590 -1 418 -1 q 885 121 763 -1 q 983 276 954 190 l 986 276 l 986 903 l 1021 903 l 1021 -1 m 754 1076 l 754 1042 l 407 1042 l 407 1076 l 754 1076 z "},"Ŭ":{"ha":1111,"x_min":104,"x_max":1007,"o":"m 104 451 l 104 1146 l 139 1146 l 139 451 q 261 157 139 279 q 556 35 383 35 q 850 157 728 35 q 972 451 972 279 l 972 1146 l 1007 1146 l 1007 451 q 875 132 1007 264 q 556 0 743 0 q 236 132 368 0 q 104 451 104 264 m 726 1458 l 765 1458 q 717 1386 749 1418 q 557 1319 650 1319 q 397 1386 463 1319 q 347 1458 364 1418 l 386 1458 q 422 1411 400 1432 q 557 1354 478 1354 q 692 1411 635 1354 q 726 1458 713 1432 z "},"ŭ":{"ha":1181,"x_min":139,"x_max":1021,"o":"m 1021 -1 l 986 -1 l 986 197 q 910 96 956 143 q 590 -36 778 -36 q 271 96 403 -36 q 139 415 139 228 l 139 903 l 174 903 l 174 415 q 296 121 174 243 q 590 -1 418 -1 q 885 121 763 -1 q 983 276 954 190 l 986 276 l 986 903 l 1021 903 l 1021 -1 m 750 1215 l 789 1215 q 740 1143 772 1175 q 581 1076 674 1076 q 421 1143 486 1076 q 371 1215 388 1175 l 410 1215 q 446 1168 424 1189 q 581 1111 501 1111 q 715 1168 658 1111 q 750 1215 736 1189 z "},"Ů":{"ha":1111,"x_min":104,"x_max":1007,"o":"m 104 451 l 104 1146 l 139 1146 l 139 451 q 261 157 139 279 q 556 35 383 35 q 850 157 728 35 q 972 451 972 279 l 972 1146 l 1007 1146 l 1007 451 q 875 132 1007 264 q 556 0 743 0 q 236 132 368 0 q 104 451 104 264 m 557 1528 q 642 1492 607 1528 q 678 1407 678 1457 q 642 1320 678 1356 q 557 1285 607 1285 q 470 1320 506 1285 q 435 1407 435 1356 q 470 1492 435 1457 q 557 1528 506 1528 m 557 1493 q 495 1467 521 1493 q 469 1407 469 1442 q 495 1345 469 1371 q 557 1319 521 1319 q 617 1345 592 1319 q 643 1407 643 1371 q 617 1467 643 1442 q 557 1493 592 1493 z "},"ů":{"ha":1181,"x_min":139,"x_max":1021,"o":"m 1021 -1 l 986 -1 l 986 197 q 910 96 956 143 q 590 -36 778 -36 q 271 96 403 -36 q 139 415 139 228 l 139 903 l 174 903 l 174 415 q 296 121 174 243 q 590 -1 418 -1 q 885 121 763 -1 q 983 276 954 190 l 986 276 l 986 903 l 1021 903 l 1021 -1 m 581 1285 q 666 1249 631 1285 q 701 1164 701 1214 q 666 1077 701 1113 q 581 1042 631 1042 q 494 1077 529 1042 q 458 1164 458 1113 q 494 1249 458 1214 q 581 1285 529 1285 m 581 1250 q 519 1224 544 1250 q 493 1164 493 1199 q 519 1102 493 1128 q 581 1076 544 1076 q 641 1102 615 1076 q 667 1164 667 1128 q 641 1224 667 1199 q 581 1250 615 1250 z "},"Ű":{"ha":1181,"x_min":140,"x_max":1043,"o":"m 140 451 l 140 1146 l 175 1146 l 175 451 q 297 157 175 279 q 592 35 419 35 q 886 157 764 35 q 1008 451 1008 279 l 1008 1146 l 1043 1146 l 1043 451 q 911 132 1043 264 q 592 0 779 0 q 272 132 404 0 q 140 451 140 264 z "},"ű":{"ha":1181,"x_min":139,"x_max":1021,"o":"m 1021 -1 l 986 -1 l 986 197 q 910 96 956 143 q 590 -36 778 -36 q 271 96 403 -36 q 139 415 139 228 l 139 903 l 174 903 l 174 415 q 296 121 174 243 q 590 -1 418 -1 q 885 121 763 -1 q 983 276 954 190 l 986 276 l 986 903 l 1021 903 l 1021 -1 z "},"Ų":{"ha":1111,"x_min":103,"x_max":1006,"o":"m 672 14 q 554 0 617 0 q 235 132 367 0 q 103 451 103 264 l 103 1146 l 138 1146 l 138 451 q 260 157 138 279 q 554 35 382 35 q 849 157 726 35 q 971 451 971 279 l 971 1146 l 1006 1146 l 1006 451 q 874 132 1006 264 q 753 44 818 76 q 722 21 736 35 q 681 -78 681 -21 q 722 -176 681 -135 q 819 -217 763 -217 l 958 -217 l 958 -251 l 819 -251 q 697 -201 747 -251 q 646 -78 646 -150 q 672 14 646 -26 z "},"ų":{"ha":1131,"x_min":104,"x_max":1126,"o":"m 986 0 l 986 -1 l 967 -1 q 890 -40 924 -7 q 849 -139 849 -82 q 890 -237 849 -196 q 988 -278 931 -278 l 1126 -278 l 1126 -312 l 988 -312 q 865 -262 915 -312 q 814 -139 814 -211 q 865 -15 814 -67 q 951 32 903 22 l 951 197 q 875 96 921 143 q 556 -36 743 -36 q 236 96 368 -36 q 104 415 104 228 l 104 903 l 139 903 l 139 415 q 261 121 139 243 q 556 -1 383 -1 q 850 121 728 -1 q 949 276 919 190 l 951 276 l 951 903 l 986 903 l 986 35 l 988 35 l 988 0 l 986 0 z "},"Ŵ":{"ha":1632,"x_min":14,"x_max":1617,"o":"m 815 856 l 490 0 l 444 0 l 14 1146 l 51 1146 l 468 40 l 797 907 l 835 907 l 1164 40 l 1579 1146 l 1617 1146 l 1186 0 l 1140 0 l 815 856 m 971 1146 l 817 1301 l 661 1146 l 611 1146 l 817 1350 l 1021 1146 l 971 1146 z "},"ŵ":{"ha":1354,"x_min":1,"x_max":1357,"o":"m 329 0 l 1 903 l 40 903 l 350 51 l 658 903 l 700 903 l 1010 51 l 1318 903 l 1357 903 l 1029 0 l 989 0 l 679 853 l 369 0 l 329 0 m 835 1042 l 681 1197 l 525 1042 l 475 1042 l 681 1246 l 885 1042 l 835 1042 z "},"Ŷ":{"ha":868,"x_min":0,"x_max":868,"o":"m 451 425 l 451 0 l 417 0 l 417 425 l 0 1146 l 40 1146 l 435 464 l 828 1146 l 868 1146 l 451 425 m 589 1285 l 435 1440 l 279 1285 l 229 1285 l 435 1489 l 639 1285 l 589 1285 z "},"ŷ":{"ha":1129,"x_min":104,"x_max":986,"o":"m 951 314 l 951 904 l 986 904 l 986 0 q 854 -319 986 -187 q 535 -451 722 -451 l 535 -417 q 831 -294 708 -417 q 951 0 951 -172 l 951 235 q 875 133 921 181 q 556 1 743 1 q 236 133 368 1 q 104 453 104 265 l 104 904 l 139 904 l 139 453 q 261 158 139 281 q 556 36 383 36 q 850 158 728 36 q 949 314 919 228 l 951 314 m 700 1042 l 546 1197 l 390 1042 l 340 1042 l 546 1246 l 750 1042 l 700 1042 z "},"Ÿ":{"ha":868,"x_min":0,"x_max":868,"o":"m 451 425 l 451 0 l 417 0 l 417 425 l 0 1146 l 40 1146 l 435 464 l 828 1146 l 868 1146 l 451 425 m 313 1319 l 313 1424 l 347 1424 l 347 1319 l 313 1319 m 519 1319 l 519 1424 l 554 1424 l 554 1319 l 519 1319 z "},"Ź":{"ha":903,"x_min":36,"x_max":861,"o":"m 818 1111 l 36 1111 l 36 1146 l 861 1146 l 861 1111 l 79 35 l 861 35 l 861 0 l 36 0 l 36 35 l 818 1111 m 414 1319 l 479 1563 l 517 1563 l 451 1319 l 414 1319 z "},"ź":{"ha":833,"x_min":36,"x_max":800,"o":"m 753 868 l 36 868 l 36 903 l 800 903 l 800 868 l 83 35 l 800 35 l 800 0 l 36 0 l 36 35 l 753 868 m 385 1076 l 450 1319 l 488 1319 l 422 1076 l 385 1076 z "},"Ż":{"ha":903,"x_min":36,"x_max":861,"o":"m 818 1111 l 36 1111 l 36 1146 l 861 1146 l 861 1111 l 79 35 l 861 35 l 861 0 l 36 0 l 36 35 l 818 1111 m 467 1424 l 467 1319 l 432 1319 l 432 1424 l 467 1424 z "},"ż":{"ha":833,"x_min":36,"x_max":800,"o":"m 753 868 l 36 868 l 36 903 l 800 903 l 800 868 l 83 35 l 800 35 l 800 0 l 36 0 l 36 35 l 753 868 m 436 1181 l 436 1076 l 401 1076 l 401 1181 l 436 1181 z "},"Ž":{"ha":903,"x_min":36,"x_max":861,"o":"m 818 1111 l 36 1111 l 36 1146 l 861 1146 l 861 1111 l 79 35 l 861 35 l 861 0 l 36 0 l 36 35 l 818 1111 z "},"ž":{"ha":833,"x_min":36,"x_max":800,"o":"m 753 868 l 36 868 l 36 903 l 800 903 l 800 868 l 83 35 l 800 35 l 800 0 l 36 0 l 36 35 l 753 868 z "},"ſ":{"ha":417,"x_min":-278,"x_max":590,"o":"m 139 1042 q 271 1361 139 1229 q 590 1493 403 1493 l 590 1458 q 294 1336 417 1458 q 174 1042 174 1214 l 174 903 l 381 903 l 381 868 l 174 868 l 174 0 q 42 -319 174 -187 q -278 -451 -90 -451 l -278 -417 q 18 -294 -104 -417 q 139 0 139 -172 l 139 1042 z "},"ƀ":{"ha":1181,"x_min":69,"x_max":1076,"o":"m 174 274 q 271 132 207 196 q 590 0 403 0 q 910 132 778 0 q 1042 451 1042 264 q 910 771 1042 639 q 590 903 778 903 q 271 771 403 903 q 174 629 207 707 l 174 274 m 139 1076 l 139 1146 l 174 1146 l 174 1076 l 451 1076 l 451 1042 l 174 1042 l 174 704 q 247 796 204 753 q 590 938 389 938 q 934 795 792 938 q 1076 451 1076 653 q 934 108 1076 250 q 590 -35 792 -35 q 247 108 389 -35 q 174 199 204 151 l 174 0 l 139 0 l 139 1042 l 69 1042 l 69 1076 l 139 1076 z "},"ƃ":{"ha":1181,"x_min":139,"x_max":1076,"o":"m 174 704 q 247 796 204 753 q 590 938 389 938 q 934 795 792 938 q 1076 451 1076 653 q 934 108 1076 250 q 590 -35 792 -35 q 247 108 389 -35 q 174 199 204 151 l 174 0 l 139 0 l 139 1146 l 799 1146 l 799 1111 l 174 1111 l 174 704 m 174 629 l 174 274 q 271 132 207 196 q 590 0 403 0 q 910 132 778 0 q 1042 451 1042 264 q 910 771 1042 639 q 590 903 778 903 q 271 771 403 903 q 174 629 207 707 z "},"Ɖ":{"ha":1250,"x_min":0,"x_max":1161,"o":"m 139 590 l 139 1146 l 589 1146 q 993 978 826 1146 q 1161 572 1161 810 q 993 168 1161 336 q 590 0 826 0 l 590 -1 l 139 -1 l 139 556 l 0 556 l 0 590 l 139 590 m 174 590 l 382 590 l 382 556 l 174 556 l 174 33 l 589 33 l 589 35 q 969 193 813 35 q 1126 572 1126 350 q 969 954 1126 796 q 589 1111 813 1111 l 174 1111 l 174 590 z "},"Ƌ":{"ha":1250,"x_min":-174,"x_max":1161,"o":"m 174 1111 l 174 33 l 589 33 l 589 35 q 969 193 813 35 q 1126 572 1126 350 q 969 954 1126 796 q 589 1111 813 1111 l 174 1111 m 589 1146 q 993 978 826 1146 q 1161 572 1161 810 q 993 168 1161 336 q 590 0 826 0 l 590 -1 l 139 -1 l 139 1111 l -174 1111 l -174 1146 l 589 1146 z "},"ƌ":{"ha":1181,"x_min":104,"x_max":1042,"o":"m 1007 704 q 933 796 976 753 q 590 938 792 938 q 247 795 389 938 q 104 451 104 653 q 247 108 104 250 q 590 -35 389 -35 q 933 108 792 -35 q 1007 199 976 151 l 1007 0 l 1042 0 l 1042 1146 l 382 1146 l 382 1111 l 1007 1111 l 1007 704 m 1007 629 l 1007 274 q 910 132 974 196 q 590 0 778 0 q 271 132 403 0 q 139 451 139 264 q 271 771 139 639 q 590 903 403 903 q 910 771 778 903 q 1007 629 974 707 z "},"ƍ":{"ha":833,"x_min":104,"x_max":729,"o":"m 220 822 q 180 781 220 822 q 139 625 139 740 q 220 428 139 510 q 417 347 301 347 q 613 428 532 347 q 694 625 694 510 q 613 822 694 740 q 417 903 532 903 q 220 822 301 903 m 108 0 l 108 35 l 565 35 l 197 403 l 196 404 q 104 625 104 496 q 196 846 104 754 q 417 938 288 938 q 638 846 546 938 q 729 625 729 754 q 638 404 729 496 q 417 313 546 313 q 325 325 368 313 l 615 35 l 615 0 l 108 0 z "},"Ǝ":{"ha":868,"x_min":139,"x_max":799,"o":"m 139 1146 l 799 1146 l 799 1111 l 174 1111 l 174 590 l 660 590 l 660 556 l 174 556 l 174 35 l 799 35 l 799 0 l 139 0 l 139 1146 z "},"Ə":{"ha":1181,"x_min":69,"x_max":1118,"o":"m 75 997 q 81 1003 78 1000 q 510 1181 258 1181 q 940 1003 763 1181 q 1118 574 1118 825 q 940 143 1118 321 q 510 -35 763 -35 q 81 143 258 -35 q 69 154 75 149 l 96 178 q 106 168 100 174 q 510 0 274 0 q 901 154 738 0 l 86 986 l 75 997 m 925 179 q 1083 574 1083 343 q 915 978 1083 810 q 510 1146 747 1146 q 125 996 286 1146 l 925 179 z "},"Ɛ":{"ha":764,"x_min":106,"x_max":765,"o":"m 438 590 l 438 625 l 436 625 q 253 701 329 625 q 176 886 176 778 q 253 1069 176 993 q 436 1146 329 1146 q 621 1069 544 1146 q 697 903 692 999 l 732 903 q 646 1094 726 1014 q 436 1181 560 1181 q 228 1094 314 1181 q 142 886 142 1008 q 228 676 142 763 q 331 608 274 631 q 201 529 260 586 q 106 296 106 432 q 202 62 106 158 q 435 -35 299 -35 q 669 62 572 -35 q 765 296 765 158 l 765 313 l 731 313 l 731 296 q 644 86 731 172 q 435 0 558 0 q 226 86 313 0 q 140 296 140 172 q 226 504 140 418 q 435 590 313 590 l 438 590 z "},"Ƒ":{"ha":833,"x_min":-278,"x_max":799,"o":"m 139 1146 l 174 1146 l 174 1144 l 799 1144 l 799 1110 l 174 1110 l 174 590 l 660 590 l 660 556 l 174 556 l 174 0 q 42 -319 174 -187 q -278 -451 -90 -451 l -278 -417 q 18 -294 -104 -417 q 139 0 139 -172 l 139 1146 z "},"ƒ":{"ha":417,"x_min":-278,"x_max":590,"o":"m 139 1042 q 271 1361 139 1229 q 590 1493 403 1493 l 590 1458 q 294 1336 417 1458 q 174 1042 174 1214 l 174 903 l 381 903 l 381 868 l 174 868 l 174 0 q 42 -319 174 -187 q -278 -451 -90 -451 l -278 -417 q 18 -294 -104 -417 q 139 0 139 -172 l 139 1042 z "},"Ɩ":{"ha":381,"x_min":104,"x_max":139,"o":"m 139 1146 l 139 0 l 104 0 l 104 1146 l 139 1146 z "},"Ɨ":{"ha":313,"x_min":-35,"x_max":347,"o":"m 139 590 l 139 1146 l 174 1146 l 174 590 l 347 590 l 347 556 l 174 556 l 174 0 l 139 0 l 139 556 l -35 556 l -35 590 l 139 590 z "},"ƚ":{"ha":313,"x_min":-35,"x_max":347,"o":"m 139 590 l 139 1146 l 174 1146 l 174 590 l 347 590 l 347 556 l 174 556 l 174 0 l 139 0 l 139 556 l -35 556 l -35 590 l 139 590 z "},"Ơ":{"ha":1354,"x_min":69,"x_max":1614,"o":"m 678 1181 q 1107 1003 929 1181 q 1285 574 1285 825 q 1107 143 1285 321 q 678 -35 929 -35 q 247 143 425 -35 q 69 574 69 321 q 247 1003 69 825 q 678 1181 425 1181 m 678 1146 q 272 978 440 1146 q 104 574 104 810 q 272 168 104 336 q 678 0 440 0 q 1082 168 914 0 q 1250 574 1250 336 q 1082 978 1250 810 q 678 1146 914 1146 m 1614 1076 q 1563 953 1614 1004 q 1440 903 1513 903 l 1440 938 q 1538 978 1497 938 q 1579 1076 1579 1019 l 1579 1389 l 1614 1389 l 1614 1076 z "},"ơ":{"ha":1111,"x_min":69,"x_max":1371,"o":"m 556 938 q 899 795 757 938 q 1042 451 1042 653 q 899 108 1042 250 q 556 -35 757 -35 q 212 108 354 -35 q 69 451 69 250 q 212 795 69 653 q 556 938 354 938 m 556 903 q 236 771 368 903 q 104 451 104 639 q 236 132 104 264 q 556 0 368 0 q 875 132 743 0 q 1007 451 1007 264 q 875 771 1007 639 q 556 903 743 903 m 1371 833 q 1320 710 1371 761 q 1197 660 1269 660 l 1197 694 q 1295 735 1254 694 q 1336 833 1336 776 l 1336 1146 l 1371 1146 l 1371 833 z "},"Ƨ":{"ha":972,"x_min":69,"x_max":921,"o":"m 156 71 q 432 -49 268 -37 q 471 -50 451 -50 q 801 61 661 -50 q 921 208 882 135 l 889 224 q 778 88 854 156 q 474 -15 649 -15 q 435 -14 454 -15 q 181 96 285 -4 q 114 207 132 140 q 104 274 104 240 q 138 393 104 335 q 286 504 189 479 l 621 594 q 810 726 746 628 q 853 868 853 792 q 842 950 853 907 q 697 1140 808 1075 q 546 1188 624 1182 q 493 1190 519 1190 q 249 1129 365 1190 q 108 1010 174 1085 l 138 990 q 267 1099 197 1060 q 493 1156 376 1156 q 544 1153 518 1156 q 679 1110 614 1147 q 808 940 779 1051 q 819 867 819 901 q 781 744 819 800 q 613 628 724 658 l 276 539 q 107 410 165 508 q 69 274 69 344 q 81 199 69 238 q 154 69 100 121 l 156 71 z "},"ƨ":{"ha":799,"x_min":68,"x_max":708,"o":"m 256 450 q 101 339 150 421 q 68 218 68 283 q 75 158 68 189 q 185 4 99 57 q 324 -43 250 -32 q 403 -49 364 -49 q 701 33 560 -49 q 708 38 706 36 l 688 67 q 682 61 685 64 q 400 -12 549 -12 q 328 -8 365 -12 q 201 33 265 -1 q 110 167 129 79 q 103 219 103 194 q 131 321 103 274 q 265 417 172 389 l 500 472 l 500 471 q 665 581 614 503 q 703 703 703 635 q 697 758 703 729 q 601 899 674 849 q 411 951 528 949 l 401 951 q 82 857 219 951 q 76 851 81 854 l 103 826 q 106 833 103 829 q 400 917 233 917 l 411 917 q 581 870 518 914 q 664 751 644 826 q 669 701 669 725 q 636 599 669 644 q 493 504 590 533 l 493 506 l 256 450 z "},"Ư":{"ha":1111,"x_min":104,"x_max":1408,"o":"m 104 451 l 104 1146 l 139 1146 l 139 451 q 261 157 139 279 q 556 35 383 35 q 850 157 728 35 q 972 451 972 279 l 972 1146 l 1007 1146 l 1007 451 q 875 132 1007 264 q 556 0 743 0 q 236 132 368 0 q 104 451 104 264 m 1408 1076 q 1358 953 1408 1004 q 1235 903 1307 903 l 1235 938 q 1333 978 1292 938 q 1374 1076 1374 1019 l 1374 1389 l 1408 1389 l 1408 1076 z "},"ư":{"ha":1285,"x_min":104,"x_max":1315,"o":"m 986 -1 l 951 -1 l 951 197 q 875 96 921 143 q 556 -36 743 -36 q 236 96 368 -36 q 104 415 104 228 l 104 903 l 139 903 l 139 415 q 261 121 139 243 q 556 -1 383 -1 q 850 121 728 -1 q 949 276 919 190 l 951 276 l 951 903 l 986 903 l 986 -1 m 1315 833 q 1265 710 1315 761 q 1142 660 1214 660 l 1142 694 q 1240 735 1199 694 q 1281 833 1281 776 l 1281 1146 l 1315 1146 l 1315 833 z "},"Ƶ":{"ha":903,"x_min":36,"x_max":861,"o":"m 440 590 l 818 1111 l 36 1111 l 36 1146 l 861 1146 l 861 1111 l 483 590 l 640 590 l 640 556 l 457 556 l 79 35 l 861 35 l 861 0 l 36 0 l 36 35 l 414 556 l 258 556 l 258 590 l 440 590 z "},"ƶ":{"ha":833,"x_min":36,"x_max":800,"o":"m 410 469 l 753 868 l 36 868 l 36 903 l 800 903 l 800 868 l 457 469 l 610 469 l 610 435 l 428 435 l 83 35 l 800 35 l 800 0 l 36 0 l 36 35 l 381 435 l 228 435 l 228 469 l 410 469 z "},"Ǆ":{"ha":2153,"x_min":139,"x_max":2111,"o":"m 174 1111 l 174 33 l 589 33 l 589 35 q 969 193 813 35 q 1126 572 1126 350 q 969 954 1126 796 q 589 1111 813 1111 l 174 1111 m 139 1146 l 589 1146 q 993 978 826 1146 q 1161 572 1161 810 q 993 168 1161 336 q 590 0 826 0 l 590 -1 l 139 -1 l 139 1146 m 2068 1111 l 1286 1111 l 1286 1146 l 2111 1146 l 2111 1111 l 1329 35 l 2111 35 l 2111 0 l 1286 0 l 1286 35 l 2068 1111 z "},"ǅ":{"ha":2083,"x_min":139,"x_max":2050,"o":"m 174 1111 l 174 33 l 589 33 l 589 35 q 969 193 813 35 q 1126 572 1126 350 q 969 954 1126 796 q 589 1111 813 1111 l 174 1111 m 139 1146 l 589 1146 q 993 978 826 1146 q 1161 572 1161 810 q 993 168 1161 336 q 590 0 826 0 l 590 -1 l 139 -1 l 139 1146 m 2003 868 l 1286 868 l 1286 903 l 2050 903 l 2050 868 l 1333 35 l 2050 35 l 2050 0 l 1286 0 l 1286 35 l 2003 868 z "},"ǆ":{"ha":1979,"x_min":71,"x_max":1946,"o":"m 974 274 q 876 132 940 196 q 557 0 744 0 q 238 132 369 0 q 106 451 106 264 q 238 771 106 639 q 557 903 369 903 q 876 771 744 903 q 974 629 940 707 l 974 274 m 1008 1146 l 974 1146 l 974 704 q 900 796 943 753 q 557 938 758 938 q 213 795 356 938 q 71 451 71 653 q 213 108 71 250 q 557 -35 356 -35 q 900 108 758 -35 q 974 199 943 151 l 974 0 l 1008 0 l 1008 1146 m 1899 868 l 1182 868 l 1182 903 l 1946 903 l 1946 868 l 1229 35 l 1946 35 l 1946 0 l 1182 0 l 1182 35 l 1899 868 z "},"Ǉ":{"ha":1181,"x_min":139,"x_max":1076,"o":"m 625 35 q 921 157 799 35 q 1042 451 1042 279 l 1042 1146 l 1076 1146 l 1076 451 q 944 132 1076 264 q 625 0 813 0 l 139 0 l 139 1146 l 174 1146 l 174 35 l 625 35 z "},"ǈ":{"ha":1076,"x_min":139,"x_max":938,"o":"m 139 1146 l 174 1146 l 174 35 l 799 35 l 799 0 l 139 0 l 139 1146 m 938 1215 l 938 1111 l 903 1111 l 903 1215 l 938 1215 m 903 0 l 903 903 l 938 903 l 938 0 q 806 -319 938 -187 q 486 -451 674 -451 l 486 -417 q 782 -294 660 -417 q 903 0 903 -172 z "},"ǉ":{"ha":625,"x_min":35,"x_max":486,"o":"m 174 1146 l 174 0 l 139 0 l 139 1146 l 174 1146 m 486 1215 l 486 1111 l 451 1111 l 451 1215 l 486 1215 m 451 0 l 451 903 l 486 903 l 486 0 q 354 -319 486 -187 q 35 -451 222 -451 l 35 -417 q 331 -294 208 -417 q 451 0 451 -172 z "},"Ǌ":{"ha":1682,"x_min":139,"x_max":1578,"o":"m 174 1099 l 174 0 l 139 0 l 139 1146 l 183 1146 l 981 47 l 981 1146 l 1015 1146 l 1015 0 l 971 0 l 174 1099 m 1543 451 l 1543 1146 l 1578 1146 l 1578 451 q 1446 132 1578 264 q 1126 0 1314 0 l 1126 35 q 1422 157 1300 35 q 1543 451 1543 279 z "},"ǋ":{"ha":1474,"x_min":139,"x_max":1335,"o":"m 174 1099 l 174 0 l 139 0 l 139 1146 l 183 1146 l 981 47 l 981 1146 l 1015 1146 l 1015 0 l 971 0 l 174 1099 m 1335 1215 l 1335 1111 l 1300 1111 l 1300 1215 l 1335 1215 m 1300 0 l 1300 903 l 1335 903 l 1335 0 q 1203 -319 1335 -187 q 883 -451 1071 -451 l 883 -417 q 1179 -294 1057 -417 q 1300 0 1300 -172 z "},"ǌ":{"ha":1440,"x_min":139,"x_max":1301,"o":"m 139 904 l 174 904 l 174 706 q 250 807 204 760 q 569 939 382 939 q 889 807 757 939 q 1021 488 1021 675 l 1021 0 l 986 0 l 986 488 q 864 782 986 660 q 569 904 742 904 q 275 782 397 904 q 176 626 206 713 l 174 626 l 174 0 l 139 0 l 139 904 m 1301 1215 l 1301 1111 l 1267 1111 l 1267 1215 l 1301 1215 m 1267 0 l 1267 903 l 1301 903 l 1301 0 q 1169 -319 1301 -187 q 850 -451 1038 -451 l 850 -417 q 1146 -294 1024 -417 q 1267 0 1267 -172 z "},"Ǎ":{"ha":1146,"x_min":15,"x_max":1129,"o":"m 986 222 l 572 1110 l 158 222 l 986 222 m 594 1146 l 1129 0 l 1090 0 l 1003 188 l 142 188 l 54 0 l 15 0 l 550 1146 l 594 1146 z "},"ǎ":{"ha":1146,"x_min":69,"x_max":1007,"o":"m 1007 0 l 972 0 l 972 199 q 900 108 942 150 q 556 -35 757 -35 q 212 108 354 -35 q 69 451 69 250 q 212 795 69 653 q 556 938 354 938 q 900 796 757 938 q 972 704 942 753 l 972 903 l 1007 903 l 1007 0 m 972 274 l 972 629 q 875 771 939 707 q 556 903 743 903 q 236 771 368 903 q 104 451 104 639 q 236 132 104 264 q 556 0 368 0 q 875 132 743 0 q 972 274 939 196 z "},"Ǐ":{"ha":313,"x_min":-49,"x_max":361,"o":"m 174 1146 l 174 0 l 139 0 l 139 1146 l 174 1146 z "},"ǐ":{"ha":313,"x_min":-49,"x_max":361,"o":"m 174 903 l 174 0 l 139 0 l 139 903 l 174 903 z "},"Ǒ":{"ha":1354,"x_min":69,"x_max":1285,"o":"m 678 1181 q 1107 1003 929 1181 q 1285 574 1285 825 q 1107 143 1285 321 q 678 -35 929 -35 q 247 143 425 -35 q 69 574 69 321 q 247 1003 69 825 q 678 1181 425 1181 m 678 1146 q 272 978 440 1146 q 104 574 104 810 q 272 168 104 336 q 678 0 440 0 q 1082 168 914 0 q 1250 574 1250 336 q 1082 978 1250 810 q 678 1146 914 1146 z "},"ǒ":{"ha":1111,"x_min":69,"x_max":1042,"o":"m 556 938 q 899 795 757 938 q 1042 451 1042 653 q 899 108 1042 250 q 556 -35 757 -35 q 212 108 354 -35 q 69 451 69 250 q 212 795 69 653 q 556 938 354 938 m 556 903 q 236 771 368 903 q 104 451 104 639 q 236 132 104 264 q 556 0 368 0 q 875 132 743 0 q 1007 451 1007 264 q 875 771 1007 639 q 556 903 743 903 z "},"Ǔ":{"ha":1111,"x_min":104,"x_max":1007,"o":"m 104 451 l 104 1146 l 139 1146 l 139 451 q 261 157 139 279 q 556 35 383 35 q 850 157 728 35 q 972 451 972 279 l 972 1146 l 1007 1146 l 1007 451 q 875 132 1007 264 q 556 0 743 0 q 236 132 368 0 q 104 451 104 264 z "},"ǔ":{"ha":1181,"x_min":139,"x_max":1021,"o":"m 1021 -1 l 986 -1 l 986 197 q 910 96 956 143 q 590 -36 778 -36 q 271 96 403 -36 q 139 415 139 228 l 139 903 l 174 903 l 174 415 q 296 121 174 243 q 590 -1 418 -1 q 885 121 763 -1 q 983 276 954 190 l 986 276 l 986 903 l 1021 903 l 1021 -1 z "},"ǝ":{"ha":972,"x_min":69,"x_max":904,"o":"m 733 750 q 418 878 603 878 q 106 753 235 878 l 82 778 q 418 913 222 913 q 762 770 619 913 q 904 426 904 628 q 762 83 904 225 q 418 -60 619 -60 q 74 82 217 -60 q 69 88 72 85 l 94 111 l 733 750 m 119 88 q 418 -25 244 -25 q 738 107 606 -25 q 869 426 869 239 q 757 725 869 600 l 119 88 z "},"Ǣ":{"ha":1547,"x_min":33,"x_max":1442,"o":"m 590 1111 l 176 222 l 782 222 l 782 1111 l 590 1111 m 160 188 l 72 0 l 33 0 l 568 1146 l 1442 1146 l 1442 1111 l 817 1111 l 817 590 l 1303 590 l 1303 556 l 817 556 l 817 35 l 1442 35 l 1442 0 l 782 0 l 782 188 l 160 188 m 956 1319 l 956 1285 l 608 1285 l 608 1319 l 956 1319 z "},"ǣ":{"ha":1667,"x_min":69,"x_max":1579,"o":"m 1529 788 q 1231 900 1404 900 q 911 768 1043 900 q 779 449 779 636 q 892 150 779 276 l 1529 788 m 868 125 q 744 449 744 261 q 871 775 744 638 q 556 903 740 903 q 236 771 368 903 q 104 451 104 639 q 236 132 104 264 q 556 0 368 0 q 868 125 739 0 m 903 808 q 1231 935 1040 935 q 1575 793 1432 935 q 1579 788 1576 790 l 1554 764 l 915 125 q 1231 -3 1046 -3 q 1543 122 1414 -3 l 1567 97 q 1231 -37 1426 -37 q 890 101 1032 -37 l 892 100 q 556 -35 751 -35 q 212 108 354 -35 q 69 451 69 250 q 212 795 69 653 q 556 938 354 938 q 868 825 735 938 l 868 903 l 903 903 l 903 808 m 999 1076 l 999 1042 l 651 1042 l 651 1076 l 999 1076 z "},"Ǧ":{"ha":1215,"x_min":69,"x_max":1107,"o":"m 1107 143 q 678 -35 929 -35 q 247 143 425 -35 q 69 574 69 321 q 247 1003 69 825 q 678 1181 425 1181 q 1107 1003 929 1181 l 1082 978 q 678 1146 914 1146 q 272 978 440 1146 q 104 574 104 810 q 272 168 104 336 q 678 0 440 0 q 1072 158 907 0 l 1072 556 l 656 556 l 656 590 l 1107 590 l 1107 143 z "},"ǧ":{"ha":1146,"x_min":69,"x_max":1007,"o":"m 1007 0 q 875 -319 1007 -187 q 556 -451 743 -451 l 556 -417 q 851 -294 729 -417 q 972 0 972 -172 l 972 199 q 900 108 942 150 q 556 -35 757 -35 q 212 108 354 -35 q 69 451 69 250 q 212 795 69 653 q 556 938 354 938 q 900 796 757 938 q 972 704 942 753 l 972 903 l 1007 903 l 1007 0 m 972 274 l 972 629 q 875 771 939 707 q 556 903 743 903 q 236 771 368 903 q 104 451 104 639 q 236 132 104 264 q 556 0 368 0 q 875 132 743 0 q 972 274 939 196 z "},"Ǩ":{"ha":868,"x_min":139,"x_max":772,"o":"m 174 1146 l 174 0 l 139 0 l 139 1146 l 174 1146 m 357 574 l 772 0 l 728 0 l 313 574 l 728 1146 l 772 1146 l 357 574 z "},"ǩ":{"ha":764,"x_min":139,"x_max":685,"o":"m 174 1146 l 174 0 l 139 0 l 139 1146 l 174 1146 m 357 451 l 685 0 l 642 0 l 314 451 l 642 903 l 685 903 l 357 451 z "},"Ǫ":{"ha":1354,"x_min":69,"x_max":1285,"o":"m 678 1146 q 272 978 440 1146 q 104 574 104 810 q 272 168 104 336 q 678 0 440 0 q 1082 168 914 0 q 1250 574 1250 336 q 1082 978 1250 810 q 678 1146 914 1146 m 596 -31 q 247 143 396 -6 q 69 574 69 321 q 247 1003 69 825 q 678 1181 425 1181 q 1107 1003 929 1181 q 1285 574 1285 825 q 1107 143 1285 321 q 694 -35 935 -29 q 597 -76 638 -35 q 556 -174 556 -117 q 597 -272 556 -231 q 694 -312 638 -312 l 833 -312 l 833 -347 l 694 -347 q 572 -297 622 -347 q 521 -174 521 -246 q 572 -50 521 -101 q 596 -31 583 -39 z "},"ǫ":{"ha":1111,"x_min":69,"x_max":1042,"o":"m 556 903 q 236 771 368 903 q 104 451 104 639 q 236 132 104 264 q 556 0 368 0 q 875 132 743 0 q 1007 451 1007 264 q 875 771 1007 639 q 556 903 743 903 m 490 -31 q 213 108 331 -11 q 69 451 69 250 q 212 795 69 653 q 556 938 354 938 q 899 795 757 938 q 1042 451 1042 653 q 900 108 1042 250 q 590 -33 769 -22 l 590 -35 q 492 -76 533 -35 q 451 -174 451 -117 q 492 -272 451 -231 q 590 -312 533 -312 l 729 -312 l 729 -347 l 590 -347 q 467 -297 518 -347 q 417 -174 417 -246 q 468 -50 417 -101 q 490 -31 479 -39 z "},"Ǭ":{"ha":1354,"x_min":69,"x_max":1285,"o":"m 678 1146 q 272 978 440 1146 q 104 574 104 810 q 272 168 104 336 q 678 0 440 0 q 1082 168 914 0 q 1250 574 1250 336 q 1082 978 1250 810 q 678 1146 914 1146 m 596 -31 q 247 143 396 -6 q 69 574 69 321 q 247 1003 69 825 q 678 1181 425 1181 q 1107 1003 929 1181 q 1285 574 1285 825 q 1107 143 1285 321 q 694 -35 935 -29 q 597 -76 638 -35 q 556 -174 556 -117 q 597 -272 556 -231 q 694 -312 638 -312 l 833 -312 l 833 -347 l 694 -347 q 572 -297 622 -347 q 521 -174 521 -246 q 572 -50 521 -101 q 596 -31 583 -39 m 851 1354 l 851 1319 l 504 1319 l 504 1354 l 851 1354 z "},"ǭ":{"ha":1111,"x_min":69,"x_max":1042,"o":"m 556 903 q 236 771 368 903 q 104 451 104 639 q 236 132 104 264 q 556 0 368 0 q 875 132 743 0 q 1007 451 1007 264 q 875 771 1007 639 q 556 903 743 903 m 490 -31 q 213 108 331 -11 q 69 451 69 250 q 212 795 69 653 q 556 938 354 938 q 899 795 757 938 q 1042 451 1042 653 q 900 108 1042 250 q 590 -33 769 -22 l 590 -35 q 492 -76 533 -35 q 451 -174 451 -117 q 492 -272 451 -231 q 590 -312 533 -312 l 729 -312 l 729 -347 l 590 -347 q 467 -297 518 -347 q 417 -174 417 -246 q 468 -50 417 -101 q 490 -31 479 -39 m 729 1111 l 729 1076 l 382 1076 l 382 1111 l 729 1111 z "},"ǰ":{"ha":313,"x_min":-278,"x_max":361,"o":"m 139 0 l 139 903 l 174 903 l 174 0 q 42 -319 174 -187 q -278 -451 -90 -451 l -278 -417 q 18 -294 -104 -417 q 139 0 139 -172 z "},"Ǳ":{"ha":2118,"x_min":139,"x_max":2039,"o":"m 174 1111 l 174 33 l 589 33 l 589 35 q 969 193 813 35 q 1126 572 1126 350 q 969 954 1126 796 q 589 1111 813 1111 l 174 1111 m 139 1146 l 589 1146 q 993 978 826 1146 q 1161 572 1161 810 q 993 168 1161 336 q 590 0 826 0 l 590 -1 l 139 -1 l 139 1146 m 1996 1111 l 1214 1111 l 1214 1146 l 2039 1146 l 2039 1111 l 1257 35 l 2039 35 l 2039 0 l 1214 0 l 1214 35 l 1996 1111 z "},"ǲ":{"ha":2083,"x_min":139,"x_max":2050,"o":"m 174 1111 l 174 33 l 589 33 l 589 35 q 969 193 813 35 q 1126 572 1126 350 q 969 954 1126 796 q 589 1111 813 1111 l 174 1111 m 139 1146 l 589 1146 q 993 978 826 1146 q 1161 572 1161 810 q 993 168 1161 336 q 590 0 826 0 l 590 -1 l 139 -1 l 139 1146 m 2003 868 l 1286 868 l 1286 903 l 2050 903 l 2050 868 l 1333 35 l 2050 35 l 2050 0 l 1286 0 l 1286 35 l 2003 868 z "},"ǳ":{"ha":1979,"x_min":71,"x_max":1946,"o":"m 974 274 q 876 132 940 196 q 557 0 744 0 q 238 132 369 0 q 106 451 106 264 q 238 771 106 639 q 557 903 369 903 q 876 771 744 903 q 974 629 940 707 l 974 274 m 1008 1146 l 974 1146 l 974 704 q 900 796 943 753 q 557 938 758 938 q 213 795 356 938 q 71 451 71 653 q 213 108 71 250 q 557 -35 356 -35 q 900 108 758 -35 q 974 199 943 151 l 974 0 l 1008 0 l 1008 1146 m 1899 868 l 1182 868 l 1182 903 l 1946 903 l 1946 868 l 1229 35 l 1946 35 l 1946 0 l 1182 0 l 1182 35 l 1899 868 z "},"Ǵ":{"ha":1215,"x_min":69,"x_max":1107,"o":"m 1107 143 q 678 -35 929 -35 q 247 143 425 -35 q 69 574 69 321 q 247 1003 69 825 q 678 1181 425 1181 q 1107 1003 929 1181 l 1082 978 q 678 1146 914 1146 q 272 978 440 1146 q 104 574 104 810 q 272 168 104 336 q 678 0 440 0 q 1072 158 907 0 l 1072 556 l 656 556 l 656 590 l 1107 590 l 1107 143 m 592 1319 l 657 1563 l 694 1563 l 629 1319 l 592 1319 z "},"ǵ":{"ha":1146,"x_min":69,"x_max":1007,"o":"m 1007 0 q 875 -319 1007 -187 q 556 -451 743 -451 l 556 -417 q 851 -294 729 -417 q 972 0 972 -172 l 972 199 q 900 108 942 150 q 556 -35 757 -35 q 212 108 354 -35 q 69 451 69 250 q 212 795 69 653 q 556 938 354 938 q 900 796 757 938 q 972 704 942 753 l 972 903 l 1007 903 l 1007 0 m 972 274 l 972 629 q 875 771 939 707 q 556 903 743 903 q 236 771 368 903 q 104 451 104 639 q 236 132 104 264 q 556 0 368 0 q 875 132 743 0 q 972 274 939 196 m 557 1076 l 622 1319 l 660 1319 l 594 1076 l 557 1076 z "},"Ǹ":{"ha":1156,"x_min":139,"x_max":1015,"o":"m 174 1099 l 174 0 l 139 0 l 139 1146 l 183 1146 l 981 47 l 981 1146 l 1015 1146 l 1015 0 l 971 0 l 174 1099 m 611 1319 l 546 1563 l 508 1563 l 574 1319 l 611 1319 z "},"ǹ":{"ha":1128,"x_min":139,"x_max":1021,"o":"m 139 904 l 174 904 l 174 706 q 250 807 204 760 q 569 939 382 939 q 889 807 757 939 q 1021 488 1021 675 l 1021 0 l 986 0 l 986 488 q 864 782 986 660 q 569 904 742 904 q 275 782 397 904 q 176 626 206 713 l 174 626 l 174 0 l 139 0 l 139 904 m 554 1076 l 489 1319 l 451 1319 l 517 1076 l 554 1076 z "},"Ǻ":{"ha":1146,"x_min":15,"x_max":1129,"o":"m 986 222 l 572 1110 l 158 222 l 986 222 m 572 1321 q 510 1295 536 1321 q 485 1235 485 1269 q 510 1173 485 1199 q 572 1147 536 1147 q 633 1173 607 1147 q 658 1235 658 1199 q 633 1295 658 1269 q 572 1321 607 1321 m 599 1353 q 658 1321 632 1346 q 693 1235 693 1285 q 658 1149 693 1183 q 608 1118 636 1126 l 1129 0 l 1090 0 l 1003 188 l 142 188 l 54 0 l 15 0 l 536 1117 q 486 1149 508 1125 q 450 1235 450 1183 q 486 1321 450 1285 q 561 1356 517 1351 l 621 1576 l 658 1576 l 599 1353 z "},"ǻ":{"ha":1146,"x_min":69,"x_max":1007,"o":"m 972 274 l 972 629 q 875 771 939 707 q 556 903 743 903 q 236 771 368 903 q 104 451 104 639 q 236 132 104 264 q 556 0 368 0 q 875 132 743 0 q 972 274 939 196 m 539 1250 q 477 1224 503 1250 q 451 1164 451 1199 q 477 1102 451 1128 q 539 1076 503 1076 q 599 1102 574 1076 q 625 1164 625 1128 q 599 1224 625 1199 q 539 1250 574 1250 m 1007 0 l 972 0 l 972 199 q 900 108 942 150 q 556 -35 757 -35 q 212 108 354 -35 q 69 451 69 250 q 212 795 69 653 q 556 938 354 938 q 900 796 757 938 q 972 704 942 753 l 972 903 l 1007 903 l 1007 0 m 565 1282 q 625 1250 599 1275 q 660 1164 660 1214 q 624 1077 660 1113 q 539 1042 589 1042 q 452 1077 488 1042 q 417 1164 417 1113 q 453 1250 417 1214 q 528 1285 483 1281 l 586 1500 l 624 1500 l 565 1282 z "},"Ǽ":{"ha":1493,"x_min":15,"x_max":1424,"o":"m 572 1111 l 158 222 l 764 222 l 764 1111 l 572 1111 m 142 188 l 54 0 l 15 0 l 550 1146 l 1424 1146 l 1424 1111 l 799 1111 l 799 590 l 1285 590 l 1285 556 l 799 556 l 799 35 l 1424 35 l 1424 0 l 764 0 l 764 188 l 142 188 m 694 1285 l 760 1528 l 797 1528 l 732 1285 l 694 1285 z "},"ǽ":{"ha":1667,"x_min":69,"x_max":1579,"o":"m 1529 788 q 1231 900 1404 900 q 911 768 1043 900 q 779 449 779 636 q 892 150 779 276 l 1529 788 m 868 125 q 744 449 744 261 q 871 775 744 638 q 556 903 740 903 q 236 771 368 903 q 104 451 104 639 q 236 132 104 264 q 556 0 368 0 q 868 125 739 0 m 903 808 q 1231 935 1040 935 q 1575 793 1432 935 q 1579 788 1576 790 l 1554 764 l 915 125 q 1231 -3 1046 -3 q 1543 122 1414 -3 l 1567 97 q 1231 -37 1426 -37 q 890 101 1032 -37 l 892 100 q 556 -35 751 -35 q 212 108 354 -35 q 69 451 69 250 q 212 795 69 653 q 556 938 354 938 q 868 825 735 938 l 868 903 l 903 903 l 903 808 m 790 1076 l 856 1319 l 893 1319 l 828 1076 l 790 1076 z "},"Ǿ":{"ha":1354,"x_min":69,"x_max":1285,"o":"m 546 14 q 678 0 608 0 q 1082 168 914 0 q 1250 574 1250 336 q 1082 978 1250 810 q 843 1124 976 1083 l 546 14 m 511 24 l 808 1132 q 678 1146 746 1146 q 272 978 440 1146 q 104 574 104 810 q 272 168 104 336 q 511 24 378 63 m 851 1157 q 1107 1003 994 1115 q 1285 574 1285 825 q 1107 143 1285 321 q 678 -35 929 -35 q 536 -19 604 -35 l 504 -139 l 468 -139 l 503 -11 q 247 143 360 31 q 69 574 69 321 q 247 1003 69 825 q 678 1181 425 1181 q 818 1165 751 1181 l 850 1285 l 886 1285 l 851 1157 m 643 1319 l 708 1563 l 746 1563 l 681 1319 l 643 1319 z "},"ǿ":{"ha":1111,"x_min":69,"x_max":1042,"o":"m 656 893 q 556 903 608 903 q 236 771 368 903 q 104 451 104 639 q 236 132 104 264 q 421 19 318 50 l 656 893 m 456 10 q 556 0 503 0 q 875 132 743 0 q 1007 451 1007 264 q 875 771 1007 639 q 690 883 793 853 l 456 10 m 699 918 q 900 796 811 883 q 1042 451 1042 653 q 899 108 1042 250 q 556 -35 757 -35 q 446 -24 499 -35 l 415 -139 l 379 -139 l 413 -15 q 213 108 300 19 q 69 451 69 250 q 212 795 69 653 q 556 938 354 938 q 665 926 613 938 l 696 1042 l 732 1042 l 699 918 m 521 1076 l 586 1319 l 624 1319 l 558 1076 l 521 1076 z "},"Ȁ":{"ha":1146,"x_min":15,"x_max":1129,"o":"m 986 222 l 572 1110 l 158 222 l 986 222 m 594 1146 l 1129 0 l 1090 0 l 1003 188 l 142 188 l 54 0 l 15 0 l 550 1146 l 594 1146 z "},"ȁ":{"ha":1146,"x_min":69,"x_max":1007,"o":"m 1007 0 l 972 0 l 972 199 q 900 108 942 150 q 556 -35 757 -35 q 212 108 354 -35 q 69 451 69 250 q 212 795 69 653 q 556 938 354 938 q 900 796 757 938 q 972 704 942 753 l 972 903 l 1007 903 l 1007 0 m 972 274 l 972 629 q 875 771 939 707 q 556 903 743 903 q 236 771 368 903 q 104 451 104 639 q 236 132 104 264 q 556 0 368 0 q 875 132 743 0 q 972 274 939 196 z "},"Ȃ":{"ha":1146,"x_min":15,"x_max":1129,"o":"m 986 222 l 572 1110 l 158 222 l 986 222 m 594 1146 l 1129 0 l 1090 0 l 1003 188 l 142 188 l 54 0 l 15 0 l 550 1146 l 594 1146 z "},"ȃ":{"ha":1146,"x_min":69,"x_max":1007,"o":"m 1007 0 l 972 0 l 972 199 q 900 108 942 150 q 556 -35 757 -35 q 212 108 354 -35 q 69 451 69 250 q 212 795 69 653 q 556 938 354 938 q 900 796 757 938 q 972 704 942 753 l 972 903 l 1007 903 l 1007 0 m 972 274 l 972 629 q 875 771 939 707 q 556 903 743 903 q 236 771 368 903 q 104 451 104 639 q 236 132 104 264 q 556 0 368 0 q 875 132 743 0 q 972 274 939 196 z "},"Ȅ":{"ha":868,"x_min":139,"x_max":799,"o":"m 139 1146 l 799 1146 l 799 1111 l 174 1111 l 174 590 l 660 590 l 660 556 l 174 556 l 174 35 l 799 35 l 799 0 l 139 0 l 139 1146 z "},"ȅ":{"ha":972,"x_min":69,"x_max":904,"o":"m 240 128 q 556 0 371 0 q 868 125 739 0 l 892 100 q 556 -35 751 -35 q 212 108 354 -35 q 69 451 69 250 q 212 795 69 653 q 556 938 354 938 q 900 796 757 938 q 904 790 901 793 l 879 767 l 240 128 m 854 790 q 556 903 729 903 q 236 771 368 903 q 104 451 104 639 q 217 153 104 278 l 854 790 z "},"Ȇ":{"ha":868,"x_min":139,"x_max":799,"o":"m 139 1146 l 799 1146 l 799 1111 l 174 1111 l 174 590 l 660 590 l 660 556 l 174 556 l 174 35 l 799 35 l 799 0 l 139 0 l 139 1146 z "},"ȇ":{"ha":972,"x_min":69,"x_max":904,"o":"m 240 128 q 556 0 371 0 q 868 125 739 0 l 892 100 q 556 -35 751 -35 q 212 108 354 -35 q 69 451 69 250 q 212 795 69 653 q 556 938 354 938 q 900 796 757 938 q 904 790 901 793 l 879 767 l 240 128 m 854 790 q 556 903 729 903 q 236 771 368 903 q 104 451 104 639 q 217 153 104 278 l 854 790 z "},"Ȉ":{"ha":313,"x_min":-29,"x_max":244,"o":"m 174 1146 l 174 0 l 139 0 l 139 1146 l 174 1146 z "},"ȉ":{"ha":313,"x_min":-31,"x_max":243,"o":"m 174 903 l 174 0 l 139 0 l 139 903 l 174 903 z "},"Ȋ":{"ha":313,"x_min":-56,"x_max":363,"o":"m 174 1146 l 174 0 l 139 0 l 139 1146 l 174 1146 z "},"ȋ":{"ha":313,"x_min":-53,"x_max":365,"o":"m 174 903 l 174 0 l 139 0 l 139 903 l 174 903 z "},"Ȍ":{"ha":1354,"x_min":69,"x_max":1285,"o":"m 678 1181 q 1107 1003 929 1181 q 1285 574 1285 825 q 1107 143 1285 321 q 678 -35 929 -35 q 247 143 425 -35 q 69 574 69 321 q 247 1003 69 825 q 678 1181 425 1181 m 678 1146 q 272 978 440 1146 q 104 574 104 810 q 272 168 104 336 q 678 0 440 0 q 1082 168 914 0 q 1250 574 1250 336 q 1082 978 1250 810 q 678 1146 914 1146 z "},"ȍ":{"ha":1111,"x_min":69,"x_max":1042,"o":"m 556 938 q 899 795 757 938 q 1042 451 1042 653 q 899 108 1042 250 q 556 -35 757 -35 q 212 108 354 -35 q 69 451 69 250 q 212 795 69 653 q 556 938 354 938 m 556 903 q 236 771 368 903 q 104 451 104 639 q 236 132 104 264 q 556 0 368 0 q 875 132 743 0 q 1007 451 1007 264 q 875 771 1007 639 q 556 903 743 903 z "},"Ȏ":{"ha":1354,"x_min":69,"x_max":1285,"o":"m 678 1181 q 1107 1003 929 1181 q 1285 574 1285 825 q 1107 143 1285 321 q 678 -35 929 -35 q 247 143 425 -35 q 69 574 69 321 q 247 1003 69 825 q 678 1181 425 1181 m 678 1146 q 272 978 440 1146 q 104 574 104 810 q 272 168 104 336 q 678 0 440 0 q 1082 168 914 0 q 1250 574 1250 336 q 1082 978 1250 810 q 678 1146 914 1146 z "},"ȏ":{"ha":1111,"x_min":69,"x_max":1042,"o":"m 556 938 q 899 795 757 938 q 1042 451 1042 653 q 899 108 1042 250 q 556 -35 757 -35 q 212 108 354 -35 q 69 451 69 250 q 212 795 69 653 q 556 938 354 938 m 556 903 q 236 771 368 903 q 104 451 104 639 q 236 132 104 264 q 556 0 368 0 q 875 132 743 0 q 1007 451 1007 264 q 875 771 1007 639 q 556 903 743 903 z "},"Ȑ":{"ha":1076,"x_min":139,"x_max":972,"o":"m 174 1111 l 174 347 l 556 347 q 826 459 714 347 q 938 729 938 571 q 826 999 938 888 q 556 1111 714 1111 l 174 1111 m 139 1146 l 556 1146 q 850 1024 728 1146 q 972 729 972 901 q 850 435 972 557 q 725 347 793 378 l 925 0 l 883 0 l 692 333 q 556 313 628 313 l 174 313 l 174 0 l 139 0 l 139 1146 z "},"ȑ":{"ha":660,"x_min":174,"x_max":625,"o":"m 208 453 l 208 0 l 174 0 l 174 903 l 208 903 l 208 629 q 306 771 242 707 q 625 903 438 903 l 625 868 q 329 746 451 868 q 208 453 208 624 z "},"Ȓ":{"ha":1076,"x_min":139,"x_max":972,"o":"m 174 1111 l 174 347 l 556 347 q 826 459 714 347 q 938 729 938 571 q 826 999 938 888 q 556 1111 714 1111 l 174 1111 m 139 1146 l 556 1146 q 850 1024 728 1146 q 972 729 972 901 q 850 435 972 557 q 725 347 793 378 l 925 0 l 883 0 l 692 333 q 556 313 628 313 l 174 313 l 174 0 l 139 0 l 139 1146 z "},"ȓ":{"ha":660,"x_min":174,"x_max":625,"o":"m 208 453 l 208 0 l 174 0 l 174 903 l 208 903 l 208 629 q 306 771 242 707 q 625 903 438 903 l 625 868 q 329 746 451 868 q 208 453 208 624 z "},"Ȕ":{"ha":1111,"x_min":104,"x_max":1007,"o":"m 104 451 l 104 1146 l 139 1146 l 139 451 q 261 157 139 279 q 556 35 383 35 q 850 157 728 35 q 972 451 972 279 l 972 1146 l 1007 1146 l 1007 451 q 875 132 1007 264 q 556 0 743 0 q 236 132 368 0 q 104 451 104 264 z "},"ȕ":{"ha":1181,"x_min":139,"x_max":1021,"o":"m 1021 -1 l 986 -1 l 986 197 q 910 96 956 143 q 590 -36 778 -36 q 271 96 403 -36 q 139 415 139 228 l 139 903 l 174 903 l 174 415 q 296 121 174 243 q 590 -1 418 -1 q 885 121 763 -1 q 983 276 954 190 l 986 276 l 986 903 l 1021 903 l 1021 -1 z "},"Ȗ":{"ha":1111,"x_min":104,"x_max":1007,"o":"m 104 451 l 104 1146 l 139 1146 l 139 451 q 261 157 139 279 q 556 35 383 35 q 850 157 728 35 q 972 451 972 279 l 972 1146 l 1007 1146 l 1007 451 q 875 132 1007 264 q 556 0 743 0 q 236 132 368 0 q 104 451 104 264 z "},"ȗ":{"ha":1181,"x_min":139,"x_max":1021,"o":"m 1021 -1 l 986 -1 l 986 197 q 910 96 956 143 q 590 -36 778 -36 q 271 96 403 -36 q 139 415 139 228 l 139 903 l 174 903 l 174 415 q 296 121 174 243 q 590 -1 418 -1 q 885 121 763 -1 q 983 276 954 190 l 986 276 l 986 903 l 1021 903 l 1021 -1 z "},"Ș":{"ha":972,"x_min":49,"x_max":900,"o":"m 814 71 q 538 -49 701 -37 q 499 -50 518 -50 q 168 61 308 -50 q 49 208 88 135 l 81 224 q 192 88 115 156 q 496 -15 321 -15 q 535 -14 515 -15 q 789 96 685 -4 q 856 207 838 140 q 865 274 865 240 q 832 393 865 335 q 683 504 781 479 l 349 594 q 160 726 224 628 q 117 868 117 792 q 128 950 117 907 q 272 1140 161 1075 q 424 1188 346 1182 q 476 1190 450 1190 q 721 1129 604 1190 q 861 1010 796 1085 l 832 990 q 703 1099 772 1060 q 476 1156 593 1156 q 425 1153 451 1156 q 290 1110 356 1147 q 161 940 190 1051 q 150 867 150 901 q 189 744 150 800 q 357 628 246 658 l 693 539 q 863 410 804 508 q 900 274 900 344 q 889 199 900 238 q 815 69 869 121 l 814 71 z "},"ș":{"ha":868,"x_min":104,"x_max":744,"o":"m 557 450 q 711 339 663 421 q 744 218 744 283 q 738 158 744 189 q 628 4 714 57 q 489 -43 563 -32 q 410 -49 449 -49 q 111 33 253 -49 q 104 38 107 36 l 125 67 q 131 61 128 64 q 413 -12 264 -12 q 485 -8 447 -12 q 611 33 547 -1 q 703 167 683 79 q 710 219 710 194 q 682 321 710 274 q 547 417 640 389 l 313 472 l 313 471 q 147 581 199 503 q 110 703 110 635 q 115 758 110 729 q 212 899 139 849 q 401 951 285 949 l 411 951 q 731 857 593 951 q 736 851 732 854 l 710 826 q 707 833 710 829 q 413 917 579 917 l 401 917 q 231 870 294 914 q 149 751 168 826 q 143 701 143 725 q 176 599 143 644 q 319 504 222 533 l 319 506 l 557 450 z "},"Ț":{"ha":729,"x_min":0,"x_max":729,"o":"m 729 1146 l 729 1111 l 382 1111 l 382 0 l 347 0 l 347 1111 l 0 1111 l 0 1146 l 729 1146 z "},"ț":{"ha":382,"x_min":71,"x_max":381,"o":"m 140 1146 l 175 1146 l 175 903 l 381 903 l 381 868 l 175 868 l 175 0 l 140 0 l 140 1146 z "},"Ȟ":{"ha":1076,"x_min":139,"x_max":1076,"o":"m 174 556 l 174 0 l 139 0 l 139 1146 l 174 1146 l 174 590 l 1042 590 l 1042 1146 l 1076 1146 l 1076 0 l 1042 0 l 1042 556 l 174 556 z "},"ȟ":{"ha":1128,"x_min":139,"x_max":1021,"o":"m 139 1146 l 174 1146 l 174 706 q 250 807 204 760 q 569 939 382 939 q 889 807 757 939 q 1021 488 1021 675 l 1021 0 l 986 0 l 986 488 q 864 782 986 660 q 569 904 742 904 q 275 782 397 904 q 176 626 206 713 l 174 626 l 174 0 l 139 0 l 139 1146 z "},"Ƞ":{"ha":1128,"x_min":139,"x_max":1021,"o":"m 139 910 l 174 910 l 174 706 q 250 807 204 760 q 569 939 382 939 q 889 807 757 939 q 1021 488 1021 675 l 1021 -278 l 986 -278 l 986 488 q 864 782 986 660 q 569 904 742 904 q 275 782 397 904 q 176 626 206 713 l 174 626 l 174 0 l 139 0 l 139 910 z "},"Ȧ":{"ha":1146,"x_min":15,"x_max":1129,"o":"m 986 222 l 572 1110 l 158 222 l 986 222 m 594 1146 l 1129 0 l 1090 0 l 1003 188 l 142 188 l 54 0 l 15 0 l 550 1146 l 594 1146 m 589 1389 l 589 1285 l 554 1285 l 554 1389 l 589 1389 z "},"ȧ":{"ha":1146,"x_min":69,"x_max":1007,"o":"m 1007 0 l 972 0 l 972 199 q 900 108 942 150 q 556 -35 757 -35 q 212 108 354 -35 q 69 451 69 250 q 212 795 69 653 q 556 938 354 938 q 900 796 757 938 q 972 704 942 753 l 972 903 l 1007 903 l 1007 0 m 972 274 l 972 629 q 875 771 939 707 q 556 903 743 903 q 236 771 368 903 q 104 451 104 639 q 236 132 104 264 q 556 0 368 0 q 875 132 743 0 q 972 274 939 196 m 556 1181 l 556 1076 l 521 1076 l 521 1181 l 556 1181 z "},"Ȩ":{"ha":868,"x_min":139,"x_max":799,"o":"m 383 0 l 139 0 l 139 1146 l 799 1146 l 799 1111 l 174 1111 l 174 590 l 660 590 l 660 556 l 174 556 l 174 35 l 799 35 l 799 0 l 418 0 l 418 -139 l 453 -139 q 576 -190 525 -139 q 626 -312 626 -240 q 576 -435 626 -385 q 453 -486 525 -486 l 314 -486 l 314 -451 l 453 -451 q 551 -410 510 -451 q 592 -312 592 -369 q 551 -215 592 -256 q 453 -174 510 -174 l 383 -174 l 383 0 z "},"ȩ":{"ha":972,"x_min":69,"x_max":904,"o":"m 854 790 q 556 903 729 903 q 236 771 368 903 q 104 451 104 639 q 217 153 104 278 l 854 790 m 401 -11 q 213 108 296 24 q 69 451 69 250 q 212 795 69 653 q 556 938 354 938 q 900 796 757 938 q 904 790 901 793 l 879 767 l 240 128 q 556 0 371 0 q 868 125 739 0 l 892 100 q 556 -35 751 -35 q 436 -21 493 -35 l 436 -139 l 471 -139 q 594 -190 543 -139 q 644 -312 644 -240 q 594 -435 644 -385 q 471 -486 543 -486 l 332 -486 l 332 -451 l 471 -451 q 569 -410 528 -451 q 610 -312 610 -369 q 569 -215 610 -256 q 471 -174 528 -174 l 401 -174 l 401 -11 z "},"Ȯ":{"ha":1354,"x_min":69,"x_max":1285,"o":"m 678 1181 q 1107 1003 929 1181 q 1285 574 1285 825 q 1107 143 1285 321 q 678 -35 929 -35 q 247 143 425 -35 q 69 574 69 321 q 247 1003 69 825 q 678 1181 425 1181 m 678 1146 q 272 978 440 1146 q 104 574 104 810 q 272 168 104 336 q 678 0 440 0 q 1082 168 914 0 q 1250 574 1250 336 q 1082 978 1250 810 q 678 1146 914 1146 m 694 1424 l 694 1319 l 660 1319 l 660 1424 l 694 1424 z "},"ȯ":{"ha":1111,"x_min":69,"x_max":1042,"o":"m 556 938 q 899 795 757 938 q 1042 451 1042 653 q 899 108 1042 250 q 556 -35 757 -35 q 212 108 354 -35 q 69 451 69 250 q 212 795 69 653 q 556 938 354 938 m 556 903 q 236 771 368 903 q 104 451 104 639 q 236 132 104 264 q 556 0 368 0 q 875 132 743 0 q 1007 451 1007 264 q 875 771 1007 639 q 556 903 743 903 m 574 1181 l 574 1076 l 539 1076 l 539 1181 l 574 1181 z "},"Ȳ":{"ha":868,"x_min":0,"x_max":868,"o":"m 451 425 l 451 0 l 417 0 l 417 425 l 0 1146 l 40 1146 l 435 464 l 828 1146 l 868 1146 l 451 425 m 608 1319 l 608 1285 l 261 1285 l 261 1319 l 608 1319 z "},"ȳ":{"ha":1129,"x_min":104,"x_max":986,"o":"m 951 314 l 951 904 l 986 904 l 986 0 q 854 -319 986 -187 q 535 -451 722 -451 l 535 -417 q 831 -294 708 -417 q 951 0 951 -172 l 951 235 q 875 133 921 181 q 556 1 743 1 q 236 133 368 1 q 104 453 104 265 l 104 904 l 139 904 l 139 453 q 261 158 139 281 q 556 36 383 36 q 850 158 728 36 q 949 314 919 228 l 951 314 m 719 1076 l 719 1042 l 372 1042 l 372 1076 l 719 1076 z "},"ȷ":{"ha":313,"x_min":-278,"x_max":174,"o":"m 139 0 l 139 903 l 174 903 l 174 0 q 42 -319 174 -187 q -278 -451 -90 -451 l -278 -417 q 18 -294 -104 -417 q 139 0 139 -172 z "},"ȸ":{"ha":1979,"x_min":69,"x_max":1908,"o":"m 972 629 q 875 771 939 707 q 556 903 743 903 q 236 771 368 903 q 104 451 104 639 q 236 132 104 264 q 556 0 368 0 q 875 132 743 0 q 972 274 939 196 l 972 629 m 1006 274 q 1103 132 1039 196 q 1422 0 1235 0 q 1742 132 1610 0 q 1874 451 1874 264 q 1742 771 1874 639 q 1422 903 1610 903 q 1103 771 1235 903 q 1006 629 1039 707 l 1006 274 m 1007 1146 l 1007 707 q 1079 796 1038 754 q 1422 938 1221 938 q 1766 795 1624 938 q 1908 451 1908 653 q 1766 108 1908 250 q 1422 -35 1624 -35 q 1079 108 1221 -35 q 1007 196 1038 150 l 1007 0 l 971 0 l 971 196 q 899 108 940 150 q 556 -35 757 -35 q 212 108 354 -35 q 69 451 69 250 q 212 795 69 653 q 556 938 354 938 q 899 796 757 938 q 971 707 940 754 l 971 1146 l 1007 1146 z "},"ȹ":{"ha":1979,"x_min":69,"x_max":1908,"o":"m 1006 274 q 1103 132 1039 196 q 1422 0 1235 0 q 1742 132 1610 0 q 1874 451 1874 264 q 1742 771 1874 639 q 1422 903 1610 903 q 1103 771 1235 903 q 1006 629 1039 707 l 1006 274 m 972 629 q 875 771 939 707 q 556 903 743 903 q 236 771 368 903 q 104 451 104 639 q 236 132 104 264 q 556 0 368 0 q 875 132 743 0 q 972 274 939 196 l 972 629 m 971 -243 l 971 196 q 899 107 940 149 q 556 -35 757 -35 q 212 108 354 -35 q 69 451 69 250 q 212 795 69 653 q 556 938 354 938 q 899 794 757 938 q 971 707 940 753 l 971 903 l 1007 903 l 1007 707 q 1079 794 1038 753 q 1422 938 1221 938 q 1766 795 1624 938 q 1908 451 1908 653 q 1766 108 1908 250 q 1422 -35 1624 -35 q 1079 107 1221 -35 q 1007 196 1038 149 l 1007 -243 l 971 -243 z "},"ə":{"ha":972,"x_min":69,"x_max":904,"o":"m 733 750 q 418 878 603 878 q 106 753 235 878 l 82 778 q 418 913 222 913 q 762 770 619 913 q 904 426 904 628 q 762 83 904 225 q 418 -60 619 -60 q 74 82 217 -60 q 69 88 72 85 l 94 111 l 733 750 m 119 88 q 418 -25 244 -25 q 738 107 606 -25 q 869 426 869 239 q 757 725 869 600 l 119 88 z "},"ʹ":{"ha":243,"x_min":72,"x_max":175,"o":"m 72 1040 l 138 1283 l 175 1283 l 110 1040 l 72 1040 z "},"ʺ":{"ha":417,"x_min":72,"x_max":346,"o":"z "},"˂":{"ha":1042,"x_min":279,"x_max":728,"o":"z "},"˃":{"ha":1042,"x_min":315,"x_max":764,"o":"z "},"˄":{"ha":1040,"x_min":104,"x_max":903,"o":"z "},"˅":{"ha":1040,"x_min":139,"x_max":938,"o":"z "},"ˆ":{"ha":556,"x_min":69,"x_max":479,"o":"m 429 1042 l 275 1197 l 119 1042 l 69 1042 l 275 1246 l 479 1042 l 429 1042 z "},"ˇ":{"ha":556,"x_min":69,"x_max":479,"o":"m 119 1250 l 274 1094 l 429 1250 l 479 1250 l 274 1046 l 69 1250 l 119 1250 z "},"ˈ":{"ha":243,"x_min":104,"x_max":139,"o":"m 139 1250 l 139 1042 l 104 1042 l 104 1250 l 139 1250 z "},"ˉ":{"ha":556,"x_min":104,"x_max":451,"o":"m 451 1076 l 451 1042 l 104 1042 l 104 1076 l 451 1076 z "},"ˊ":{"ha":243,"x_min":72,"x_max":175,"o":"m 72 1040 l 138 1283 l 175 1283 l 110 1040 l 72 1040 z "},"ˋ":{"ha":243,"x_min":69,"x_max":172,"o":"m 172 1040 l 107 1283 l 69 1283 l 135 1040 l 172 1040 z "},"ˌ":{"ha":243,"x_min":104,"x_max":139,"o":"m 139 104 l 139 -104 l 104 -104 l 104 104 l 139 104 z "},"ˍ":{"ha":556,"x_min":106,"x_max":453,"o":"m 453 -174 l 453 -208 l 106 -208 l 106 -174 l 453 -174 z "},"ˎ":{"ha":243,"x_min":69,"x_max":172,"o":"z "},"ˏ":{"ha":243,"x_min":72,"x_max":175,"o":"m 72 -140 l 138 103 l 175 103 l 110 -140 l 72 -140 z "},"˘":{"ha":556,"x_min":69,"x_max":488,"o":"m 449 1215 l 488 1215 q 439 1143 471 1175 q 279 1076 372 1076 q 119 1143 185 1076 q 69 1215 86 1175 l 108 1215 q 144 1168 122 1189 q 279 1111 200 1111 q 414 1168 357 1111 q 449 1215 435 1189 z "},"˙":{"ha":243,"x_min":104,"x_max":139,"o":"m 139 1181 l 139 1076 l 104 1076 l 104 1181 l 139 1181 z "},"˚":{"ha":382,"x_min":69,"x_max":313,"o":"m 192 1285 q 277 1249 242 1285 q 313 1164 313 1214 q 277 1077 313 1113 q 192 1042 242 1042 q 105 1077 140 1042 q 69 1164 69 1113 q 105 1249 69 1214 q 192 1285 140 1285 m 192 1250 q 130 1224 156 1250 q 104 1164 104 1199 q 130 1102 104 1128 q 192 1076 156 1076 q 252 1102 226 1076 q 278 1164 278 1128 q 252 1224 278 1199 q 192 1250 226 1250 z "},"˛":{"ha":451,"x_min":140,"x_max":453,"o":"m 314 -347 q 191 -297 242 -347 q 140 -174 140 -246 q 191 -51 140 -101 q 314 0 242 0 l 314 -35 q 216 -76 257 -35 q 175 -174 175 -117 q 216 -272 175 -231 q 314 -312 257 -312 l 453 -312 l 453 -347 l 314 -347 z "},"˜":{"ha":660,"x_min":104,"x_max":556,"o":"m 556 1138 l 556 1103 q 428 1076 492 1076 q 331 1092 379 1076 q 232 1107 281 1107 q 104 1081 168 1107 l 104 1115 q 232 1142 168 1142 q 331 1126 281 1142 q 428 1111 379 1111 q 556 1138 492 1111 z "},"˝":{"ha":417,"x_min":72,"x_max":346,"o":"m 72 1076 l 138 1319 l 175 1319 l 110 1076 l 72 1076 m 243 1076 l 308 1319 l 346 1319 l 281 1076 l 243 1076 z "},"˟":{"ha":938,"x_min":208,"x_max":749,"o":"m 1312 -65 l 1558 -311 l 1533 -335 l 1288 -90 l 1042 -335 l 1018 -311 l 1263 -65 l 1018 180 l 1042 205 l 1288 -41 l 1533 205 l 1558 180 l 1312 -65 z "},"˷":{"ha":590,"x_min":69,"x_max":521,"o":"m 521 -211 l 521 -246 q 393 -272 457 -272 q 296 -257 344 -272 q 197 -242 246 -242 q 69 -268 133 -242 l 69 -233 q 197 -207 133 -207 q 296 -222 246 -207 q 393 -237 344 -237 q 521 -211 457 -237 z "},"̀":{"ha":243,"x_min":71,"x_max":174,"o":"m 174 1076 l 108 1319 l 71 1319 l 136 1076 l 174 1076 z "},"́":{"ha":243,"x_min":72,"x_max":175,"o":"m 72 1076 l 138 1319 l 175 1319 l 110 1076 l 72 1076 z "},"̂":{"ha":556,"x_min":68,"x_max":478,"o":"m 428 1042 l 274 1197 l 118 1042 l 68 1042 l 274 1246 l 478 1042 l 428 1042 z "},"̃":{"ha":660,"x_min":104,"x_max":556,"o":"m 556 1138 l 556 1103 q 428 1076 492 1076 q 331 1092 379 1076 q 232 1107 281 1107 q 104 1081 168 1107 l 104 1115 q 232 1142 168 1142 q 331 1126 281 1142 q 428 1111 379 1111 q 556 1138 492 1111 z "},"̄":{"ha":556,"x_min":104,"x_max":451,"o":"m 451 1076 l 451 1042 l 104 1042 l 104 1076 l 451 1076 z "},"̅":{"ha":1007,"x_min":104,"x_max":901,"o":"m 901 1319 l 901 1285 l 104 1285 l 104 1319 l 901 1319 z "},"̆":{"ha":556,"x_min":71,"x_max":489,"o":"m 450 1215 l 489 1215 q 440 1143 472 1175 q 281 1076 374 1076 q 121 1143 186 1076 q 71 1215 88 1175 l 110 1215 q 146 1168 124 1189 q 281 1111 201 1111 q 415 1168 358 1111 q 450 1215 436 1189 z "},"̇":{"ha":174,"x_min":69,"x_max":104,"o":"m 104 1181 l 104 1076 l 69 1076 l 69 1181 l 104 1181 z "},"̈":{"ha":451,"x_min":104,"x_max":346,"o":"m 104 1076 l 104 1181 l 139 1181 l 139 1076 l 104 1076 m 311 1076 l 311 1181 l 346 1181 l 346 1076 l 311 1076 z "},"̊":{"ha":382,"x_min":69,"x_max":313,"o":"m 192 1285 q 277 1249 242 1285 q 313 1164 313 1214 q 277 1077 313 1113 q 192 1042 242 1042 q 105 1077 140 1042 q 69 1164 69 1113 q 105 1249 69 1214 q 192 1285 140 1285 m 192 1250 q 130 1224 156 1250 q 104 1164 104 1199 q 130 1102 104 1128 q 192 1076 156 1076 q 252 1102 226 1076 q 278 1164 278 1128 q 252 1224 278 1199 q 192 1250 226 1250 z "},"̋":{"ha":417,"x_min":75,"x_max":349,"o":"m 75 1076 l 140 1319 l 178 1319 l 113 1076 l 75 1076 m 246 1076 l 311 1319 l 349 1319 l 283 1076 l 246 1076 z "},"̌":{"ha":556,"x_min":69,"x_max":479,"o":"m 119 1250 l 274 1094 l 429 1250 l 479 1250 l 274 1046 l 69 1250 l 119 1250 z "},"̏":{"ha":417,"x_min":74,"x_max":347,"o":"m 347 1076 l 282 1319 l 244 1319 l 310 1076 l 347 1076 m 176 1076 l 111 1319 l 74 1319 l 139 1076 l 176 1076 z "},"̑":{"ha":556,"x_min":68,"x_max":486,"o":"m 107 1049 l 68 1049 q 117 1121 85 1089 q 276 1188 183 1188 q 436 1121 371 1188 q 486 1049 469 1089 l 447 1049 q 411 1096 433 1075 q 276 1153 356 1153 q 142 1096 199 1153 q 107 1049 121 1075 z "},"̕":{"ha":381,"x_min":69,"x_max":172,"o":"m 69 900 l 135 1143 l 172 1143 l 107 900 l 69 900 z "},"̖":{"ha":243,"x_min":69,"x_max":172,"o":"z "},"̗":{"ha":243,"x_min":71,"x_max":174,"o":"m 71 -140 l 136 103 l 174 103 l 108 -140 l 71 -140 z "},"̛":{"ha":417,"x_min":242,"x_max":415,"o":"m 415 936 q 365 813 415 864 q 242 763 314 763 l 242 797 q 340 838 299 797 q 381 936 381 879 l 381 1249 l 415 1249 l 415 936 z "},"̡":{"ha":313,"x_min":0,"x_max":174,"o":"m 174 -174 q 123 -297 174 -246 q 0 -347 72 -347 l 0 -312 q 98 -272 57 -312 q 139 -174 139 -231 l 139 139 l 174 139 l 174 -174 z "},"̢":{"ha":313,"x_min":138,"x_max":311,"o":"m 138 -174 q 188 -297 138 -246 q 311 -347 239 -347 l 311 -312 q 213 -272 254 -312 q 172 -174 172 -231 l 172 139 l 138 139 l 138 -174 z "},"̣":{"ha":243,"x_min":103,"x_max":138,"o":"m 138 -139 l 138 -243 l 103 -243 l 103 -139 l 138 -139 z "},"̤":{"ha":451,"x_min":104,"x_max":346,"o":"m 104 -243 l 104 -139 l 139 -139 l 139 -243 l 104 -243 m 311 -243 l 311 -139 l 346 -139 l 346 -243 l 311 -243 z "},"̥":{"ha":451,"x_min":104,"x_max":347,"o":"m 226 -208 q 312 -244 276 -208 q 347 -329 347 -279 q 312 -416 347 -381 q 226 -451 276 -451 q 140 -416 175 -451 q 104 -329 104 -381 q 140 -244 104 -279 q 226 -208 175 -208 m 226 -243 q 165 -269 190 -243 q 139 -329 139 -294 q 165 -391 139 -365 q 226 -417 190 -417 q 287 -391 261 -417 q 313 -329 313 -365 q 287 -269 313 -294 q 226 -243 261 -243 z "},"̦":{"ha":243,"x_min":72,"x_max":175,"o":"m 72 -385 l 138 -142 l 175 -142 l 110 -385 l 72 -385 z "},"̧":{"ha":451,"x_min":68,"x_max":381,"o":"m 207 -486 l 68 -486 l 68 -451 l 207 -451 q 305 -410 264 -451 q 346 -312 346 -369 q 305 -215 346 -256 q 207 -174 264 -174 l 138 -174 l 138 0 l 172 0 l 172 -139 l 207 -139 q 330 -190 279 -139 q 381 -312 381 -240 q 330 -435 381 -385 q 207 -486 279 -486 z "},"̨":{"ha":451,"x_min":140,"x_max":453,"o":"m 314 -347 q 191 -297 242 -347 q 140 -174 140 -246 q 191 -51 140 -101 q 314 0 242 0 l 314 -35 q 216 -76 257 -35 q 175 -174 175 -117 q 216 -272 175 -231 q 314 -312 257 -312 l 453 -312 l 453 -347 l 314 -347 z "},"̬":{"ha":556,"x_min":69,"x_max":479,"o":"m 119 -108 l 274 -264 l 429 -108 l 479 -108 l 274 -312 l 69 -108 l 119 -108 z "},"̭":{"ha":556,"x_min":69,"x_max":479,"o":"m 429 -381 l 275 -225 l 119 -381 l 69 -381 l 275 -176 l 479 -381 l 429 -381 z "},"̮":{"ha":556,"x_min":69,"x_max":488,"o":"m 449 -103 l 488 -103 q 439 -175 471 -143 q 279 -242 372 -242 q 119 -175 185 -242 q 69 -103 86 -143 l 108 -103 q 144 -150 122 -129 q 279 -207 200 -207 q 414 -150 357 -207 q 449 -103 435 -129 z "},"̯":{"ha":556,"x_min":69,"x_max":488,"o":"m 108 -312 l 69 -312 q 118 -240 86 -272 q 278 -174 185 -174 q 438 -240 372 -174 q 488 -312 471 -272 l 449 -312 q 413 -265 435 -286 q 278 -208 357 -208 q 143 -265 200 -208 q 108 -312 122 -286 z "},"̰":{"ha":660,"x_min":104,"x_max":556,"o":"m 556 -112 l 556 -147 q 428 -174 492 -174 q 331 -158 379 -174 q 232 -143 281 -143 q 104 -169 168 -143 l 104 -135 q 232 -108 168 -108 q 331 -124 281 -108 q 428 -139 379 -139 q 556 -112 492 -139 z "},"̱":{"ha":556,"x_min":104,"x_max":451,"o":"m 451 -139 l 451 -174 l 104 -174 l 104 -139 l 451 -139 z "},"̲":{"ha":1007,"x_min":104,"x_max":901,"o":"m 901 -139 l 901 -174 l 104 -174 l 104 -139 l 901 -139 z "},"̳":{"ha":938,"x_min":104,"x_max":833,"o":"m 833 -3 l 833 -37 l 104 -37 l 104 -3 l 833 -3 m 833 -349 l 833 -383 l 104 -383 l 104 -349 l 833 -349 z "},"̴":{"ha":660,"x_min":104,"x_max":556,"o":"m 556 601 l 556 567 q 428 540 492 540 q 331 556 379 540 q 232 571 281 571 q 104 544 168 571 l 104 579 q 232 606 168 606 q 331 590 281 606 q 428 575 379 575 q 556 601 492 575 z "},"̵":{"ha":521,"x_min":69,"x_max":451,"o":"m 451 590 l 451 556 l 69 556 l 69 590 l 451 590 z "},"̶":{"ha":1007,"x_min":104,"x_max":903,"o":"m 903 590 l 903 556 l 104 556 l 104 590 l 903 590 z "},"̿":{"ha":938,"x_min":103,"x_max":832,"o":"m 832 1526 l 832 1492 l 103 1492 l 103 1526 l 832 1526 m 832 1181 l 832 1146 l 103 1146 l 103 1181 l 832 1181 z "},"̈́":{"ha":694,"x_min":104,"x_max":589,"o":"z "},"͇":{"ha":938,"x_min":104,"x_max":833,"o":"m 833 -3 l 833 -37 l 104 -37 l 104 -3 l 833 -3 m 833 -349 l 833 -383 l 104 -383 l 104 -349 l 833 -349 z "},"ͻ":{"ha":972,"x_min":68,"x_max":903,"o":"m 104 125 l 81 100 q 417 -35 221 -35 q 760 108 618 -35 q 903 451 903 250 q 760 795 903 653 q 417 938 618 938 q 72 796 215 938 q 68 790 71 793 l 93 767 q 97 771 94 768 q 417 903 229 903 q 736 771 604 903 q 868 451 868 639 q 736 132 868 264 q 417 0 604 0 q 104 125 233 0 z "},"ͼ":{"ha":972,"x_min":69,"x_max":904,"o":"m 868 125 l 892 100 q 556 -35 751 -35 q 212 108 354 -35 q 69 451 69 250 q 212 795 69 653 q 556 938 354 938 q 900 796 757 938 q 904 790 901 793 l 879 767 q 875 771 878 768 q 556 903 743 903 q 236 771 368 903 q 104 451 104 639 q 236 132 104 264 q 556 0 368 0 q 868 125 739 0 m 504 504 l 504 400 l 469 400 l 469 504 l 504 504 z "},"ͽ":{"ha":972,"x_min":69,"x_max":904,"o":"m 106 125 l 82 100 q 418 -35 222 -35 q 762 108 619 -35 q 904 451 904 250 q 762 795 904 653 q 418 938 619 938 q 74 796 217 938 q 69 790 72 793 l 94 767 q 99 771 96 768 q 418 903 231 903 q 738 771 606 903 q 869 451 869 639 q 738 132 869 264 q 418 0 606 0 q 106 125 235 0 m 469 504 l 469 400 l 504 400 l 504 504 l 469 504 z "},";":{"ha":313,"x_min":69,"x_max":174,"o":"m 69 -140 l 135 103 l 172 103 l 107 -140 l 69 -140 m 174 833 l 174 729 l 139 729 l 139 833 l 174 833 z "},"΄":{"ha":174,"x_min":68,"x_max":171,"o":"m 68 1076 l 133 1319 l 171 1319 l 106 1076 l 68 1076 z "},"΅":{"ha":694,"x_min":104,"x_max":589,"o":"m 139 1181 l 139 1076 l 104 1076 l 104 1181 l 139 1181 m 589 1181 l 589 1076 l 554 1076 l 554 1181 l 589 1181 m 315 1076 l 381 1319 l 418 1319 l 353 1076 l 315 1076 z "},"Ά":{"ha":1146,"x_min":0,"x_max":1114,"o":"m 53 1076 l 118 1319 l 156 1319 l 90 1076 l 53 1076 z "},"·":{"ha":243,"x_min":103,"x_max":138,"o":"m 138 999 l 138 894 l 103 894 l 103 999 l 138 999 z "},"Έ":{"ha":1042,"x_min":68,"x_max":1008,"o":"m 68 1076 l 133 1319 l 171 1319 l 106 1076 l 68 1076 z "},"Ή":{"ha":1389,"x_min":68,"x_max":1283,"o":"m 68 1076 l 133 1319 l 171 1319 l 106 1076 l 68 1076 z "},"Ί":{"ha":486,"x_min":68,"x_max":347,"o":"m 68 1076 l 133 1319 l 171 1319 l 106 1076 l 68 1076 z "},"Ό":{"ha":1424,"x_min":68,"x_max":1356,"o":"m 68 1076 l 133 1319 l 171 1319 l 106 1076 l 68 1076 z "},"Ύ":{"ha":1111,"x_min":68,"x_max":1111,"o":"m 68 1076 l 133 1319 l 171 1319 l 106 1076 l 68 1076 z "},"Ώ":{"ha":1354,"x_min":68,"x_max":1285,"o":"m 68 1076 l 133 1319 l 171 1319 l 106 1076 l 68 1076 m 208 0 l 208 35 l 486 35 l 486 79 q 307 203 389 121 q 139 608 139 371 q 307 1013 139 844 q 713 1181 475 1181 q 1117 1013 949 1181 q 1285 608 1285 844 q 1117 203 1285 371 q 938 79 1035 121 l 938 35 l 1215 35 l 1215 0 l 903 0 l 903 103 q 1093 228 1007 142 q 1250 608 1250 385 q 1092 988 1250 831 q 713 1146 935 1146 q 331 988 489 1146 q 174 608 174 831 q 332 228 174 385 q 521 103 417 142 l 521 0 l 208 0 z "},"ΐ":{"ha":313,"x_min":-69,"x_max":415,"o":"m -35 1146 l -35 1042 l -69 1042 l -69 1146 l -35 1146 m 415 1146 l 415 1042 l 381 1042 l 381 1146 l 415 1146 m 142 1042 l 207 1285 l 244 1285 l 179 1042 l 142 1042 z "},"Α":{"ha":1146,"x_min":15,"x_max":1129,"o":"m 986 222 l 572 1110 l 158 222 l 986 222 m 594 1146 l 1129 0 l 1090 0 l 1003 188 l 142 188 l 54 0 l 15 0 l 550 1146 l 594 1146 z "},"Β":{"ha":1042,"x_min":139,"x_max":954,"o":"m 174 1111 l 174 590 l 625 590 q 808 667 732 590 q 885 851 885 743 q 808 1035 885 958 q 625 1111 732 1111 l 174 1111 m 174 556 l 174 35 l 660 35 q 843 111 767 35 q 919 296 919 188 q 843 479 919 403 q 660 556 767 556 l 174 556 m 139 1146 l 625 1146 q 833 1060 747 1146 q 919 851 919 974 q 833 642 919 728 q 743 579 792 600 q 868 504 813 560 q 954 296 954 418 q 868 86 954 172 q 660 0 782 0 l 139 0 l 139 1146 z "},"Γ":{"ha":764,"x_min":139,"x_max":799,"o":"m 174 1111 l 174 0 l 139 0 l 139 1146 l 799 1146 l 799 1111 l 174 1111 z "},"Δ":{"ha":868,"x_min":0,"x_max":879,"o":"m 829 35 l 440 1106 l 50 35 l 829 35 m 463 1146 l 879 0 l 0 0 l 417 1146 l 463 1146 z "},"Ε":{"ha":868,"x_min":139,"x_max":799,"o":"m 139 1146 l 799 1146 l 799 1111 l 174 1111 l 174 590 l 660 590 l 660 556 l 174 556 l 174 35 l 799 35 l 799 0 l 139 0 l 139 1146 z "},"Ζ":{"ha":903,"x_min":36,"x_max":861,"o":"m 818 1111 l 36 1111 l 36 1146 l 861 1146 l 861 1111 l 79 35 l 861 35 l 861 0 l 36 0 l 36 35 l 818 1111 z "},"Η":{"ha":1215,"x_min":139,"x_max":1076,"o":"m 174 556 l 174 0 l 139 0 l 139 1146 l 174 1146 l 174 590 l 1042 590 l 1042 1146 l 1076 1146 l 1076 0 l 1042 0 l 1042 556 l 174 556 z "},"Θ":{"ha":1354,"x_min":68,"x_max":1283,"o":"m 2031 243 l 1128 243 l 1128 278 l 2031 278 l 2031 243 z "},"Ι":{"ha":313,"x_min":139,"x_max":174,"o":"m 174 1146 l 174 0 l 139 0 l 139 1146 l 174 1146 z "},"Κ":{"ha":868,"x_min":139,"x_max":772,"o":"m 174 1146 l 174 0 l 139 0 l 139 1146 l 174 1146 m 357 574 l 772 0 l 728 0 l 313 574 l 728 1146 l 772 1146 l 357 574 z "},"Λ":{"ha":868,"x_min":0,"x_max":879,"o":"m 463 1146 l 879 0 l 842 0 l 440 1106 l 38 0 l 0 0 l 417 1146 l 463 1146 z "},"Μ":{"ha":1424,"x_min":139,"x_max":1294,"o":"m 174 1099 l 174 0 l 139 0 l 139 1146 l 183 1146 l 717 411 l 1250 1146 l 1294 1146 l 1294 0 l 1260 0 l 1260 1099 l 740 382 l 693 382 l 174 1099 z "},"Ν":{"ha":1156,"x_min":139,"x_max":1015,"o":"m 174 1099 l 174 0 l 139 0 l 139 1146 l 183 1146 l 981 47 l 981 1146 l 1015 1146 l 1015 0 l 971 0 l 174 1099 z "},"Ξ":{"ha":938,"x_min":104,"x_max":833,"o":"m 833 1146 l 833 1111 l 104 1111 l 104 1146 l 833 1146 m 833 36 l 833 1 l 104 1 l 104 36 l 833 36 m 764 590 l 764 556 l 174 556 l 174 590 l 764 590 z "},"Ο":{"ha":1354,"x_min":69,"x_max":1285,"o":"m 678 1181 q 1107 1003 929 1181 q 1285 574 1285 825 q 1107 143 1285 321 q 678 -35 929 -35 q 247 143 425 -35 q 69 574 69 321 q 247 1003 69 825 q 678 1181 425 1181 m 678 1146 q 272 978 440 1146 q 104 574 104 810 q 272 168 104 336 q 678 0 440 0 q 1082 168 914 0 q 1250 574 1250 336 q 1082 978 1250 810 q 678 1146 914 1146 z "},"Π":{"ha":903,"x_min":139,"x_max":764,"o":"m 174 1111 l 174 0 l 139 0 l 139 1146 l 764 1146 l 764 0 l 729 0 l 729 1111 l 174 1111 z "},"Ρ":{"ha":1007,"x_min":139,"x_max":938,"o":"m 174 1111 l 174 347 l 521 347 q 791 459 679 347 q 903 729 903 571 q 791 999 903 888 q 521 1111 679 1111 l 174 1111 m 139 1146 l 521 1146 q 815 1024 693 1146 q 938 729 938 901 q 815 435 938 557 q 521 313 693 313 l 174 313 l 174 0 l 139 0 l 139 1146 z "},"Σ":{"ha":971,"x_min":69,"x_max":918,"o":"m 93 1111 l 93 1146 l 918 1146 l 918 1111 l 136 1111 l 515 590 l 517 590 l 517 589 l 515 589 l 113 35 l 894 35 l 894 0 l 69 0 l 69 35 l 474 589 l 93 1111 z "},"Τ":{"ha":729,"x_min":0,"x_max":729,"o":"m 729 1146 l 729 1111 l 382 1111 l 382 0 l 347 0 l 347 1111 l 0 1111 l 0 1146 l 729 1146 z "},"Υ":{"ha":868,"x_min":0,"x_max":868,"o":"m 451 425 l 451 0 l 417 0 l 417 425 l 0 1146 l 40 1146 l 435 464 l 828 1146 l 868 1146 l 451 425 z "},"Φ":{"ha":1354,"x_min":69,"x_max":1285,"o":"m 658 1007 q 272 881 433 1001 q 104 574 104 753 q 272 267 104 393 q 658 139 433 144 l 658 1007 m 693 1007 l 693 139 q 1082 267 919 143 q 1250 574 1250 393 q 1082 881 1250 753 q 693 1007 919 1003 m 658 1042 l 658 1146 l 693 1146 l 693 1042 q 1107 904 935 1038 q 1285 574 1285 767 q 1107 242 1285 379 q 693 104 935 108 l 693 0 l 658 0 l 658 104 q 247 242 418 110 q 69 574 69 379 q 247 904 69 767 q 658 1042 418 1036 z "},"Χ":{"ha":972,"x_min":47,"x_max":924,"o":"m 508 574 l 924 0 l 879 0 l 486 542 l 92 0 l 47 0 l 464 574 l 47 1146 l 92 1146 l 486 604 l 879 1146 l 924 1146 l 508 574 z "},"Ψ":{"ha":1285,"x_min":69,"x_max":1217,"o":"m 71 776 l 69 776 l 69 1144 l 104 1144 l 104 778 l 106 778 q 264 397 106 554 q 626 240 415 246 l 626 1144 l 661 1144 l 661 240 q 1025 397 874 247 q 1182 778 1182 554 l 1182 1146 l 1217 1146 l 1217 778 q 1049 374 1217 540 q 661 206 888 213 l 661 0 l 626 0 l 626 206 q 239 374 401 211 q 71 776 71 540 z "},"Ω":{"ha":1215,"x_min":35,"x_max":1181,"o":"m 104 0 l 104 35 l 382 35 l 382 79 q 203 203 285 121 q 35 608 35 371 q 203 1013 35 844 q 608 1181 371 1181 q 1013 1013 844 1181 q 1181 608 1181 844 q 1013 203 1181 371 q 833 79 931 121 l 833 35 l 1111 35 l 1111 0 l 799 0 l 799 103 q 989 228 903 142 q 1146 608 1146 385 q 988 988 1146 831 q 608 1146 831 1146 q 227 988 385 1146 q 69 608 69 831 q 228 228 69 385 q 417 103 313 142 l 417 0 l 104 0 z "},"Ϊ":{"ha":313,"x_min":36,"x_max":278,"o":"m 175 1146 l 175 0 l 140 0 l 140 1146 l 175 1146 m 36 1319 l 36 1424 l 71 1424 l 71 1319 l 36 1319 m 243 1319 l 243 1424 l 278 1424 l 278 1319 l 243 1319 z "},"Ϋ":{"ha":868,"x_min":0,"x_max":868,"o":"m 451 425 l 451 0 l 417 0 l 417 425 l 0 1146 l 40 1146 l 435 464 l 828 1146 l 868 1146 l 451 425 m 314 1319 l 314 1424 l 349 1424 l 349 1319 l 314 1319 m 521 1319 l 521 1424 l 556 1424 l 556 1319 l 521 1319 z "},"ά":{"ha":1319,"x_min":69,"x_max":1254,"o":"m 1010 275 q 900 108 975 183 q 556 -35 757 -35 q 212 108 354 -35 q 69 451 69 250 q 212 795 69 653 q 556 938 354 938 q 900 796 757 938 q 1010 628 975 719 l 1060 499 l 1217 903 l 1254 903 l 1078 451 l 1254 0 l 1217 0 l 1060 404 l 1010 275 m 978 615 q 875 771 944 701 q 556 903 743 903 q 236 771 368 903 q 104 451 104 639 q 236 132 104 264 q 556 0 368 0 q 875 132 743 0 q 978 288 944 201 l 1042 451 l 978 615 m 628 1076 l 693 1319 l 731 1319 l 665 1076 l 628 1076 z "},"έ":{"ha":694,"x_min":104,"x_max":621,"o":"m 382 451 q 210 381 281 451 q 139 208 139 310 q 210 37 139 108 q 382 -35 281 -35 q 554 38 482 -35 q 590 83 575 58 l 621 65 q 579 13 603 36 q 382 -69 497 -69 q 185 12 267 -69 q 104 208 104 93 q 186 406 104 324 q 286 469 231 450 q 210 524 244 488 q 139 694 139 594 q 210 867 139 796 q 382 938 281 938 q 554 867 482 938 q 576 840 567 854 l 549 819 q 529 842 540 831 q 382 903 468 903 q 235 842 296 903 q 174 694 174 781 q 235 547 174 608 q 382 486 296 486 l 382 451 m 328 1076 l 393 1319 l 431 1319 l 365 1076 l 328 1076 z "},"ή":{"ha":1128,"x_min":139,"x_max":1021,"o":"m 139 904 l 174 904 l 174 706 q 250 807 204 760 q 569 939 382 939 q 889 807 757 939 q 1021 488 1021 675 l 1021 -208 l 986 -208 l 986 488 q 864 782 986 660 q 569 904 742 904 q 275 782 397 904 q 176 626 206 713 l 174 626 l 174 0 l 139 0 l 139 904 m 546 1076 l 611 1319 l 649 1319 l 583 1076 l 546 1076 z "},"ί":{"ha":313,"x_min":122,"x_max":225,"o":"m 122 1076 l 188 1319 l 225 1319 l 160 1076 l 122 1076 z "},"ΰ":{"ha":972,"x_min":139,"x_max":833,"o":"m 313 1181 l 313 1076 l 278 1076 l 278 1181 l 313 1181 m 763 1181 l 763 1076 l 728 1076 l 728 1181 l 763 1181 m 489 1076 l 554 1319 l 592 1319 l 526 1076 l 489 1076 z "},"α":{"ha":1319,"x_min":69,"x_max":1254,"o":"m 1010 275 q 900 108 975 183 q 556 -35 757 -35 q 212 108 354 -35 q 69 451 69 250 q 212 795 69 653 q 556 938 354 938 q 900 796 757 938 q 1010 628 975 719 l 1060 499 l 1217 903 l 1254 903 l 1078 451 l 1254 0 l 1217 0 l 1060 404 l 1010 275 m 978 615 q 875 771 944 701 q 556 903 743 903 q 236 771 368 903 q 104 451 104 639 q 236 132 104 264 q 556 0 368 0 q 875 132 743 0 q 978 288 944 201 l 1042 451 l 978 615 z "},"β":{"ha":694,"x_min":104,"x_max":621,"o":"m 440 469 q 540 406 496 449 q 621 208 621 324 q 540 12 621 93 q 343 -69 458 -69 q 146 13 228 -69 q 139 19 142 17 l 139 -208 l 104 -208 l 104 694 q 176 867 104 796 q 347 938 247 938 q 519 867 449 938 q 590 694 590 796 q 519 524 590 594 q 440 469 483 488 m 139 76 q 172 38 153 56 q 343 -35 243 -35 q 515 37 444 -35 q 586 208 586 108 q 515 381 586 310 q 343 451 444 451 l 343 486 l 347 486 q 494 547 433 486 q 556 694 556 608 q 494 842 556 781 q 347 903 433 903 q 200 842 261 903 q 139 694 139 781 l 139 76 z "},"γ":{"ha":625,"x_min":43,"x_max":590,"o":"m 335 197 l 335 0 l 300 0 l 300 197 l 43 903 l 82 903 l 317 256 l 551 903 l 590 903 l 335 197 z "},"δ":{"ha":799,"x_min":104,"x_max":729,"o":"m 613 81 q 654 122 613 81 q 694 278 694 163 q 613 474 694 393 q 417 556 532 556 q 220 474 301 556 q 139 278 139 393 q 220 81 139 163 q 417 0 301 0 q 613 81 532 0 m 725 903 l 725 868 l 268 868 l 636 500 l 638 499 q 729 278 729 407 q 638 57 729 149 q 417 -35 546 -35 q 196 57 288 -35 q 104 278 104 149 q 196 499 104 407 q 417 590 288 590 q 508 578 465 590 l 218 868 l 218 903 l 725 903 z "},"ε":{"ha":694,"x_min":104,"x_max":621,"o":"m 382 451 q 210 381 281 451 q 139 208 139 310 q 210 37 139 108 q 382 -35 281 -35 q 554 38 482 -35 q 590 83 575 58 l 621 65 q 579 13 603 36 q 382 -69 497 -69 q 185 12 267 -69 q 104 208 104 93 q 186 406 104 324 q 286 469 231 450 q 210 524 244 488 q 139 694 139 594 q 210 867 139 796 q 382 938 281 938 q 554 867 482 938 q 576 840 567 854 l 549 819 q 529 842 540 831 q 382 903 468 903 q 235 842 296 903 q 174 694 174 781 q 235 547 174 608 q 382 486 296 486 l 382 451 z "},"ζ":{"ha":799,"x_min":104,"x_max":660,"o":"m 565 868 l 108 868 l 108 903 l 615 903 l 615 868 l 242 494 q 221 475 231 485 q 139 278 139 393 q 220 81 139 163 q 417 0 301 0 l 486 0 q 609 -51 558 0 q 660 -174 660 -101 q 609 -297 660 -246 q 486 -347 558 -347 l 347 -347 l 347 -312 l 486 -312 q 584 -272 543 -312 q 625 -174 625 -231 q 584 -76 625 -117 q 486 -35 543 -35 l 417 -35 q 196 57 288 -35 q 104 278 104 149 q 196 499 104 407 l 197 500 l 565 868 z "},"η":{"ha":1128,"x_min":139,"x_max":1021,"o":"m 139 904 l 174 904 l 174 706 q 250 807 204 760 q 569 939 382 939 q 889 807 757 939 q 1021 488 1021 675 l 1021 -208 l 986 -208 l 986 488 q 864 782 986 660 q 569 904 742 904 q 275 782 397 904 q 176 626 206 713 l 174 626 l 174 0 l 139 0 l 139 904 z "},"θ":{"ha":1111,"x_min":69,"x_max":1042,"o":"m 556 938 q 899 795 757 938 q 1042 451 1042 653 q 899 108 1042 250 q 556 -35 757 -35 q 212 108 354 -35 q 69 451 69 250 q 212 795 69 653 q 556 938 354 938 m 556 903 q 236 771 368 903 q 104 451 104 639 q 236 132 104 264 q 556 0 368 0 q 875 132 743 0 q 1007 451 1007 264 q 875 771 1007 639 q 556 903 743 903 m 833 469 l 833 435 l 278 435 l 278 469 l 833 469 z "},"ι":{"ha":313,"x_min":139,"x_max":174,"o":"m 174 903 l 174 0 l 139 0 l 139 903 l 174 903 z "},"κ":{"ha":764,"x_min":139,"x_max":685,"o":"m 174 903 l 174 0 l 139 0 l 139 903 l 174 903 m 357 451 l 685 0 l 642 0 l 314 451 l 642 903 l 685 903 l 357 451 z "},"λ":{"ha":625,"x_min":35,"x_max":596,"o":"m 296 718 l 229 903 l 268 903 l 596 0 l 557 0 l 315 664 l 74 0 l 35 0 l 296 718 z "},"μ":{"ha":1181,"x_min":139,"x_max":1021,"o":"m 1021 -1 l 986 -1 l 986 197 q 910 96 956 143 q 590 -36 778 -36 q 271 96 403 -36 q 174 238 207 160 l 174 -450 l 139 -450 l 139 903 l 174 903 l 174 415 q 296 121 174 243 q 590 -1 418 -1 q 885 121 763 -1 q 983 276 954 190 l 986 276 l 986 903 l 1021 903 l 1021 -1 z "},"ν":{"ha":694,"x_min":32,"x_max":728,"o":"m 360 0 l 32 903 l 71 903 l 381 51 l 689 903 l 728 903 l 400 0 l 360 0 z "},"ξ":{"ha":694,"x_min":69,"x_max":590,"o":"m 251 469 q 175 524 210 488 q 104 694 104 594 q 175 867 104 796 q 347 938 246 938 q 519 867 447 938 q 542 840 532 854 l 514 819 q 494 842 506 831 q 347 903 433 903 q 200 842 261 903 q 139 694 139 781 q 200 547 139 608 q 347 486 261 486 l 347 451 q 175 381 246 451 q 104 208 104 310 q 175 37 104 108 q 347 -35 246 -35 l 417 -35 q 540 -85 489 -35 q 590 -208 590 -136 q 540 -331 590 -281 q 417 -382 489 -382 l 278 -382 l 278 -347 l 417 -347 q 515 -306 474 -347 q 556 -208 556 -265 q 515 -110 556 -151 q 417 -69 474 -69 l 347 -69 q 151 12 232 -69 q 69 208 69 93 q 151 406 69 324 q 251 469 196 450 z "},"ο":{"ha":1111,"x_min":69,"x_max":1042,"o":"m 556 938 q 899 795 757 938 q 1042 451 1042 653 q 899 108 1042 250 q 556 -35 757 -35 q 212 108 354 -35 q 69 451 69 250 q 212 795 69 653 q 556 938 354 938 m 556 903 q 236 771 368 903 q 104 451 104 639 q 236 132 104 264 q 556 0 368 0 q 875 132 743 0 q 1007 451 1007 264 q 875 771 1007 639 q 556 903 743 903 z "},"π":{"ha":903,"x_min":0,"x_max":903,"o":"m 243 868 l 243 0 l 208 0 l 208 868 l 0 868 l 0 903 l 903 903 l 903 868 l 694 868 l 694 0 l 660 0 l 660 868 l 243 868 z "},"ρ":{"ha":1111,"x_min":69,"x_max":1042,"o":"m 556 903 q 236 771 368 903 q 104 451 104 639 q 236 132 104 264 q 556 0 368 0 q 875 132 743 0 q 1007 451 1007 264 q 875 771 1007 639 q 556 903 743 903 m 69 451 q 212 795 69 653 q 556 938 354 938 q 899 795 757 938 q 1042 451 1042 653 q 899 108 1042 250 q 556 -35 757 -35 q 213 108 354 -35 q 104 267 140 179 l 104 -208 l 69 -208 l 69 451 z "},"ς":{"ha":868,"x_min":110,"x_max":744,"o":"m 313 472 l 313 471 q 147 581 199 503 q 110 703 110 635 q 115 758 110 729 q 212 899 139 849 q 401 951 285 949 l 411 951 q 731 857 593 951 q 736 851 732 854 l 710 826 q 707 833 710 829 q 413 917 579 917 l 401 917 q 231 870 294 914 q 149 751 168 826 q 143 701 143 725 q 176 599 143 644 q 319 504 222 533 l 319 506 l 557 450 q 711 339 663 421 q 744 218 744 283 q 738 158 744 189 q 628 4 714 57 q 489 -43 563 -32 q 417 -49 453 -47 l 417 -12 q 485 -8 450 -12 q 611 33 547 -1 q 703 167 683 79 q 710 219 710 194 q 682 321 710 274 q 547 417 640 389 l 313 472 z "},"σ":{"ha":1111,"x_min":69,"x_max":1042,"o":"m 556 903 q 236 771 368 903 q 104 451 104 639 q 236 132 104 264 q 556 0 368 0 q 875 132 743 0 q 1007 451 1007 264 q 875 771 1007 639 q 556 903 743 903 m 740 903 q 900 796 828 867 q 1042 451 1042 653 q 899 108 1042 250 q 556 -35 757 -35 q 212 108 354 -35 q 69 451 69 250 q 212 795 69 653 q 556 938 354 938 l 1042 938 l 1042 903 l 740 903 z "},"τ":{"ha":590,"x_min":0,"x_max":590,"o":"m 590 903 l 590 868 l 313 868 l 313 0 l 278 0 l 278 868 l 0 868 l 0 903 l 590 903 z "},"υ":{"ha":903,"x_min":104,"x_max":799,"o":"m 764 313 l 764 903 l 799 903 l 799 313 q 697 67 799 168 q 451 -35 596 -35 q 206 67 307 -35 q 104 313 104 168 l 104 903 l 139 903 l 139 313 q 231 92 139 183 q 451 0 322 0 q 672 92 581 0 q 764 313 764 183 z "},"φ":{"ha":1111,"x_min":69,"x_max":1042,"o":"m 574 903 l 574 0 q 875 132 750 7 q 1007 451 1007 264 q 875 771 1007 639 q 574 903 750 896 m 556 936 l 556 938 q 899 795 757 938 q 1042 451 1042 653 q 900 108 1042 250 q 574 -35 764 -28 l 574 -210 l 539 -210 l 539 -35 q 213 108 349 -29 q 69 451 69 250 q 199 782 69 643 l 225 758 q 104 451 104 631 q 236 132 104 264 q 539 0 363 6 l 539 936 l 556 936 z "},"χ":{"ha":833,"x_min":67,"x_max":765,"o":"m 438 451 l 765 0 l 722 0 l 417 422 l 110 0 l 67 0 l 394 451 l 67 903 l 110 903 l 417 481 l 722 903 l 765 903 l 438 451 z "},"ψ":{"ha":1042,"x_min":68,"x_max":971,"o":"m 936 632 l 936 903 l 971 903 l 971 632 q 839 313 971 444 q 536 181 713 186 l 536 -1 l 501 -1 l 501 181 q 200 313 325 188 q 68 632 68 444 l 68 903 l 103 903 l 103 632 q 225 338 103 460 q 501 215 340 222 l 501 901 l 536 901 l 536 215 q 814 338 697 221 q 936 632 936 460 z "},"ω":{"ha":1424,"x_min":106,"x_max":1322,"o":"m 697 278 l 697 486 l 732 486 l 732 278 q 813 81 732 163 q 1010 0 894 0 q 1206 81 1125 0 q 1288 278 1288 163 l 1288 590 q 1206 787 1288 706 q 1010 868 1125 868 l 1010 903 q 1231 811 1139 903 q 1322 590 1322 719 l 1322 278 q 1231 57 1322 149 q 1010 -35 1139 -35 q 789 57 881 -35 q 715 172 738 108 q 640 57 692 108 q 419 -35 549 -35 q 199 57 290 -35 q 107 278 107 149 l 107 590 l 106 590 q 197 811 106 719 q 418 903 289 903 l 418 868 q 222 787 303 868 q 140 590 140 706 l 142 590 l 142 278 q 223 81 142 163 q 419 0 304 0 q 616 81 535 0 q 697 278 697 163 z "},"ϊ":{"ha":313,"x_min":36,"x_max":278,"o":"m 175 903 l 175 0 l 140 0 l 140 903 l 175 903 m 36 1076 l 36 1181 l 71 1181 l 71 1076 l 36 1076 m 243 1076 l 243 1181 l 278 1181 l 278 1076 l 243 1076 z "},"ϋ":{"ha":903,"x_min":104,"x_max":799,"o":"m 764 313 l 764 903 l 799 903 l 799 313 q 697 67 799 168 q 451 -35 596 -35 q 206 67 307 -35 q 104 313 104 168 l 104 903 l 139 903 l 139 313 q 231 92 139 183 q 451 0 322 0 q 672 92 581 0 q 764 313 764 183 m 331 1076 l 331 1181 l 365 1181 l 365 1076 l 331 1076 m 538 1076 l 538 1181 l 572 1181 l 572 1076 l 538 1076 z "},"ό":{"ha":1111,"x_min":69,"x_max":1042,"o":"m 556 938 q 899 795 757 938 q 1042 451 1042 653 q 899 108 1042 250 q 556 -35 757 -35 q 212 108 354 -35 q 69 451 69 250 q 212 795 69 653 q 556 938 354 938 m 556 903 q 236 771 368 903 q 104 451 104 639 q 236 132 104 264 q 556 0 368 0 q 875 132 743 0 q 1007 451 1007 264 q 875 771 1007 639 q 556 903 743 903 m 521 1076 l 586 1319 l 624 1319 l 558 1076 l 521 1076 z "},"ύ":{"ha":903,"x_min":104,"x_max":799,"o":"m 764 313 l 764 903 l 799 903 l 799 313 q 697 67 799 168 q 451 -35 596 -35 q 206 67 307 -35 q 104 313 104 168 l 104 903 l 139 903 l 139 313 q 231 92 139 183 q 451 0 322 0 q 672 92 581 0 q 764 313 764 183 m 417 1076 l 482 1319 l 519 1319 l 454 1076 l 417 1076 z "},"ώ":{"ha":1424,"x_min":106,"x_max":1322,"o":"m 697 278 l 697 486 l 732 486 l 732 278 q 813 81 732 163 q 1010 0 894 0 q 1206 81 1125 0 q 1288 278 1288 163 l 1288 590 q 1206 787 1288 706 q 1010 868 1125 868 l 1010 903 q 1231 811 1139 903 q 1322 590 1322 719 l 1322 278 q 1231 57 1322 149 q 1010 -35 1139 -35 q 789 57 881 -35 q 715 172 738 108 q 640 57 692 108 q 419 -35 549 -35 q 199 57 290 -35 q 107 278 107 149 l 107 590 l 106 590 q 197 811 106 719 q 418 903 289 903 l 418 868 q 222 787 303 868 q 140 590 140 706 l 142 590 l 142 278 q 223 81 142 163 q 419 0 304 0 q 616 81 535 0 q 697 278 697 163 m 679 1076 l 744 1319 l 782 1319 l 717 1076 l 679 1076 z "},"ϒ":{"ha":868,"x_min":0,"x_max":868,"o":"m 451 425 l 451 0 l 417 0 l 417 425 l 0 1146 l 40 1146 l 435 464 l 828 1146 l 868 1146 l 451 425 z "},"ϓ":{"ha":1111,"x_min":68,"x_max":1111,"o":"m 68 1076 l 133 1319 l 171 1319 l 106 1076 l 68 1076 m 694 425 l 694 0 l 660 0 l 660 425 l 243 1146 l 283 1146 l 678 464 l 1071 1146 l 1111 1146 l 694 425 z "},"ϔ":{"ha":868,"x_min":0,"x_max":868,"o":"m 451 425 l 451 0 l 417 0 l 417 425 l 0 1146 l 40 1146 l 435 464 l 828 1146 l 868 1146 l 451 425 m 314 1319 l 314 1424 l 349 1424 l 349 1319 l 314 1319 m 521 1319 l 521 1424 l 556 1424 l 556 1319 l 521 1319 z "},"ϕ":{"ha":1111,"x_min":69,"x_max":1042,"o":"m 539 1024 q 236 892 363 1018 q 104 572 104 760 q 236 253 104 385 q 539 121 363 126 l 539 1024 m 574 1024 l 574 121 q 875 253 750 128 q 1007 572 1007 385 q 875 892 1007 760 q 574 1024 750 1017 m 539 1058 l 539 1285 l 574 1285 l 574 1058 q 900 917 764 1051 q 1042 572 1042 774 q 900 229 1042 371 q 574 86 764 93 l 574 -139 l 539 -139 l 539 86 q 213 229 349 92 q 69 572 69 371 q 213 917 69 774 q 539 1058 349 1053 z "},"Ϙ":{"ha":1354,"x_min":69,"x_max":1285,"o":"m 678 1146 q 272 978 440 1146 q 104 574 104 810 q 272 168 104 336 q 678 0 440 0 q 1082 168 914 0 q 1250 574 1250 336 q 1082 978 1250 810 q 678 1146 914 1146 m 660 -35 q 247 143 418 -28 q 69 574 69 321 q 247 1003 69 825 q 678 1181 425 1181 q 1107 1003 929 1181 q 1285 574 1285 825 q 1107 143 1285 321 q 694 -35 935 -29 l 694 -243 l 660 -243 l 660 -35 z "},"ϙ":{"ha":1111,"x_min":69,"x_max":1042,"o":"m 556 903 q 236 771 368 903 q 104 451 104 639 q 236 132 104 264 q 556 0 368 0 q 875 132 743 0 q 1007 451 1007 264 q 875 771 1007 639 q 556 903 743 903 m 539 -35 q 213 108 349 -29 q 69 451 69 250 q 212 795 69 653 q 556 938 354 938 q 899 795 757 938 q 1042 451 1042 653 q 900 108 1042 250 q 574 -35 764 -28 l 574 -243 l 539 -243 l 539 -35 z "},"Ϛ":{"ha":1042,"x_min":68,"x_max":956,"o":"m 554 243 l 572 243 l 572 0 l 538 0 l 538 208 q 211 351 347 214 q 68 694 68 493 q 210 1038 68 896 q 554 1181 353 1181 q 899 1039 756 1181 q 956 971 931 1006 l 926 951 q 874 1014 904 983 q 554 1146 742 1146 q 235 1014 367 1146 q 103 694 103 882 q 235 375 103 507 q 554 243 367 243 z "},"ϛ":{"ha":972,"x_min":69,"x_max":904,"o":"m 556 -35 q 212 108 354 -35 q 69 451 69 250 q 212 795 69 653 q 556 938 354 938 q 900 796 757 938 q 904 790 901 793 l 879 767 q 875 771 878 768 q 556 903 743 903 q 236 771 368 903 q 104 451 104 639 q 236 132 104 264 q 556 0 368 0 l 625 0 q 748 -51 697 0 q 799 -174 799 -101 q 748 -297 799 -246 q 625 -347 697 -347 l 486 -347 l 486 -312 l 625 -312 q 723 -272 682 -312 q 764 -174 764 -231 q 723 -76 764 -117 q 625 -35 682 -35 l 556 -35 z "},"Ϝ":{"ha":833,"x_min":139,"x_max":799,"o":"m 139 1146 l 799 1146 l 799 1111 l 174 1111 l 174 590 l 660 590 l 660 556 l 174 556 l 174 0 l 139 0 l 139 1146 z "},"ϱ":{"ha":903,"x_min":104,"x_max":799,"o":"m 451 276 q 231 368 322 276 q 139 589 139 460 q 231 810 139 718 q 451 901 322 901 q 672 810 581 901 q 764 589 764 718 q 672 368 764 460 q 451 276 581 276 m 139 435 q 206 343 164 385 q 451 242 307 242 q 697 343 596 242 q 799 589 799 444 q 697 835 799 733 q 451 936 596 936 q 206 835 307 936 q 104 589 104 733 l 104 311 q 206 65 104 167 q 451 -36 307 -36 q 649 -106 565 -36 l 700 -106 q 697 -103 699 -104 q 451 -1 596 -1 q 230 90 321 -1 q 139 311 139 182 l 139 435 z "},"ϲ":{"ha":972,"x_min":69,"x_max":904,"o":"m 868 125 l 892 100 q 556 -35 751 -35 q 212 108 354 -35 q 69 451 69 250 q 212 795 69 653 q 556 938 354 938 q 900 796 757 938 q 904 790 901 793 l 879 767 q 875 771 878 768 q 556 903 743 903 q 236 771 368 903 q 104 451 104 639 q 236 132 104 264 q 556 0 368 0 q 868 125 739 0 z "},"ϳ":{"ha":313,"x_min":-278,"x_max":174,"o":"m 174 1215 l 174 1111 l 139 1111 l 139 1215 l 174 1215 m 139 0 l 139 903 l 174 903 l 174 0 q 42 -319 174 -187 q -278 -451 -90 -451 l -278 -417 q 18 -294 -104 -417 q 139 0 139 -172 z "},"ϴ":{"ha":1354,"x_min":68,"x_max":1283,"o":"m 2031 243 l 1128 243 l 1128 278 l 2031 278 l 2031 243 z "},"ϵ":{"ha":972,"x_min":69,"x_max":904,"o":"m 104 435 q 236 132 110 258 q 556 0 368 0 q 868 125 739 0 l 892 100 q 556 -35 751 -35 q 212 108 354 -35 q 69 451 69 250 q 212 795 69 653 q 556 938 354 938 q 900 796 757 938 q 904 790 901 793 l 879 767 q 875 771 878 768 q 556 903 743 903 q 236 771 368 903 q 104 469 111 646 l 729 469 l 729 435 l 104 435 z "},"϶":{"ha":972,"x_min":68,"x_max":903,"o":"m 868 468 q 736 771 863 644 q 417 903 604 903 q 104 778 233 903 l 81 803 q 417 938 221 938 q 760 795 618 938 q 903 451 903 653 q 760 108 903 250 q 417 -35 618 -35 q 72 107 215 -35 q 68 113 71 110 l 93 136 q 97 132 94 135 q 417 0 229 0 q 736 132 604 0 q 868 433 861 257 l 243 433 l 243 468 l 868 468 z "},"Ϸ":{"ha":1007,"x_min":139,"x_max":938,"o":"m 174 903 l 521 903 q 815 781 693 903 q 938 486 938 658 q 815 192 938 314 q 521 69 693 69 l 174 69 l 174 -136 l 139 -136 l 139 1146 l 174 1146 l 174 903 m 174 104 l 521 104 q 791 216 679 104 q 903 486 903 328 q 791 756 903 644 q 521 868 679 868 l 174 868 l 174 104 z "},"ϸ":{"ha":1146,"x_min":138,"x_max":1075,"o":"m 172 274 q 269 132 206 196 q 589 0 401 0 q 908 132 776 0 q 1040 451 1040 264 q 908 771 1040 639 q 589 903 776 903 q 269 771 401 903 q 172 629 206 707 l 172 274 m 138 1146 l 172 1146 l 172 704 q 246 794 203 751 q 589 938 388 938 q 933 795 790 938 q 1075 451 1075 653 q 933 108 1075 250 q 589 -35 790 -35 q 246 107 388 -35 q 172 199 203 150 l 172 -243 l 138 -243 l 138 1146 z "},"Ϲ":{"ha":1215,"x_min":69,"x_max":1107,"o":"m 1107 143 q 678 -35 929 -35 q 247 143 425 -35 q 69 574 69 321 q 247 1003 69 825 q 678 1181 425 1181 q 1107 1003 929 1181 l 1082 978 q 678 1146 914 1146 q 272 978 440 1146 q 104 574 104 810 q 272 168 104 336 q 678 0 440 0 q 1082 168 914 0 l 1107 143 z "},"Ϻ":{"ha":1424,"x_min":139,"x_max":1294,"o":"m 174 1099 l 174 0 l 139 0 l 139 1146 l 183 1146 l 717 411 l 1250 1146 l 1294 1146 l 1294 0 l 1260 0 l 1260 1099 l 740 382 l 693 382 l 174 1099 z "},"Ͻ":{"ha":1215,"x_min":69,"x_max":1107,"o":"m 69 143 q 499 -35 247 -35 q 929 143 751 -35 q 1107 574 1107 321 q 929 1003 1107 825 q 499 1181 751 1181 q 69 1003 247 1181 l 94 978 q 499 1146 263 1146 q 904 978 736 1146 q 1072 574 1072 810 q 904 168 1072 336 q 499 0 736 0 q 94 168 263 0 l 69 143 z "},"Ͼ":{"ha":1215,"x_min":69,"x_max":1107,"o":"m 1107 143 q 678 -35 929 -35 q 247 143 425 -35 q 69 574 69 321 q 247 1003 69 825 q 678 1181 425 1181 q 1107 1003 929 1181 l 1082 978 q 678 1146 914 1146 q 272 978 440 1146 q 104 574 104 810 q 272 168 104 336 q 678 0 440 0 q 1082 168 914 0 l 1107 143 m 611 625 l 611 521 l 576 521 l 576 625 l 611 625 z "},"Ͽ":{"ha":1215,"x_min":69,"x_max":1107,"o":"m 69 143 q 499 -35 247 -35 q 929 143 751 -35 q 1107 574 1107 321 q 929 1003 1107 825 q 499 1181 751 1181 q 69 1003 247 1181 l 94 978 q 499 1146 263 1146 q 904 978 736 1146 q 1072 574 1072 810 q 904 168 1072 336 q 499 0 736 0 q 94 168 263 0 l 69 143 m 565 625 l 565 521 l 600 521 l 600 625 l 565 625 z "},"Ѐ":{"ha":868,"x_min":139,"x_max":799,"o":"m 139 1146 l 799 1146 l 799 1111 l 174 1111 l 174 590 l 660 590 l 660 556 l 174 556 l 174 35 l 799 35 l 799 0 l 139 0 l 139 1146 m 519 1319 l 454 1563 l 417 1563 l 482 1319 l 519 1319 z "},"Ё":{"ha":868,"x_min":139,"x_max":799,"o":"m 139 1146 l 799 1146 l 799 1111 l 174 1111 l 174 590 l 660 590 l 660 556 l 174 556 l 174 35 l 799 35 l 799 0 l 139 0 l 139 1146 m 349 1319 l 349 1424 l 383 1424 l 383 1319 l 349 1319 m 556 1319 l 556 1424 l 590 1424 l 590 1319 l 556 1319 z "},"Ђ":{"ha":1319,"x_min":0,"x_max":1229,"o":"m 729 1146 l 729 1111 l 382 1111 l 382 567 q 458 668 413 621 q 778 800 590 800 q 1097 668 965 800 q 1229 349 1229 536 q 1097 29 1229 161 q 778 -103 965 -103 l 778 -68 q 1072 54 950 -68 q 1194 349 1194 176 q 1072 643 1194 521 q 778 765 950 765 q 483 643 606 765 q 385 488 414 574 l 382 488 l 382 0 l 347 0 l 347 1111 l 0 1111 l 0 1146 l 729 1146 z "},"Ѓ":{"ha":764,"x_min":139,"x_max":799,"o":"m 435 1319 l 500 1563 l 538 1563 l 472 1319 l 435 1319 z "},"Є":{"ha":1215,"x_min":69,"x_max":1118,"o":"m 104 556 q 272 168 111 329 q 678 0 440 0 q 1082 168 914 0 q 1092 178 1088 174 l 1118 154 q 1107 143 1113 149 q 678 -35 929 -35 q 247 143 425 -35 q 69 574 69 321 q 247 1003 69 825 q 678 1181 425 1181 q 1107 1003 929 1181 q 1113 997 1110 1000 l 1086 974 q 1082 978 1085 975 q 678 1146 914 1146 q 272 978 440 1146 q 104 590 110 815 l 953 590 l 953 556 l 104 556 z "},"Ѕ":{"ha":1007,"x_min":49,"x_max":900,"o":"m 814 71 q 538 -49 701 -37 q 499 -50 518 -50 q 168 61 308 -50 q 49 208 88 135 l 81 224 q 192 88 115 156 q 496 -15 321 -15 q 535 -14 515 -15 q 789 96 685 -4 q 856 207 838 140 q 865 274 865 240 q 832 393 865 335 q 683 504 781 479 l 349 594 q 160 726 224 628 q 117 868 117 792 q 128 950 117 907 q 272 1140 161 1075 q 424 1188 346 1182 q 476 1190 450 1190 q 721 1129 604 1190 q 861 1010 796 1085 l 832 990 q 703 1099 772 1060 q 476 1156 593 1156 q 425 1153 451 1156 q 290 1110 356 1147 q 161 940 190 1051 q 150 867 150 901 q 189 744 150 800 q 357 628 246 658 l 693 539 q 863 410 804 508 q 900 274 900 344 q 889 199 900 238 q 815 69 869 121 l 814 71 z "},"І":{"ha":313,"x_min":139,"x_max":174,"o":"m 174 1146 l 174 0 l 139 0 l 139 1146 l 174 1146 z "},"Ї":{"ha":313,"x_min":36,"x_max":278,"o":"m 175 1146 l 175 0 l 140 0 l 140 1146 l 175 1146 m 36 1319 l 36 1424 l 71 1424 l 71 1319 l 36 1319 m 243 1319 l 243 1424 l 278 1424 l 278 1319 l 243 1319 z "},"Ј":{"ha":521,"x_min":-35,"x_max":417,"o":"m 382 451 l 382 1146 l 417 1146 l 417 451 q 285 132 417 264 q -35 0 153 0 l -35 35 q 261 157 139 35 q 382 451 382 279 z "},"Љ":{"ha":1597,"x_min":0,"x_max":1514,"o":"m 278 278 q 197 81 278 163 q 0 0 115 0 l 0 35 q 172 106 100 35 q 243 278 243 178 l 243 1147 l 868 1147 l 868 590 l 1219 590 q 1428 504 1342 590 q 1514 296 1514 418 q 1428 86 1514 172 q 1219 0 1342 0 l 833 0 l 833 1113 l 278 1113 l 278 278 m 868 556 l 868 35 l 1219 35 q 1403 111 1326 35 q 1479 296 1479 188 q 1403 479 1479 403 q 1219 556 1326 556 l 868 556 z "},"Њ":{"ha":1806,"x_min":139,"x_max":1721,"o":"m 1040 0 l 1040 556 l 174 556 l 174 0 l 139 0 l 139 1146 l 174 1146 l 174 590 l 1040 590 l 1040 1146 l 1076 1146 l 1076 590 l 1426 590 q 1635 504 1549 590 q 1721 296 1721 418 q 1635 86 1721 172 q 1426 0 1549 0 l 1040 0 m 1076 556 l 1076 35 l 1426 35 q 1610 111 1533 35 q 1686 296 1686 188 q 1610 479 1686 403 q 1426 556 1533 556 l 1076 556 z "},"Ћ":{"ha":1319,"x_min":0,"x_max":1229,"o":"m 729 1146 l 729 1111 l 382 1111 l 382 567 q 458 668 413 621 q 778 800 590 800 q 1097 668 965 800 q 1229 349 1229 536 l 1229 0 l 1194 0 l 1194 349 q 1072 643 1194 521 q 778 765 950 765 q 483 643 606 765 q 385 488 414 574 l 382 488 l 382 0 l 347 0 l 347 1111 l 0 1111 l 0 1146 l 729 1146 z "},"Ќ":{"ha":868,"x_min":139,"x_max":772,"o":"m 421 1319 l 486 1563 l 524 1563 l 458 1319 l 421 1319 z "},"Ѝ":{"ha":1146,"x_min":139,"x_max":1015,"o":"m 589 1319 l 524 1563 l 486 1563 l 551 1319 l 589 1319 z "},"Ў":{"ha":938,"x_min":-39,"x_max":904,"o":"m 450 429 l 36 1146 l 76 1146 l 471 464 l 864 1146 l 904 1146 l 349 183 q 281 97 321 138 q -39 -35 149 -35 l -39 0 q 257 122 135 0 q 314 193 290 156 l 450 429 m 603 1458 l 642 1458 q 593 1386 625 1418 q 433 1319 526 1319 q 274 1386 339 1319 q 224 1458 240 1418 l 263 1458 q 299 1411 276 1432 q 433 1354 354 1354 q 568 1411 511 1354 q 603 1458 589 1432 z "},"Џ":{"ha":833,"x_min":104,"x_max":729,"o":"m 104 1146 l 139 1146 l 139 215 l 694 215 l 694 1146 l 729 1146 l 729 181 l 435 181 l 435 0 l 400 0 l 400 181 l 104 181 l 104 1146 z "},"А":{"ha":1146,"x_min":15,"x_max":1129,"o":"m 986 222 l 572 1110 l 158 222 l 986 222 m 594 1146 l 1129 0 l 1090 0 l 1003 188 l 142 188 l 54 0 l 15 0 l 550 1146 l 594 1146 z "},"Б":{"ha":938,"x_min":139,"x_max":819,"o":"m 174 556 l 174 35 l 525 35 q 708 111 632 35 q 785 296 785 188 q 708 479 785 403 q 525 556 632 556 l 174 556 m 174 590 l 525 590 q 733 504 647 590 q 819 296 819 418 q 733 86 819 172 q 525 0 647 0 l 139 0 l 139 1146 l 799 1146 l 799 1111 l 174 1111 l 174 590 z "},"В":{"ha":1042,"x_min":139,"x_max":954,"o":"m 174 1111 l 174 590 l 625 590 q 808 667 732 590 q 885 851 885 743 q 808 1035 885 958 q 625 1111 732 1111 l 174 1111 m 174 556 l 174 35 l 660 35 q 843 111 767 35 q 919 296 919 188 q 843 479 919 403 q 660 556 767 556 l 174 556 m 139 1146 l 625 1146 q 833 1060 747 1146 q 919 851 919 974 q 833 642 919 728 q 743 579 792 600 q 868 504 813 560 q 954 296 954 418 q 868 86 954 172 q 660 0 782 0 l 139 0 l 139 1146 z "},"Г":{"ha":764,"x_min":139,"x_max":799,"o":"m 174 1111 l 174 0 l 139 0 l 139 1146 l 799 1146 l 799 1111 l 174 1111 z "},"Д":{"ha":1076,"x_min":0,"x_max":1007,"o":"m 278 1113 l 278 556 q 197 360 278 440 q 136 313 168 331 l 833 313 l 833 1113 l 278 1113 m 243 1147 l 868 1147 l 868 313 l 1007 313 l 1007 0 l 972 0 l 972 278 l 35 278 l 35 0 l 0 0 l 0 313 q 172 384 100 313 q 243 556 243 456 l 243 1147 z "},"Е":{"ha":868,"x_min":139,"x_max":799,"o":"m 139 1146 l 799 1146 l 799 1111 l 174 1111 l 174 590 l 660 590 l 660 556 l 174 556 l 174 35 l 799 35 l 799 0 l 139 0 l 139 1146 z "},"Ж":{"ha":1424,"x_min":104,"x_max":1336,"o":"m 738 1146 l 738 0 l 703 0 l 703 1146 l 738 1146 m 921 574 l 1336 0 l 1292 0 l 876 574 l 1292 1146 l 1336 1146 l 921 574 m 519 572 l 104 1146 l 149 1146 l 564 572 l 149 0 l 104 0 l 519 572 z "},"З":{"ha":868,"x_min":104,"x_max":764,"o":"m 432 590 l 432 625 l 433 625 q 617 701 540 625 q 693 886 693 778 q 617 1069 693 993 q 433 1146 540 1146 q 249 1069 325 1146 q 172 903 178 999 l 138 903 q 224 1094 143 1014 q 433 1181 310 1181 q 642 1094 556 1181 q 728 886 728 1008 q 642 676 728 763 q 539 608 596 631 q 668 529 610 586 q 764 296 764 432 q 667 62 764 158 q 435 -35 571 -35 q 201 62 297 -35 q 104 296 104 158 l 104 313 l 139 313 l 139 296 q 225 86 139 172 q 435 0 311 0 q 643 86 557 0 q 729 296 729 172 q 643 504 729 418 q 435 590 557 590 l 432 590 z "},"И":{"ha":1146,"x_min":139,"x_max":1015,"o":"m 981 1099 l 981 0 l 1015 0 l 1015 1146 l 971 1146 l 174 47 l 174 1146 l 139 1146 l 139 0 l 183 0 l 981 1099 z "},"Й":{"ha":1146,"x_min":139,"x_max":1015,"o":"m 981 1099 l 981 0 l 1015 0 l 1015 1146 l 971 1146 l 174 47 l 174 1146 l 139 1146 l 139 0 l 183 0 l 981 1099 m 747 1458 l 786 1458 q 738 1386 769 1418 q 578 1319 671 1319 q 418 1386 483 1319 q 368 1458 385 1418 l 407 1458 q 443 1411 421 1432 q 578 1354 499 1354 q 713 1411 656 1354 q 747 1458 733 1432 z "},"К":{"ha":868,"x_min":139,"x_max":772,"o":"m 174 1146 l 174 0 l 139 0 l 139 1146 l 174 1146 m 357 574 l 772 0 l 728 0 l 313 574 l 728 1146 l 772 1146 l 357 574 z "},"Л":{"ha":1007,"x_min":0,"x_max":868,"o":"m 868 0 l 833 0 l 833 1113 l 278 1113 l 278 278 q 197 81 278 163 q 0 0 115 0 l 0 35 q 172 106 100 35 q 243 278 243 178 l 243 1147 l 868 1147 l 868 0 z "},"М":{"ha":1424,"x_min":139,"x_max":1294,"o":"m 174 1099 l 174 0 l 139 0 l 139 1146 l 183 1146 l 717 411 l 1250 1146 l 1294 1146 l 1294 0 l 1260 0 l 1260 1099 l 740 382 l 693 382 l 174 1099 z "},"Н":{"ha":1215,"x_min":139,"x_max":1076,"o":"m 174 556 l 174 0 l 139 0 l 139 1146 l 174 1146 l 174 590 l 1042 590 l 1042 1146 l 1076 1146 l 1076 0 l 1042 0 l 1042 556 l 174 556 z "},"О":{"ha":1354,"x_min":69,"x_max":1285,"o":"m 678 1181 q 1107 1003 929 1181 q 1285 574 1285 825 q 1107 143 1285 321 q 678 -35 929 -35 q 247 143 425 -35 q 69 574 69 321 q 247 1003 69 825 q 678 1181 425 1181 m 678 1146 q 272 978 440 1146 q 104 574 104 810 q 272 168 104 336 q 678 0 440 0 q 1082 168 914 0 q 1250 574 1250 336 q 1082 978 1250 810 q 678 1146 914 1146 z "},"П":{"ha":903,"x_min":139,"x_max":764,"o":"m 174 1111 l 174 0 l 139 0 l 139 1146 l 764 1146 l 764 0 l 729 0 l 729 1111 l 174 1111 z "},"Р":{"ha":1007,"x_min":139,"x_max":938,"o":"m 174 1111 l 174 347 l 521 347 q 791 459 679 347 q 903 729 903 571 q 791 999 903 888 q 521 1111 679 1111 l 174 1111 m 139 1146 l 521 1146 q 815 1024 693 1146 q 938 729 938 901 q 815 435 938 557 q 521 313 693 313 l 174 313 l 174 0 l 139 0 l 139 1146 z "},"С":{"ha":1215,"x_min":69,"x_max":1107,"o":"m 1107 143 q 678 -35 929 -35 q 247 143 425 -35 q 69 574 69 321 q 247 1003 69 825 q 678 1181 425 1181 q 1107 1003 929 1181 l 1082 978 q 678 1146 914 1146 q 272 978 440 1146 q 104 574 104 810 q 272 168 104 336 q 678 0 440 0 q 1082 168 914 0 l 1107 143 z "},"Т":{"ha":729,"x_min":0,"x_max":729,"o":"m 729 1146 l 729 1111 l 382 1111 l 382 0 l 347 0 l 347 1111 l 0 1111 l 0 1146 l 729 1146 z "},"У":{"ha":938,"x_min":-39,"x_max":904,"o":"m 450 429 l 36 1146 l 76 1146 l 471 464 l 864 1146 l 904 1146 l 349 183 q 281 97 321 138 q -39 -35 149 -35 l -39 0 q 257 122 135 0 q 314 193 290 156 l 450 429 z "},"Ф":{"ha":1354,"x_min":69,"x_max":1285,"o":"m 660 1146 q 272 978 433 1139 q 104 574 104 810 q 272 168 104 336 q 660 0 433 7 l 660 1146 m 694 0 q 1082 168 919 6 q 1250 574 1250 336 q 1082 978 1250 810 q 694 1146 919 1140 l 694 0 m 694 1181 q 1107 1003 935 1175 q 1285 574 1285 825 q 1107 143 1285 321 q 694 -35 935 -29 l 694 -139 l 660 -139 l 660 -35 q 247 143 418 -28 q 69 574 69 321 q 247 1003 69 825 q 660 1181 418 1174 l 660 1285 l 694 1285 l 694 1181 z "},"Х":{"ha":972,"x_min":47,"x_max":924,"o":"m 508 574 l 924 0 l 879 0 l 486 542 l 92 0 l 47 0 l 464 574 l 47 1146 l 92 1146 l 486 604 l 879 1146 l 924 1146 l 508 574 z "},"Ц":{"ha":1007,"x_min":139,"x_max":974,"o":"m 938 0 l 139 0 l 139 1146 l 174 1146 l 174 36 l 729 36 l 729 1146 l 764 1146 l 764 36 l 974 36 l 974 -172 l 938 -172 l 938 0 z "},"Ч":{"ha":1128,"x_min":104,"x_max":986,"o":"m 986 0 l 951 0 l 951 440 q 875 339 921 386 q 556 207 743 207 q 236 339 368 207 q 104 658 104 471 l 104 1146 l 139 1146 l 139 658 q 261 364 139 486 q 556 242 383 242 q 850 364 728 242 q 949 519 919 433 l 951 519 l 951 1146 l 986 1146 l 986 0 z "},"Ш":{"ha":1493,"x_min":139,"x_max":1354,"o":"m 139 0 l 139 1146 l 174 1146 l 174 35 l 729 35 l 729 1146 l 764 1146 l 764 35 l 1319 35 l 1319 1146 l 1354 1146 l 1354 0 l 139 0 z "},"Щ":{"ha":1597,"x_min":139,"x_max":1563,"o":"m 139 0 l 139 1146 l 174 1146 l 174 35 l 729 35 l 729 1146 l 764 1146 l 764 35 l 1319 35 l 1319 1146 l 1354 1146 l 1354 35 l 1563 35 l 1563 -174 l 1528 -174 l 1528 0 l 139 0 z "},"Ъ":{"ha":903,"x_min":-174,"x_max":819,"o":"m 174 590 l 525 590 q 733 504 647 590 q 819 296 819 418 q 733 86 819 172 q 525 0 647 0 l 139 0 l 139 1111 l -174 1111 l -174 1146 l 174 1146 l 174 590 m 174 556 l 174 35 l 525 35 q 708 111 632 35 q 785 296 785 188 q 708 479 785 403 q 525 556 632 556 l 174 556 z "},"Ы":{"ha":1181,"x_min":139,"x_max":1042,"o":"m 174 590 l 525 590 q 733 504 647 590 q 819 296 819 418 q 733 86 819 172 q 525 0 647 0 l 139 0 l 139 1146 l 174 1146 l 174 590 m 1042 1146 l 1042 0 l 1007 0 l 1007 1146 l 1042 1146 m 174 556 l 174 35 l 525 35 q 708 111 632 35 q 785 296 785 188 q 708 479 785 403 q 525 556 632 556 l 174 556 z "},"Ь":{"ha":903,"x_min":139,"x_max":819,"o":"m 174 590 l 525 590 q 733 504 647 590 q 819 296 819 418 q 733 86 819 172 q 525 0 647 0 l 139 0 l 139 1146 l 174 1146 l 174 590 m 174 556 l 174 35 l 525 35 q 708 111 632 35 q 785 296 785 188 q 708 479 785 403 q 525 556 632 556 l 174 556 z "},"Э":{"ha":1215,"x_min":96,"x_max":1144,"o":"m 1110 556 q 942 168 1103 329 q 536 0 774 0 q 132 168 300 0 q 122 178 126 174 l 96 154 q 107 143 101 149 q 536 -35 285 -35 q 967 143 789 -35 q 1144 574 1144 321 q 967 1003 1144 825 q 536 1181 789 1181 q 107 1003 285 1181 q 101 997 104 1000 l 128 974 q 132 978 129 975 q 536 1146 300 1146 q 942 978 774 1146 q 1110 590 1104 815 l 261 590 l 261 556 l 1110 556 z "},"Ю":{"ha":1701,"x_min":104,"x_max":1633,"o":"m 1026 1146 q 621 978 789 1146 q 453 574 453 810 q 621 168 453 336 q 1026 0 789 0 q 1431 168 1263 0 q 1599 574 1599 336 q 1431 978 1599 810 q 1026 1146 1263 1146 m 104 1146 l 139 1146 l 139 590 l 418 590 q 596 1003 424 831 q 1026 1181 774 1181 q 1456 1003 1278 1181 q 1633 574 1633 825 q 1456 143 1633 321 q 1026 -35 1278 -35 q 596 143 774 -35 q 418 556 425 314 l 139 556 l 139 0 l 104 0 l 104 1146 z "},"Я":{"ha":1076,"x_min":106,"x_max":939,"o":"m 904 1111 l 904 347 l 522 347 q 252 459 364 347 q 140 729 140 571 q 252 999 140 888 q 522 1111 364 1111 l 904 1111 m 939 1146 l 522 1146 q 228 1024 350 1146 q 106 729 106 901 q 228 435 106 557 q 353 347 285 378 l 153 0 l 194 0 l 386 333 q 522 313 450 313 l 904 313 l 904 0 l 939 0 l 939 1146 z "},"а":{"ha":1146,"x_min":69,"x_max":1007,"o":"m 1007 0 l 972 0 l 972 199 q 900 108 942 150 q 556 -35 757 -35 q 212 108 354 -35 q 69 451 69 250 q 212 795 69 653 q 556 938 354 938 q 900 796 757 938 q 972 704 942 753 l 972 903 l 1007 903 l 1007 0 m 972 274 l 972 629 q 875 771 939 707 q 556 903 743 903 q 236 771 368 903 q 104 451 104 639 q 236 132 104 264 q 556 0 368 0 q 875 132 743 0 q 972 274 939 196 z "},"б":{"ha":903,"x_min":104,"x_max":799,"o":"m 451 625 q 231 533 322 625 q 139 313 139 442 q 231 92 139 183 q 451 0 322 0 q 672 92 581 0 q 764 313 764 183 q 672 533 764 442 q 451 625 581 625 m 139 467 q 206 558 164 517 q 451 660 307 660 q 697 558 596 660 q 799 313 799 457 q 697 67 799 168 q 451 -35 596 -35 q 206 67 307 -35 q 104 313 104 168 l 104 590 q 206 836 104 735 q 451 938 307 938 q 649 1007 565 938 l 700 1007 q 697 1004 699 1006 q 451 903 596 903 q 230 811 321 903 q 139 590 139 719 l 139 467 z "},"в":{"ha":868,"x_min":139,"x_max":790,"o":"m 139 904 l 174 904 l 174 903 l 549 903 q 706 838 640 901 q 771 678 771 771 q 706 518 771 583 q 636 469 674 486 q 719 415 682 453 q 790 243 790 344 q 719 72 790 143 q 549 0 647 0 l 139 0 l 139 904 m 174 451 l 174 35 l 549 35 q 694 96 633 35 q 756 243 756 157 q 694 390 756 329 q 549 451 633 451 l 174 451 m 174 868 l 174 486 l 549 486 q 681 543 625 488 q 736 678 736 599 q 681 813 736 756 q 549 868 625 867 l 174 868 z "},"г":{"ha":694,"x_min":139,"x_max":660,"o":"m 174 868 l 174 0 l 139 0 l 139 903 l 660 903 l 660 868 l 174 868 z "},"д":{"ha":1042,"x_min":0,"x_max":1007,"o":"m 278 868 l 278 451 q 197 256 278 336 q 136 208 168 226 l 833 208 l 833 868 l 278 868 m 243 903 l 868 903 l 868 208 l 1007 208 l 1007 0 l 972 0 l 972 174 l 35 174 l 35 0 l 0 0 l 0 208 q 172 280 100 208 q 243 451 243 351 l 243 903 z "},"е":{"ha":972,"x_min":69,"x_max":904,"o":"m 240 128 q 556 0 371 0 q 868 125 739 0 l 892 100 q 556 -35 751 -35 q 212 108 354 -35 q 69 451 69 250 q 212 795 69 653 q 556 938 354 938 q 900 796 757 938 q 904 790 901 793 l 879 767 l 240 128 m 854 790 q 556 903 729 903 q 236 771 368 903 q 104 451 104 639 q 217 153 104 278 l 854 790 z "},"ж":{"ha":1215,"x_min":71,"x_max":1128,"o":"m 617 903 l 617 0 l 582 0 l 582 903 l 617 903 m 800 451 l 1128 0 l 1085 0 l 757 451 l 1085 903 l 1128 903 l 800 451 m 399 451 l 71 903 l 114 903 l 442 451 l 114 0 l 71 0 l 399 451 z "},"з":{"ha":729,"x_min":106,"x_max":622,"o":"m 344 451 q 517 381 446 451 q 588 208 588 310 q 517 37 588 108 q 344 -35 446 -35 q 172 38 244 -35 q 136 83 151 58 l 106 65 q 147 13 124 36 q 344 -69 229 -69 q 541 12 460 -69 q 622 208 622 93 q 540 406 622 324 q 440 469 496 450 q 517 524 482 488 q 588 694 588 594 q 517 867 588 796 q 344 938 446 938 q 172 867 244 938 q 150 840 160 854 l 178 819 q 197 842 186 831 q 344 903 258 903 q 492 842 431 903 q 553 694 553 781 q 492 547 553 608 q 344 486 431 486 l 344 451 z "},"и":{"ha":972,"x_min":135,"x_max":835,"o":"m 831 897 l 831 0 l 796 0 l 796 849 l 179 0 l 135 0 l 135 903 l 169 903 l 169 47 l 790 903 l 835 903 l 831 897 z "},"й":{"ha":972,"x_min":135,"x_max":835,"o":"m 831 897 l 831 0 l 796 0 l 796 849 l 179 0 l 135 0 l 135 903 l 169 903 l 169 47 l 790 903 l 835 903 l 831 897 m 656 1215 l 694 1215 q 646 1143 678 1175 q 486 1076 579 1076 q 326 1143 392 1076 q 276 1215 293 1175 l 315 1215 q 351 1168 329 1189 q 486 1111 407 1111 q 621 1168 564 1111 q 656 1215 642 1189 z "},"к":{"ha":764,"x_min":139,"x_max":685,"o":"m 174 903 l 174 0 l 139 0 l 139 903 l 174 903 m 357 451 l 685 0 l 642 0 l 314 451 l 642 903 l 685 903 l 357 451 z "},"л":{"ha":1007,"x_min":0,"x_max":868,"o":"m 868 0 l 833 0 l 833 867 l 278 867 l 278 278 q 197 81 278 163 q 0 0 115 0 l 0 35 q 172 106 100 35 q 243 278 243 178 l 243 901 l 868 901 l 868 0 z "},"м":{"ha":1181,"x_min":139,"x_max":1043,"o":"m 174 857 l 174 1 l 139 1 l 139 904 l 183 904 l 592 342 l 999 904 l 1043 904 l 1043 1 l 1008 1 l 1008 857 l 614 313 l 568 313 l 174 857 z "},"н":{"ha":1007,"x_min":139,"x_max":868,"o":"m 174 453 l 174 0 l 139 0 l 139 903 l 174 903 l 174 488 l 833 488 l 833 903 l 868 903 l 868 0 l 833 0 l 833 453 l 174 453 z "},"о":{"ha":1111,"x_min":69,"x_max":1042,"o":"m 556 938 q 899 795 757 938 q 1042 451 1042 653 q 899 108 1042 250 q 556 -35 757 -35 q 212 108 354 -35 q 69 451 69 250 q 212 795 69 653 q 556 938 354 938 m 556 903 q 236 771 368 903 q 104 451 104 639 q 236 132 104 264 q 556 0 368 0 q 875 132 743 0 q 1007 451 1007 264 q 875 771 1007 639 q 556 903 743 903 z "},"п":{"ha":903,"x_min":139,"x_max":764,"o":"m 174 867 l 174 0 l 139 0 l 139 901 l 764 901 l 764 0 l 729 0 l 729 867 l 174 867 z "},"р":{"ha":1146,"x_min":138,"x_max":1075,"o":"m 172 629 q 269 771 206 707 q 589 903 401 903 q 908 771 776 903 q 1040 451 1040 639 q 908 132 1040 264 q 589 0 776 0 q 269 132 401 0 q 172 274 206 196 l 172 629 m 138 -243 l 172 -243 l 172 199 q 246 107 203 150 q 589 -35 388 -35 q 933 108 790 -35 q 1075 451 1075 250 q 933 795 1075 653 q 589 938 790 938 q 246 794 388 938 q 172 704 203 751 l 172 903 l 138 903 l 138 -243 z "},"с":{"ha":972,"x_min":69,"x_max":904,"o":"m 868 125 l 892 100 q 556 -35 751 -35 q 212 108 354 -35 q 69 451 69 250 q 212 795 69 653 q 556 938 354 938 q 900 796 757 938 q 904 790 901 793 l 879 767 q 875 771 878 768 q 556 903 743 903 q 236 771 368 903 q 104 451 104 639 q 236 132 104 264 q 556 0 368 0 q 868 125 739 0 z "},"т":{"ha":590,"x_min":0,"x_max":590,"o":"m 590 903 l 590 868 l 313 868 l 313 0 l 278 0 l 278 868 l 0 868 l 0 903 l 590 903 z "},"у":{"ha":1129,"x_min":104,"x_max":986,"o":"m 951 314 l 951 904 l 986 904 l 986 0 q 854 -319 986 -187 q 535 -451 722 -451 l 535 -417 q 831 -294 708 -417 q 951 0 951 -172 l 951 235 q 875 133 921 181 q 556 1 743 1 q 236 133 368 1 q 104 453 104 265 l 104 904 l 139 904 l 139 453 q 261 158 139 281 q 556 36 383 36 q 850 158 728 36 q 949 314 919 228 l 951 314 z "},"ф":{"ha":1563,"x_min":69,"x_max":1492,"o":"m 763 483 q 668 771 756 650 q 435 903 571 903 q 201 771 297 903 q 104 451 104 639 q 201 132 104 264 q 435 0 297 0 q 668 132 571 0 q 763 419 756 253 l 763 483 m 799 496 l 799 408 q 894 133 808 250 q 1128 0 992 0 q 1360 133 1264 0 q 1457 451 1457 265 q 1360 771 1457 639 q 1128 903 1264 903 q 894 771 992 903 q 799 496 808 654 m 764 242 q 692 108 738 169 q 435 -35 585 -35 q 176 108 283 -35 q 69 451 69 250 q 176 795 69 653 q 435 938 283 938 q 692 796 585 938 q 764 661 738 733 l 764 1076 l 799 1076 l 799 665 q 869 796 825 736 q 1128 938 976 938 q 1385 795 1279 938 q 1492 451 1492 653 q 1385 108 1492 250 q 1128 -35 1279 -35 q 869 108 976 -35 q 799 238 825 167 l 799 -174 l 764 -174 l 764 242 z "},"х":{"ha":833,"x_min":67,"x_max":765,"o":"m 438 451 l 765 0 l 722 0 l 417 422 l 110 0 l 67 0 l 394 451 l 67 903 l 110 903 l 417 481 l 722 903 l 765 903 l 438 451 z "},"ц":{"ha":1007,"x_min":139,"x_max":974,"o":"m 139 0 l 139 904 l 174 904 l 174 36 l 729 36 l 729 904 l 764 904 l 764 36 l 974 36 l 974 -172 l 939 -172 l 939 0 l 139 0 z "},"ч":{"ha":1111,"x_min":104,"x_max":986,"o":"m 986 0 l 951 0 l 951 371 q 875 269 921 317 q 556 138 743 138 q 236 269 368 138 q 104 589 104 401 l 104 903 l 139 903 l 139 589 q 261 294 139 417 q 556 172 383 172 q 850 294 728 172 q 949 450 919 364 l 951 450 l 951 903 l 986 903 l 986 0 z "},"ш":{"ha":1493,"x_min":139,"x_max":1354,"o":"m 139 0 l 139 901 l 174 901 l 174 35 l 729 35 l 729 901 l 764 901 l 764 33 l 1319 33 l 1319 900 l 1354 900 l 1354 0 l 139 0 z "},"щ":{"ha":1597,"x_min":139,"x_max":1563,"o":"m 139 0 l 139 901 l 174 901 l 174 35 l 729 35 l 729 901 l 764 901 l 764 35 l 1319 35 l 1319 900 l 1354 900 l 1354 35 l 1563 35 l 1563 -174 l 1528 -174 l 1528 0 l 139 0 z "}}}
